<?xml version="1.0" encoding="UTF-8"?><svg xmlns="http://www.w3.org/2000/svg" viewBox="0 0 285.85 54.91"><defs><style>.d{stroke:#000;}.d,.e{stroke-miterlimit:10;stroke-width:.5px;}.e{stroke:#231f20;}</style></defs><g id="a"/><g id="b"><g id="c"><g><g><path class="e" d="M42.48,16.19l-4.11-.24c-.7-.02-1.37,.23-1.88,.72l-.8,.76c-.14,.13-.35,.26-1.22,.24l-.77-.02h0l-6.46-.1c-.44-.01-.85-.2-1.15-.52l-.64-.67c-.48-.51-1.13-.8-1.83-.82l-3.71-.11c-.7-.02-1.37,.23-1.88,.71l-.8,.76c-.14,.13-.36,.27-1.22,.24l-2.47-.07v-.54c0-1.85,.72-3.58,2.02-4.89,1.31-1.31,3.04-2.02,4.89-2.02h13.95c1.99,0,3.86,.78,5.27,2.18l3.14,3.14h0c-.09,.42-.19,.84-.33,1.26ZM20.63,1.23h10.89c4.22,0,7.97,2.2,10.02,5.88,1.16,2.08,1.64,4.37,1.44,6.62l-2.62-2.62c-1.59-1.59-3.71-2.47-5.96-2.47h-13.95c-2.11,0-4.09,.82-5.58,2.31-.07,.07-.13,.14-.2,.21-1.21-.71-2.58-1.08-3.98-1.08-1.24,0-2.48,.3-3.58,.86C8.95,5.31,14.32,1.23,20.63,1.23ZM6.42,15.23c0-1.01,.11-1.99,.32-2.94,1.15-.8,2.55-1.24,3.95-1.24,1.18,0,2.33,.3,3.35,.87-.96,1.33-1.49,2.93-1.49,4.61v2.81c0,.09,0,.17-.02,.26h0l-.02,.12c-.17,.75-.84,1.31-1.64,1.31-1.62,0-3.14,.63-4.28,1.77l-.17,.17v-7.72Zm0,9.1l.86-.86c.96-.96,2.24-1.49,3.59-1.49,.49,0,.96-.14,1.35-.38l-.29,1.92c-.24,1.7-.15,3.23,.25,4.56,.5,1.65,1.41,3.16,2.63,4.38,1.8,1.8,2.8,4.2,2.8,6.76l.06,2.03,.04,1.53v.04c-1.35-1.26-2.84-2.64-4.16-3.88-1.09-1.02-2.08-1.93-2.79-2.59-.41-.38-.69-.64-.88-.81,.1-.64,.17-1.32,.21-2.03,.27-5.01-1.16-8.88-3.33-8.99-.11,0-.22,0-.33,.01v-.21Zm.28,1.17c.6,.03,1.2,.71,1.65,1.87h-3.59c.59-1.22,1.3-1.91,1.94-1.87Zm1.97,2.85c.36,1.35,.55,3.11,.44,5.12-.12,2.27-.59,4.17-1.19,5.52h-3.36c.81-1.2,1.23-3.32,1.23-5.35s-.41-4.08-1.2-5.29h4.07Zm-5.55,10.64h-.21c-.74-.17-1.69-2.18-1.69-5.35s.89-5.04,1.62-5.33v.04h.43c.71,.39,1.54,2.33,1.54,5.29,0,3.17-.95,5.17-1.69,5.35Zm2.73,2.14c-.46-.02-.93-.44-1.32-1.16h2.87c-.5,.77-1.05,1.19-1.55,1.16Zm30.86,6.73c.38,1.27,.65,2.24,.66,2.53-.26,.66-1.71,3.02-2.2,3.27-.1,0-.3,0-.59,0-10.94,.12-14.57-.37-15.69-.79-1.55-.59-5.89-4.63-11.91-11.09,1.17-.72,2.15-2.58,2.69-5.09,1.42,1.31,4.87,4.52,9.77,9.09,1.34,1.25,3.23,1.8,5.03,1.45l3.17-.6c1.82-.35,3.73-.27,5.51,.23,2.1,.59,3.09,.87,3.55,1.01Zm-16.4-2.61s.07,0,.11,0c.17,0,.35-.02,.52-.05,.57-.11,1.03-.78,1.53-1.58,.08-.12,.17-.27,.19-.3l.96-1.17c.54-.53,1.25-.82,2.01-.82h5.83c.76,0,1.48,.3,2.02,.84l1.03,1.03c.1,.1,.22,.19,.35,.29,.17,.11,.34,.21,.53,.29,.34,1,.68,2.03,.97,2.97-.67-.19-1.65-.47-2.94-.83-1.93-.54-3.99-.62-5.96-.25l-3.17,.6c-1.41,.27-2.88-.11-3.98-1.02Zm23.25-12.93c-.47,1.07-1.11,2.16-1.91,2.96-1.82,1.82-3.11,2.14-3.11,5.06,0,0,0,.84-.03,1.33-.04,.65-.55,.99-.85,1.14-.72,.35-1.64,.29-2.25-.13-.09-.06-.16-.12-.22-.18l-1.03-1.03c-.73-.72-1.69-1.12-2.71-1.12h-5.83c-1.02,0-1.99,.4-2.71,1.12l-.96,1.18c-.08,.09-.16,.21-.31,.45-.16,.26-.66,1.06-.89,1.14-.49,.1-.97-.01-1.38-.31-.39-.29-.64-.71-.7-1.19l-.1-3.53c0-2.81-1.09-5.45-3.08-7.44-1.1-1.1-1.93-2.48-2.38-3.97-.36-1.19-.43-2.58-.22-4.13l.56-3.79c.04-.18,.06-.37,.06-.56v-1.29l2.44,.07c.97,.03,1.5-.11,1.92-.51l.8-.76c.32-.3,.74-.46,1.18-.45l3.71,.11c.44,.01,.85,.2,1.15,.52l.64,.67c.48,.51,1.13,.8,1.84,.82l6.27,.09h0l.95,.03c.08,0,.15,0,.22,0,.83,0,1.31-.15,1.69-.51l.8-.76c.32-.3,.74-.46,1.16-.45l3.8,.22c-.23,.54-.5,1.07-.82,1.58-.27,.44-.33,1.53-.33,2.05v1.53l.98,.15v-1.69c0-.33,0-1.25,.18-1.53,2.4-3.9,2.5-8.61,.26-12.61C40.17,2.64,36.1,.25,31.52,.25h-10.89C12.26,.25,5.44,6.97,5.44,15.23v9.7c-.65,.45-1.25,1.28-1.75,2.44h-.22c-.14-.05-.29-.07-.45-.07-1.8,0-2.77,3.27-2.77,6.34s.97,6.34,2.77,6.34c.07,0,.13,0,.19-.01h.23c.76,1.69,1.69,2.1,2.36,2.14,.03,0,.07,0,.1,0,.02,0,.03,0,.05,0,.05,.05,.13,.14,.24,.26,4.42,4.75,10.15,10.58,12.35,11.42,1.53,.58,5.85,.87,12.87,.87,1,0,2.07,0,3.18-.02,.28,0,.47,0,.57,0,.02,0,.04,0,.05,0,1.2,0,3.09-3.94,3.1-3.98,.06-.17,.21-.63-1.81-6.65,.54,.02,1.09-.08,1.59-.32,.84-.4,1.35-1.12,1.4-1.95,.03-.52,.03-1.36,.03-1.39,0-2.36,.83-2.38,2.83-4.37,1.22-1.22,2.13-2.96,2.63-4.61,.03-.09,.08-.28,.09-.41l-.74,.68-.75,.69Z"/><path class="e" d="M41.54,22.07c-2.97,0-5.38,2.41-5.38,5.38s2.41,5.38,5.38,5.38,5.38-2.41,5.38-5.38-2.41-5.38-5.38-5.38Zm0,9.85c-2.46,0-4.47-2-4.47-4.47s2-4.47,4.47-4.47,4.47,2,4.47,4.47-2,4.47-4.47,4.47Z"/><path class="e" d="M23.22,22.07c-2.97,0-5.38,2.41-5.38,5.38s2.41,5.38,5.38,5.38,5.38-2.41,5.38-5.38-2.41-5.38-5.38-5.38Zm0,9.85c-2.46,0-4.47-2-4.47-4.47s2-4.47,4.47-4.47,4.47,2,4.47,4.47-2,4.47-4.47,4.47Z"/></g><polygon class="d" points="66.46 15.03 66.34 14 66.77 14 74.54 35.03 76.91 35.03 84.66 14 85.12 14 84.97 15.03 84.97 35.03 86.03 35.03 86.03 13.61 83.69 13.61 75.94 34.63 75.52 34.63 67.74 13.61 65.4 13.61 65.4 35.03 66.46 35.03 66.46 15.03"/><path class="d" d="M122.91,30.96h.39l-.09,1.09v2.98h1.06V12.7h-1.06v10.36l.09,1.12h-.39c-.45-1.32-1.26-2.38-2.43-3.19-1.18-.81-2.55-1.22-4.13-1.22-1.32,0-2.52,.32-3.6,.96-1.08,.64-1.94,1.54-2.57,2.72-.63,1.18-.94,2.54-.94,4.1s.31,2.93,.94,4.1c.63,1.18,1.48,2.08,2.57,2.72,1.08,.64,2.28,.96,3.6,.96,1.58,0,2.96-.4,4.13-1.22,1.17-.81,1.99-1.86,2.43-3.16Zm-6.41,3.52c-1.11,0-2.14-.25-3.08-.76-.94-.51-1.7-1.28-2.26-2.32-.57-1.04-.85-2.32-.85-3.84s.28-2.77,.85-3.81c.57-1.04,1.32-1.82,2.26-2.34,.94-.52,1.97-.77,3.08-.77s2.18,.27,3.19,.81c1.01,.54,1.84,1.33,2.48,2.37,.64,1.04,.96,2.29,.96,3.75s-.32,2.71-.96,3.75c-.64,1.04-1.46,1.83-2.48,2.37-1.01,.54-2.08,.81-3.19,.81Z"/><path class="d" d="M136.72,35.33c2.09,0,3.64-.52,4.66-1.57,1.02-1.04,1.79-2.35,2.3-3.93h-1.16c-.38,1.44-1.06,2.57-2.05,3.4-.99,.83-2.24,1.25-3.74,1.25-2.2,0-3.84-.62-4.93-1.87-1.09-1.25-1.65-2.88-1.7-4.91h13.51v-.64c0-2.29-.68-4.08-2.03-5.36-1.35-1.29-3.15-1.93-5.39-1.93s-3.96,.66-5.28,1.97c-1.32,1.32-1.98,3.17-1.98,5.56s.64,4.22,1.93,5.74c1.29,1.52,3.24,2.28,5.86,2.28Zm-5.79-11.8c.53-.94,1.25-1.66,2.16-2.16,.91-.5,1.94-.74,3.09-.74,1.89,0,3.4,.55,4.54,1.66,1.14,1.1,1.71,2.63,1.71,4.57h-12.35c.02-1.28,.3-2.38,.83-3.33Z"/><path class="d" d="M149.07,20.93h8.08v-.85h-7.99c-.41,0-.7,.09-.88,.27-.18,.18-.27,.48-.27,.88v13.79h1.06v-14.1Z"/><path class="d" d="M171.49,21.22c-.87-.96-2.1-1.44-3.68-1.44s-2.92,.4-3.97,1.2c-1.04,.8-1.74,1.9-2.08,3.3h-.43l.12-1.12v-3.07h-1.06v14.95h1.06v-6.99c0-1.32,.24-2.54,.73-3.68,.49-1.13,1.19-2.04,2.11-2.72,.92-.68,1.99-1.02,3.21-1.02,1.42,0,2.48,.37,3.18,1.12,.7,.75,1.05,1.93,1.05,3.56v9.72h1.06v-9.69c0-1.78-.44-3.15-1.31-4.12Z"/><path class="d" d="M106.26,27.54c0-4.36-3.54-7.9-7.9-7.9s-7.9,3.54-7.9,7.9,3.54,7.9,7.9,7.9,7.9-3.54,7.9-7.9Zm-7.9,6.91c-3.82,0-6.92-3.1-6.92-6.91s3.11-6.92,6.92-6.92,6.92,3.1,6.92,6.92-3.11,6.91-6.92,6.91Z"/><path class="d" d="M196.73,15.64c-1.46-1.19-3.58-1.79-6.35-1.79h-5.5v21.42h1.06v-7.38h4.44c2.75,0,4.87-.6,6.34-1.81,1.47-1.2,2.2-2.95,2.2-5.24s-.73-4-2.19-5.2Zm-.81,9.8c-1.29,1.06-3.14,1.6-5.55,1.6h-4.44V14.7h4.44c2.41,0,4.26,.53,5.55,1.58,1.29,1.05,1.93,2.57,1.93,4.56s-.64,3.54-1.93,4.6Z"/><path class="d" d="M213.7,33.48c-.99,.83-2.24,1.25-3.74,1.25-2.2,0-3.84-.62-4.93-1.87-1.09-1.25-1.65-2.88-1.7-4.91h13.51v-.64c0-2.29-.68-4.08-2.03-5.36-1.35-1.29-3.15-1.93-5.39-1.93s-3.96,.66-5.28,1.97c-1.32,1.32-1.98,3.17-1.98,5.56s.64,4.22,1.93,5.74c1.29,1.52,3.24,2.28,5.86,2.28,2.09,0,3.64-.52,4.66-1.56,1.02-1.04,1.79-2.36,2.3-3.93h-1.16c-.38,1.44-1.06,2.57-2.05,3.4Zm-9.54-9.71c.53-.94,1.25-1.66,2.16-2.16,.91-.5,1.94-.74,3.1-.74,1.89,0,3.4,.55,4.54,1.66,1.14,1.1,1.71,2.63,1.71,4.57h-12.35c.02-1.28,.3-2.38,.83-3.33Z"/><path class="d" d="M253.13,20.98c-1.08-.64-2.28-.96-3.6-.96-1.58,0-2.96,.41-4.13,1.22-1.18,.81-1.99,1.86-2.43,3.16h-.39l.09-1.09v-2.98h-1.06v20.2h1.06v-8.23l-.09-1.12h.39c.45,1.32,1.26,2.38,2.43,3.19,1.17,.81,2.55,1.22,4.13,1.22,1.32,0,2.52-.32,3.6-.96,1.08-.64,1.94-1.54,2.57-2.72,.63-1.17,.94-2.54,.94-4.1s-.31-2.93-.94-4.1c-.63-1.17-1.48-2.08-2.57-2.72Zm1.59,10.63c-.57,1.04-1.32,1.82-2.26,2.34-.94,.52-1.97,.77-3.08,.77s-2.18-.27-3.19-.81c-1.01-.54-1.84-1.33-2.48-2.37-.64-1.04-.96-2.29-.96-3.75s.32-2.71,.96-3.75c.64-1.04,1.46-1.83,2.48-2.37,1.01-.54,2.08-.81,3.19-.81s2.14,.25,3.08,.76c.94,.51,1.7,1.28,2.26,2.32,.57,1.04,.85,2.32,.85,3.84s-.28,2.77-.85,3.81Z"/><path class="d" d="M264.14,13.79c0-.26-.08-.47-.24-.62-.16-.15-.38-.23-.67-.23h-2.95v.85h2.8v20.63h-4.22v.85h9.48v-.85h-4.19V13.79Z"/><path class="d" d="M282.29,33.48c-.99,.83-2.24,1.25-3.74,1.25-2.2,0-3.84-.62-4.93-1.87-1.09-1.25-1.65-2.88-1.7-4.91h13.51v-.64c0-2.29-.68-4.08-2.03-5.36-1.35-1.29-3.15-1.93-5.39-1.93s-3.96,.66-5.28,1.97c-1.32,1.32-1.98,3.17-1.98,5.56s.64,4.22,1.93,5.74c1.29,1.52,3.24,2.28,5.86,2.28,2.09,0,3.64-.52,4.66-1.56,1.02-1.04,1.79-2.36,2.3-3.93h-1.16c-.38,1.44-1.06,2.57-2.05,3.4Zm-9.54-9.71c.53-.94,1.25-1.66,2.16-2.16,.91-.5,1.94-.74,3.09-.74,1.89,0,3.4,.55,4.54,1.66,1.14,1.1,1.71,2.63,1.71,4.57h-12.35c.02-1.28,.3-2.38,.83-3.33Z"/><path class="d" d="M236.81,27.68c0-4.36-3.54-7.9-7.9-7.9s-7.9,3.54-7.9,7.9,3.54,7.9,7.9,7.9,7.9-3.54,7.9-7.9Zm-7.9,6.91c-3.82,0-6.92-3.1-6.92-6.91s3.11-6.92,6.92-6.92,6.92,3.1,6.92,6.92-3.11,6.91-6.92,6.91Z"/></g></g></g></svg>