<?xml version="1.0" encoding="utf-8"?>
<!-- Generator: Adobe Illustrator 26.0.1, SVG Export Plug-In . SVG Version: 6.00 Build 0)  -->
<svg version="1.1" id="Layer_1" xmlns="http://www.w3.org/2000/svg" xmlns:xlink="http://www.w3.org/1999/xlink" x="0px" y="0px"
	 viewBox="0 0 285.9 54.9" style="enable-background:new 0 0 285.9 54.9;" xml:space="preserve">
<style type="text/css">
	.st0{fill:#F84A1E;}
</style>
<g id="a">
</g>
<g>
	<path class="st0" d="M42.2,21.9v-1.1c0-1,0.1-1.3,0.1-1.4c2.4-4,2.5-8.8,0.3-12.9C40.3,2.4,36.2,0,31.5,0H20.6
		C12.1,0,5.2,6.8,5.2,15.2v9.6c-0.6,0.5-1.2,1.3-1.7,2.3h0C3.4,27.1,3.2,27,3,27c-2,0-3,3.3-3,6.6c0,3.3,1,6.6,3,6.6
		c0.1,0,0.2,0,0.2,0h0.1c0.8,1.7,1.8,2.1,2.5,2.1h0c0,0,0.1,0.1,0.1,0.1L6,42.5c4.4,4.8,10.2,10.6,12.4,11.5c1.6,0.6,5.9,0.9,13,0.9
		c1,0,2.1,0,3.2,0h0.6c1.4,0,3.3-4.1,3.3-4.1c0.1-0.2,0.2-0.7-1.7-6.5c0.5,0,0.9-0.1,1.4-0.3c0.9-0.4,1.5-1.2,1.5-2.2
		c0-0.5,0-1.4,0-1.4c0-1.7,0.4-2.1,1.5-3.1c0.4-0.3,0.8-0.7,1.2-1.1c1.1-1.1,2-2.6,2.6-4.4c1.3-1.1,2.1-2.7,2.1-4.3
		C47.2,24.6,45,22.2,42.2,21.9z M8.5,25.2c-0.5-0.5-1-0.8-1.7-0.9l0.6-0.6c0.9-0.9,2.1-1.4,3.4-1.4c0.4,0,0.7-0.1,1-0.2l-0.2,1.4
		c-0.2,1.7-0.2,3.3,0.3,4.7c0.5,1.7,1.4,3.2,2.7,4.5c1.8,1.8,2.7,4.1,2.7,6.6l0.1,3l-1.2-1.1c-0.9-0.8-1.7-1.6-2.5-2.4
		c-0.7-0.7-1.4-1.3-2-1.9l-0.8-0.7c-0.3-0.3-0.6-0.6-0.8-0.7c0.1-0.6,0.2-1.2,0.2-1.9C10.5,29.9,9.8,26.7,8.5,25.2z M36.3,16.5
		l-0.8,0.8c-0.1,0.1-0.2,0.2-1,0.2l-7.2-0.1c-0.4,0-0.7-0.2-1-0.4l-0.6-0.7c-0.5-0.6-1.2-0.9-2-0.9l-3.7-0.1c0,0-0.1,0-0.1,0
		c-0.7,0-1.4,0.3-2,0.8l-0.8,0.8c-0.1,0.1-0.2,0.2-1,0.2l-2.2-0.1v-0.3c0-1.8,0.7-3.4,1.9-4.7c1.3-1.3,2.9-1.9,4.7-1.9h13.9
		c1.9,0,3.7,0.7,5.1,2.1l3,3c-0.1,0.3-0.1,0.6-0.2,0.9l-3.9-0.2C37.6,15.7,36.9,16,36.3,16.5z M33.5,45.7c-1.2-0.3-2.4-0.5-3.6-0.5
		c-0.8,0-1.7,0.1-2.5,0.2L24.2,46c-1.1,0.2-2.3,0-3.2-0.6c0.7-0.1,1.1-0.8,1.7-1.7c0.1-0.1,0.1-0.2,0.1-0.2l1-1.2
		c0.5-0.5,1.1-0.7,1.8-0.7h5.8c0.7,0,1.3,0.3,1.8,0.8l1,1c0.1,0.1,0.2,0.2,0.3,0.3l0.1,0c0.1,0.1,0.3,0.2,0.5,0.3
		c0.3,0.9,0.6,1.7,0.8,2.4C35.3,46.2,34.5,46,33.5,45.7z M40.5,10.9c-1.6-1.6-3.8-2.5-6.1-2.5H20.5c-2.2,0-4.2,0.8-5.8,2.4
		c0,0,0,0-0.1,0.1c-2.1-1.2-4.8-1.3-7.1-0.4c2-5.4,7.2-9,13.1-9h10.9c4.1,0,7.8,2.1,9.8,5.8c1,1.8,1.5,3.9,1.4,5.9L40.5,10.9z
		 M13.7,12c-0.9,1.3-1.4,2.9-1.4,4.5v2.8c0,0.1,0,0.1,0,0.2l0,0.1c-0.1,0.6-0.7,1.1-1.4,1.1c-1.6,0-3,0.6-4.2,1.6v-7.1
		c0-0.9,0.1-1.9,0.3-2.8C8.9,11.1,11.6,11,13.7,12z M9.8,37.2c1.6,1.5,4.9,4.5,9.5,8.8c1.4,1.3,3.4,1.9,5.2,1.5l3.2-0.6
		c1.8-0.3,3.6-0.3,5.4,0.2c1.9,0.5,2.9,0.8,3.4,1c0.2,0.6,0.6,1.9,0.6,2.3c-0.3,0.7-1.6,2.7-2,3.1h-0.5C23.1,53.5,19.9,53,19,52.6
		c-1.5-0.6-5.8-4.6-11.6-10.8C8.4,41,9.3,39.4,9.8,37.2z M35.5,42.5c-0.1,0-0.1-0.1-0.2-0.1l-1-1c-0.8-0.8-1.8-1.2-2.9-1.2h-5.8
		c-1.1,0-2.1,0.4-2.9,1.2l-1,1.2c-0.1,0.1-0.2,0.2-0.3,0.5c-0.6,0.9-0.8,1-0.7,1c-0.4,0.1-0.8,0-1.2-0.3c-0.3-0.3-0.5-0.6-0.6-1
		l-0.1-3.5c0-2.9-1.1-5.6-3.2-7.6c-1.1-1.1-1.9-2.4-2.3-3.9c-0.3-1.1-0.4-2.5-0.2-4l0.6-3.8c0-0.2,0.1-0.4,0.1-0.6v-1l2.2,0.1
		c1,0,1.6-0.1,2.1-0.6l0.8-0.8c0.3-0.3,0.6-0.4,1-0.4l3.7,0.1c0.4,0,0.7,0.2,1,0.4l0.6,0.7c0.5,0.6,1.2,0.9,2,0.9l6.3,0.1l1.2,0
		c0.9,0,1.4-0.2,1.9-0.6l0.8-0.8c0.3-0.3,0.7-0.4,1-0.4l3.4,0.2c-0.2,0.4-0.4,0.8-0.7,1.2c-0.3,0.6-0.4,1.9-0.4,2.2v1.2
		c-2.7,0.4-4.8,2.8-4.8,5.5c0,3.1,2.5,5.6,5.6,5.6c0.5,0,1-0.1,1.5-0.2c-0.5,0.9-1,1.7-1.5,2.2c-0.4,0.4-0.8,0.7-1.1,1
		c-1.2,1.1-2.1,1.8-2.1,4.2c0,0,0,0.8,0,1.3c0,0.5-0.4,0.8-0.7,0.9C36.9,42.9,36.1,42.8,35.5,42.5z M37.3,27.5
		c0-2.3,1.9-4.2,4.2-4.2c2.3,0,4.2,1.9,4.2,4.2s-1.9,4.2-4.2,4.2C39.2,31.7,37.3,29.8,37.3,27.5z M5.2,27.1c0.5-0.9,1-1.4,1.5-1.4h0
		c0.4,0,0.9,0.5,1.3,1.4H5.2z M6,33.6c0-2-0.4-3.8-1-5h3.5c0.3,1,0.5,2.6,0.4,4.9c-0.1,2-0.5,3.8-1.1,5.3H5C5.6,37.5,6,35.6,6,33.6z
		 M6.9,40.2c-0.4,0.4-0.7,0.7-1,0.7h0c-0.3,0-0.6-0.2-0.9-0.7H6.9z M4.6,33.6c0,3.1-0.9,4.9-1.5,5.1l-0.1,0
		c-0.5-0.1-1.5-1.9-1.5-5.1c0-2.9,0.8-4.6,1.4-5h0.4C3.8,29,4.6,30.8,4.6,33.6z"/>
	<path class="st0" d="M23.2,21.8c-3.1,0-5.6,2.5-5.6,5.6s2.5,5.6,5.6,5.6s5.6-2.5,5.6-5.6S26.3,21.8,23.2,21.8z M27.4,27.5
		c0,2.3-1.9,4.2-4.2,4.2c-2.3,0-4.2-1.9-4.2-4.2s1.9-4.2,4.2-4.2C25.5,23.2,27.4,25.1,27.4,27.5z"/>
	<polygon class="st0" points="75.8,34.4 75.7,34.4 67.9,13.4 65.1,13.4 65.1,35.3 66.7,35.3 66.7,15 66.6,14.3 74.4,35.3 77.1,35.3 
		84.8,14.3 84.7,15 84.7,35.3 86.3,35.3 86.3,13.4 83.5,13.4 	"/>
	<path class="st0" d="M123,23.1l0.1,0.7c-0.5-1.2-1.3-2.2-2.4-3c-1.2-0.8-2.7-1.3-4.3-1.3c-1.4,0-2.6,0.3-3.7,1
		c-1.1,0.7-2,1.6-2.7,2.8c-0.7,1.2-1,2.6-1,4.2c0,1.6,0.3,3,1,4.2c0.7,1.2,1.5,2.2,2.7,2.8c1.1,0.7,2.4,1,3.7,1
		c1.6,0,3.1-0.4,4.3-1.3c1.1-0.8,1.9-1.8,2.4-2.9L123,32v3.2h1.6V12.5H123V23.1z M119.6,33.5c-0.9,0.5-1.8,0.7-2.8,0.8l-0.2,0
		c-1.1,0-2.1-0.2-3-0.7c-0.9-0.5-1.6-1.2-2.2-2.2c-0.5-1-0.8-2.2-0.8-3.7c0-1.5,0.3-2.7,0.8-3.7c0.5-1,1.3-1.7,2.2-2.2
		c0.9-0.5,1.9-0.7,3-0.7c1.1,0,2.1,0.3,3.1,0.8c1,0.5,1.8,1.3,2.4,2.3c0.6,1,0.9,2.2,0.9,3.6c0,1.4-0.3,2.6-0.9,3.6
		C121.3,32.2,120.6,33,119.6,33.5z"/>
	<path class="st0" d="M142.3,29.8c-0.4,1.4-1,2.5-2,3.3c-0.9,0.8-2.1,1.2-3.6,1.2c-2.1,0-3.7-0.6-4.7-1.8c-1-1.2-1.5-2.6-1.6-4.5
		h13.5v-0.9c0-2.4-0.7-4.2-2.1-5.5c-1.4-1.3-3.3-2-5.6-2c-2.3,0-4.1,0.7-5.5,2c-1.4,1.4-2.1,3.3-2.1,5.7c0,2.4,0.6,4.3,2,5.9
		c1.3,1.5,3.2,2.3,5.8,2.4l0.2,0c2.1,0,3.8-0.6,4.8-1.6c1-1.1,1.8-2.4,2.4-4l0.1-0.3h-1.7L142.3,29.8z M133.2,21.6
		c0.9-0.5,1.9-0.7,3-0.7c1.8,0,3.3,0.5,4.4,1.6c1,1,1.6,2.4,1.6,4.1h-11.8c0-1.1,0.3-2,0.7-2.8l0.1-0.1
		C131.7,22.8,132.3,22.1,133.2,21.6z"/>
	<path class="st0" d="M148.1,20.2c-0.2,0.2-0.3,0.6-0.3,1.1v14h1.6V21.2h8.1v-1.4h-8.2C148.7,19.8,148.3,19.9,148.1,20.2z"/>
	<path class="st0" d="M172.1,21.5l-0.4-0.4c-0.9-1-2.2-1.5-3.9-1.5c-1.6,0-3,0.4-4.1,1.3c-1,0.8-1.7,1.8-2.1,3l0.1-0.6v-3.3h-1.6
		v15.5h1.6V28c0-1.3,0.2-2.5,0.7-3.6c0.5-1.1,1.2-2,2-2.6c0.9-0.6,1.9-1,3.1-1c1.3,0,2.4,0.4,3,1c0.7,0.7,1,1.8,1,3.4v10h1.6v-9.9
		C173,23.7,172.7,22.5,172.1,21.5L172.1,21.5z"/>
	<path class="st0" d="M98.4,19.4c-4.5,0-8.1,3.7-8.1,8.1c0,4.5,3.7,8.2,8.1,8.2s8.1-3.7,8.1-8.2C106.5,23,102.9,19.4,98.4,19.4z
		 M105,27.5c0,3.7-3,6.7-6.7,6.7c-3.7,0-6.7-3-6.7-6.7c0-3.7,3-6.7,6.7-6.7C102,20.9,105,23.9,105,27.5z"/>
	<path class="st0" d="M196.9,15.4L196.9,15.4c-1.5-1.2-3.7-1.8-6.5-1.8h-5.8v21.9h1.6v-7.4h4.2c2.8,0,5-0.6,6.5-1.9
		c1.5-1.2,2.3-3.1,2.3-5.4C199.2,18.5,198.4,16.7,196.9,15.4z M186.2,15h4.2c2.3,0,4.1,0.5,5.4,1.5c1.2,1,1.8,2.4,1.8,4.4
		c0,1.9-0.6,3.4-1.8,4.4c-1.2,1-3.1,1.5-5.4,1.5h-4.2V15z"/>
	<path class="st0" d="M215.5,30c-0.4,1.4-1,2.5-2,3.3c-0.9,0.8-2.1,1.2-3.6,1.2c-2.1,0-3.7-0.6-4.7-1.8c-1-1.2-1.5-2.6-1.6-4.5h13.5
		v-0.9c0-2.4-0.7-4.2-2.1-5.5c-1.4-1.3-3.3-2-5.6-2c-2.3,0-4.1,0.7-5.5,2c-1.4,1.4-2.1,3.3-2.1,5.7c0,2.4,0.6,4.3,2,5.9
		c1.3,1.6,3.4,2.4,6.1,2.4c2.1,0,3.8-0.5,4.8-1.6c1-1.1,1.8-2.4,2.4-4l0.1-0.3h-1.7L215.5,30z M215.4,26.9h-11.8
		c0-1.1,0.3-2,0.7-2.8l0.1-0.1c0.5-0.9,1.2-1.6,2.1-2.1c0.9-0.5,1.8-0.7,3-0.7c1.8,0,3.3,0.5,4.4,1.6
		C214.8,23.7,215.4,25.1,215.4,26.9z"/>
	<path class="st0" d="M253.4,20.8l-0.1-0.1c-1.1-0.7-2.4-1-3.7-1c-1.6,0-3.1,0.4-4.3,1.3c-1.1,0.8-1.9,1.7-2.4,2.9l0.1-0.6v-3.2
		h-1.6v20.7h1.6l0-8.5l-0.1-0.7c0.5,1.2,1.3,2.2,2.4,3c1.2,0.8,2.6,1.3,4.3,1.3c1.4,0,2.6-0.3,3.7-1c1.1-0.7,2-1.6,2.7-2.8
		c0.6-1.2,1-2.6,1-4.2c0-1.6-0.3-3-1-4.2C255.3,22.4,254.4,21.5,253.4,20.8z M246.3,21.9c1-0.5,2-0.8,3.1-0.8c1.1,0,2.1,0.2,3,0.7
		c0.9,0.5,1.6,1.2,2.2,2.2c0.5,1,0.8,2.2,0.8,3.7c0,1.5-0.3,2.7-0.8,3.7l0,0.1c-0.5,1-1.3,1.7-2.1,2.2c-1.8,1-4.1,1-6,0
		c-1-0.5-1.8-1.3-2.4-2.3c-0.6-1-0.9-2.2-0.9-3.6c0-1.4,0.3-2.6,0.9-3.6C244.5,23.2,245.3,22.4,246.3,21.9z"/>
	<path class="st0" d="M264.4,13.8l0-0.2h0c0-0.2-0.1-0.4-0.3-0.6c-0.2-0.2-0.5-0.3-0.8-0.3H260V14h2.8v20.1h-4.2v1.3h10v-1.3h-4.2
		V13.8z"/>
	<path class="st0" d="M284.1,29.8l0,0.2c-0.4,1.4-1,2.5-2,3.3c-0.9,0.8-2.1,1.2-3.6,1.2c-2.1,0-3.7-0.6-4.7-1.8
		c-1-1.2-1.5-2.6-1.6-4.5h13.5v-0.9c0-2.4-0.7-4.2-2.1-5.5c-1.4-1.3-3.3-2-5.6-2c-2.3,0-4.1,0.7-5.5,2c-1.4,1.4-2.1,3.3-2.1,5.7
		c0,2.4,0.6,4.3,2,5.9c1.3,1.6,3.4,2.4,6.1,2.4c2.1,0,3.8-0.5,4.8-1.6c1-1.1,1.8-2.4,2.4-4l0.1-0.3H284.1z M275,21.8
		c0.9-0.5,1.8-0.7,3-0.7c1.8,0,3.3,0.5,4.4,1.6c1,1,1.6,2.4,1.6,4.1h-11.8c0-1.1,0.3-2,0.7-2.8l0.1-0.1
		C273.5,23,274.2,22.3,275,21.8z"/>
	<path class="st0" d="M228.9,19.5c-4.5,0-8.2,3.7-8.2,8.2c0,4.5,3.7,8.1,8.2,8.1c4.5,0,8.1-3.7,8.1-8.1
		C237.1,23.2,233.4,19.5,228.9,19.5z M235.6,27.7c0,3.7-3,6.7-6.7,6.7s-6.7-3-6.7-6.7c0-3.7,3-6.7,6.7-6.7S235.6,24,235.6,27.7z"/>
</g>
</svg>
