<?xml version="1.0" encoding="utf-8"?>
<!-- Generator: Adobe Illustrator 26.0.1, SVG Export Plug-In . SVG Version: 6.00 Build 0)  -->
<svg version="1.1" id="Layer_1" xmlns="http://www.w3.org/2000/svg" xmlns:xlink="http://www.w3.org/1999/xlink" x="0px" y="0px"
	 viewBox="0 0 955.8 187.6" style="enable-background:new 0 0 955.8 187.6;" xml:space="preserve">
<style type="text/css">
	.st0{fill:#F84A1E;}
</style>
<g id="a">
</g>
<g id="b">
	<g id="c">
		<g>
			<g>
				<path class="st0" d="M145.6,55l-14.2-0.8c-2.4-0.1-4.7,0.8-6.5,2.5l-2.8,2.6c-0.5,0.5-1.2,0.9-4.2,0.8l-2.6-0.1v0L93,59.6
					c-1.5,0-2.9-0.7-4-1.8l-2.2-2.3c-1.7-1.8-3.9-2.8-6.3-2.8l-12.8-0.4c-2.4-0.1-4.7,0.8-6.5,2.5l-2.8,2.6
					c-0.5,0.5-1.2,0.9-4.2,0.8L45.8,58v-1.8c0-6.4,2.5-12.4,7-16.9s10.5-7,16.8-7h48.1c6.9,0,13.3,2.7,18.2,7.5l10.8,10.8l0,0
					C146.4,52.1,146,53.5,145.6,55L145.6,55z M70.3,3.4h37.5c14.5,0,27.5,7.6,34.6,20.3c4,7.2,5.6,15.1,4.9,22.8l-9-9
					c-5.5-5.5-12.8-8.5-20.6-8.5H69.6c-7.3,0-14.1,2.8-19.2,8c-0.2,0.2-0.5,0.5-0.7,0.7c-4.2-2.4-8.9-3.7-13.7-3.7
					c-4.3,0-8.5,1-12.4,3C30,17.4,48.5,3.4,70.3,3.4z M21.3,51.7c0-3.5,0.4-6.9,1.1-10.2c4-2.8,8.8-4.3,13.6-4.3c4.1,0,8,1,11.5,3
					c-3.3,4.6-5.1,10.1-5.1,15.9v9.7c0,0.3,0,0.6-0.1,0.9h0l-0.1,0.4c-0.6,2.6-2.9,4.5-5.7,4.5c-5.6,0-10.8,2.2-14.8,6.1l-0.6,0.6
					L21.3,51.7L21.3,51.7z M21.3,83l3-3c3.3-3.3,7.7-5.1,12.4-5.1c1.7,0,3.3-0.5,4.7-1.3l-1,6.6c-0.8,5.8-0.5,11.1,0.9,15.7
					c1.7,5.7,4.9,10.9,9.1,15.1c6.2,6.2,9.6,14.5,9.6,23.3l0.2,7l0.1,5.3v0.1c-4.7-4.4-9.8-9.1-14.3-13.4c-3.8-3.5-7.2-6.7-9.6-8.9
					c-1.4-1.3-2.4-2.2-3-2.8c0.3-2.2,0.6-4.6,0.7-7c0.9-17.3-4-30.6-11.5-31c-0.4,0-0.8,0-1.1,0.1L21.3,83L21.3,83z M22.2,87.1
					c2.1,0.1,4.1,2.5,5.7,6.4H15.6C17.6,89.3,20,87,22.2,87.1z M29,96.9c1.2,4.7,1.9,10.7,1.5,17.7c-0.4,7.8-2,14.4-4.1,19H14.9
					c2.8-4.1,4.3-11.4,4.3-18.4s-1.4-14.1-4.1-18.2H29L29,96.9z M9.9,133.6H9.2c-2.6-0.6-5.8-7.5-5.8-18.4s3.1-17.4,5.6-18.4v0.1
					h1.5c2.5,1.3,5.3,8,5.3,18.2C15.7,126.1,12.5,133,9.9,133.6z M19.3,140.9c-1.6-0.1-3.2-1.5-4.6-4h9.9
					C22.9,139.6,21,141,19.3,140.9z M125.7,164.1c1.3,4.4,2.2,7.7,2.3,8.7c-0.9,2.3-5.9,10.4-7.6,11.3c-0.3,0-1.1,0-2,0
					c-37.7,0.4-50.2-1.3-54.1-2.7c-5.3-2-20.3-16-41-38.2c4-2.5,7.4-8.9,9.3-17.6c4.9,4.5,16.8,15.6,33.7,31.4
					c4.6,4.3,11.1,6.2,17.3,5l10.9-2.1c6.3-1.2,12.8-0.9,19,0.8C120.7,162.7,124.1,163.7,125.7,164.1L125.7,164.1z M69.2,155.1
					c0.1,0,0.2,0,0.4,0c0.6,0,1.2-0.1,1.8-0.2c1.9-0.4,3.5-2.7,5.3-5.4c0.3-0.4,0.6-0.9,0.7-1l3.3-4c1.9-1.8,4.3-2.8,6.9-2.8h20.1
					c2.6,0,5.1,1,7,2.9l3.5,3.5c0.3,0.3,0.7,0.7,1.2,1c0.6,0.4,1.2,0.7,1.8,1c1.2,3.4,2.3,7,3.4,10.2c-2.3-0.7-5.7-1.6-10.1-2.9
					c-6.7-1.9-13.8-2.1-20.5-0.9l-10.9,2.1C78.1,159.6,73,158.3,69.2,155.1L69.2,155.1z M149.3,110.6c-1.6,3.7-3.8,7.4-6.6,10.2
					c-6.3,6.3-10.7,7.4-10.7,17.5c0,0,0,2.9-0.1,4.6c-0.1,2.2-1.9,3.4-2.9,3.9c-2.5,1.2-5.7,1-7.8-0.4c-0.3-0.2-0.6-0.4-0.8-0.6
					l-3.5-3.5c-2.5-2.5-5.8-3.9-9.4-3.9H87.5c-3.5,0-6.9,1.4-9.4,3.9l-3.3,4.1c-0.3,0.3-0.6,0.7-1.1,1.5c-0.6,0.9-2.3,3.6-3.1,3.9
					c-1.7,0.3-3.4-0.1-4.7-1.1c-1.3-1-2.2-2.4-2.4-4.1l-0.3-12.2c0-9.7-3.8-18.8-10.6-25.7c-3.8-3.8-6.7-8.5-8.2-13.7
					c-1.2-4.1-1.5-8.9-0.8-14.2l1.9-13.1c0.1-0.6,0.2-1.3,0.2-1.9v-4.5l8.4,0.2c3.3,0.1,5.2-0.4,6.6-1.7l2.8-2.6
					c1.1-1,2.6-1.6,4.1-1.5L80.4,56c1.5,0,2.9,0.7,4,1.8l2.2,2.3c1.7,1.8,3.9,2.8,6.3,2.8l21.6,0.3v0l3.3,0.1c0.3,0,0.5,0,0.8,0
					c2.8,0,4.5-0.5,5.8-1.8l2.8-2.6c1.1-1,2.5-1.6,4-1.5l13.1,0.8c-0.8,1.9-1.7,3.7-2.8,5.5c-0.9,1.5-1.1,5.3-1.1,7.1V76l3.4,0.5
					v-5.8c0-1.2,0-4.3,0.6-5.3c8.3-13.4,8.6-29.7,0.9-43.5c-7.7-13.8-21.7-22-37.5-22H70.3C41.4,0,17.9,23.2,17.9,51.7v33.5
					c-2.3,1.6-4.3,4.4-6,8.4h-0.8c-0.5-0.2-1-0.2-1.6-0.2c-6.2,0-9.6,11.3-9.6,21.8S3.4,137,9.6,137c0.2,0,0.4,0,0.7-0.1H11
					c2.6,5.8,5.8,7.2,8.1,7.4c0.1,0,0.2,0,0.4,0c0.1,0,0.1,0,0.2,0c0.2,0.2,0.4,0.5,0.8,0.9c15.2,16.4,35,36.5,42.6,39.4
					c5.3,2,20.2,3,44.4,3c3.5,0,7.1,0,11-0.1c1,0,1.6,0,2,0c0.1,0,0.1,0,0.2,0c4.1,0,10.6-13.6,10.7-13.7c0.2-0.6,0.7-2.2-6.2-22.9
					c1.9,0.1,3.8-0.3,5.5-1.1c2.9-1.4,4.6-3.9,4.8-6.7c0.1-1.8,0.1-4.7,0.1-4.8c0-8.1,2.9-8.2,9.8-15.1c4.2-4.2,7.3-10.2,9.1-15.9
					c0.1-0.3,0.3-1,0.3-1.4l-2.6,2.3L149.3,110.6L149.3,110.6z"/>
				<path class="st0" d="M142.3,75.2c-10.2,0-18.6,8.3-18.6,18.5s8.3,18.6,18.6,18.6s18.6-8.3,18.6-18.6S152.6,75.2,142.3,75.2z
					 M142.3,109.2c-8.5,0-15.4-6.9-15.4-15.4s6.9-15.4,15.4-15.4s15.4,6.9,15.4,15.4S150.8,109.2,142.3,109.2z"/>
				<path class="st0" d="M79.2,75.2c-10.2,0-18.5,8.3-18.5,18.5s8.3,18.6,18.5,18.6s18.6-8.3,18.6-18.6S89.4,75.2,79.2,75.2z
					 M79.2,109.2c-8.5,0-15.4-6.9-15.4-15.4s6.9-15.4,15.4-15.4s15.4,6.9,15.4,15.4S87.7,109.2,79.2,109.2z"/>
			</g>
			<g>
				<polygon class="st0" points="228.2,51 227.8,47.4 229.3,47.4 256.1,119.9 264.3,119.9 291,47.4 292.6,47.4 292,51 292,119.9 
					295.7,119.9 295.7,46 287.6,46 260.9,118.5 259.5,118.5 232.6,46 224.6,46 224.6,119.9 228.2,119.9 				"/>
				<path class="st0" d="M422.9,105.8h1.4l-0.3,3.8v10.3h3.7v-77h-3.7v35.7l0.3,3.9h-1.4c-1.5-4.5-4.3-8.2-8.4-11
					c-4-2.8-8.8-4.2-14.2-4.2c-4.5,0-8.7,1.1-12.4,3.3c-3.7,2.2-6.7,5.3-8.9,9.4c-2.2,4.1-3.2,8.8-3.2,14.1s1.1,10.1,3.2,14.1
					c2.2,4.1,5.1,7.2,8.9,9.4c3.7,2.2,7.9,3.3,12.4,3.3c5.5,0,10.2-1.4,14.2-4.2C418.5,114,421.3,110.3,422.9,105.8z M400.8,118
					c-3.8,0-7.4-0.9-10.6-2.6c-3.2-1.7-5.9-4.4-7.8-8c-2-3.6-2.9-8-2.9-13.2s1-9.6,2.9-13.2c2-3.6,4.6-6.3,7.8-8.1
					c3.2-1.8,6.8-2.7,10.6-2.7s7.5,0.9,11,2.8s6.3,4.6,8.5,8.2s3.3,7.9,3.3,12.9s-1.1,9.3-3.3,12.9c-2.2,3.6-5,6.3-8.5,8.2
					C408.3,117.1,404.6,118,400.8,118L400.8,118z"/>
				<path class="st0" d="M467,120.9c7.2,0,12.5-1.8,16.1-5.4c3.5-3.6,6.2-8.1,7.9-13.6h-4c-1.3,5-3.6,8.9-7.1,11.7
					s-7.7,4.3-12.9,4.3c-7.6,0-13.2-2.2-17-6.4s-5.7-9.9-5.9-16.9h46.6v-2.2c0-7.9-2.3-14.1-7-18.5c-4.7-4.4-10.9-6.7-18.6-6.7
					s-13.6,2.3-18.2,6.8s-6.8,10.9-6.8,19.2s2.2,14.6,6.7,19.8C451.2,118.3,458,121,467,120.9L467,120.9z M447,80.2
					c1.8-3.2,4.3-5.7,7.5-7.4c3.1-1.7,6.7-2.6,10.7-2.6c6.5,0,11.7,1.9,15.7,5.7s5.9,9.1,5.9,15.8h-42.6
					C444.2,87.3,445.2,83.5,447,80.2L447,80.2z"/>
				<path class="st0" d="M506.1,71.3H534v-2.9h-27.5c-1.4,0-2.4,0.3-3,0.9c-0.6,0.6-0.9,1.6-0.9,3v47.5h3.7V71.3z"/>
				<path class="st0" d="M583.4,72.3c-3-3.3-7.2-5-12.7-5s-10.1,1.4-13.7,4.1s-6,6.6-7.2,11.4h-1.5l0.4-3.9V68.3h-3.7v51.5h3.7V95.8
					c0-4.5,0.8-8.8,2.5-12.7c1.7-3.9,4.1-7,7.3-9.4c3.2-2.3,6.9-3.5,11-3.5c4.9,0,8.5,1.3,11,3.9c2.4,2.6,3.6,6.7,3.6,12.3v33.5h3.7
					V86.5C587.9,80.3,586.4,75.6,583.4,72.3L583.4,72.3z"/>
				<path class="st0" d="M365.5,94.1c0-15-12.2-27.2-27.2-27.2S311,79.1,311,94.1s12.2,27.2,27.2,27.2S365.5,109.1,365.5,94.1z
					 M338.2,117.9c-13.2,0-23.9-10.7-23.9-23.8s10.7-23.8,23.9-23.8s23.9,10.7,23.9,23.8S351.4,117.9,338.2,117.9z"/>
			</g>
			<g>
				<path class="st0" d="M670.4,53.1c-5-4.1-12.3-6.2-21.9-6.2h-19v73.9h3.7V95.3h15.3c9.5,0,16.8-2.1,21.8-6.2
					c5.1-4.2,7.6-10.2,7.6-18.1S675.5,57.2,670.4,53.1L670.4,53.1z M667.7,86.8c-4.4,3.7-10.8,5.5-19.1,5.5h-15.3V49.8h15.3
					c8.3,0,14.7,1.8,19.1,5.5c4.4,3.6,6.7,8.9,6.7,15.7S672.1,83.2,667.7,86.8L667.7,86.8z"/>
				<path class="st0" d="M725.5,114.6c-3.4,2.9-7.7,4.3-12.9,4.3c-7.6,0-13.2-2.2-17-6.4s-5.7-9.9-5.8-16.9h46.6v-2.2
					c0-7.9-2.3-14.1-7-18.5c-4.7-4.4-10.9-6.7-18.6-6.7s-13.6,2.3-18.2,6.8s-6.8,10.9-6.8,19.2s2.2,14.6,6.7,19.8
					c4.4,5.2,11.2,7.9,20.2,7.9c7.2,0,12.5-1.8,16.1-5.4c3.5-3.6,6.2-8.1,7.9-13.6h-4C731.2,107.8,728.9,111.7,725.5,114.6
					L725.5,114.6z M692.6,81.1c1.8-3.2,4.3-5.7,7.5-7.4c3.1-1.7,6.7-2.6,10.7-2.6c6.5,0,11.7,1.9,15.7,5.7s5.9,9.1,5.9,15.8h-42.6
					C689.8,88.1,690.8,84.3,692.6,81.1L692.6,81.1z"/>
				<path class="st0" d="M851.1,71.4c-3.7-2.2-7.9-3.3-12.4-3.3c-5.5,0-10.2,1.4-14.2,4.2c-4,2.8-6.8,6.4-8.4,10.9h-1.4l0.3-3.8
					V69.2h-3.7v69.6h3.7v-28.4l-0.3-3.9h1.4c1.5,4.5,4.3,8.2,8.4,11s8.8,4.2,14.2,4.2c4.5,0,8.7-1.1,12.4-3.3
					c3.7-2.2,6.7-5.3,8.8-9.4s3.2-8.8,3.2-14.1s-1.1-10.1-3.2-14.1C857.7,76.8,854.8,73.6,851.1,71.4z M856.6,108.1
					c-2,3.6-4.6,6.3-7.8,8.1c-3.2,1.8-6.8,2.7-10.6,2.7s-7.5-0.9-11-2.8s-6.3-4.6-8.5-8.2c-2.2-3.6-3.3-7.9-3.3-12.9
					s1.1-9.3,3.3-12.9c2.2-3.6,5-6.3,8.5-8.2c3.5-1.8,7.2-2.8,11-2.8s7.4,0.9,10.6,2.6c3.2,1.8,5.8,4.4,7.8,8c2,3.6,2.9,8,2.9,13.2
					S858.5,104.5,856.6,108.1z"/>
				<path class="st0" d="M885.6,46.7c0-0.9-0.3-1.6-0.8-2.2c-0.6-0.5-1.3-0.8-2.3-0.8h-10.2v2.9h9.6v71.1h-14.6v2.9H900v-2.9h-14.5
					L885.6,46.7L885.6,46.7z"/>
				<path class="st0" d="M944.7,114.6c-3.4,2.9-7.7,4.3-12.9,4.3c-7.6,0-13.2-2.2-17-6.4s-5.7-9.9-5.8-16.9h46.6v-2.2
					c0-7.9-2.3-14.1-7-18.5c-4.7-4.4-10.9-6.7-18.6-6.7s-13.6,2.3-18.2,6.8S905,85.9,905,94.1s2.2,14.6,6.7,19.8
					c4.4,5.2,11.2,7.9,20.2,7.9c7.2,0,12.5-1.8,16.1-5.4c3.5-3.6,6.2-8.1,7.9-13.6h-4C950.5,107.8,948.1,111.7,944.7,114.6
					L944.7,114.6z M911.8,81.1c1.8-3.2,4.3-5.7,7.5-7.4c3.1-1.7,6.7-2.6,10.7-2.6c6.5,0,11.7,1.9,15.7,5.7s5.9,9.1,5.9,15.8H909
					C909,88.1,910,84.3,911.8,81.1L911.8,81.1z"/>
				<path class="st0" d="M801.7,94.5c0-15-12.2-27.2-27.2-27.2s-27.2,12.2-27.2,27.2s12.2,27.2,27.2,27.2S801.7,109.5,801.7,94.5z
					 M774.5,118.4c-13.2,0-23.9-10.7-23.9-23.8s10.7-23.8,23.9-23.8s23.9,10.7,23.9,23.8S787.6,118.4,774.5,118.4z"/>
			</g>
		</g>
	</g>
</g>
</svg>
