<?xml version="1.0" encoding="UTF-8"?><svg xmlns="http://www.w3.org/2000/svg" viewBox="0 0 371 556"><defs><style>.d{fill:#f84a1e;}.e{fill:#cdcdcd;}.f,.g{fill:#d0d0d0;}.h{fill:#d6ff45;}.i{fill:#232323;}.j{fill:#262626;}.g{opacity:.9;}</style></defs><g id="a"/><g id="b"><g id="c"><rect class="i" width="371" height="556"/><g><rect class="h" x="135.73" y="135.03" width="151.82" height="29.96"/><g><path class="f" d="M15.97,104.94v10.06h13.41v-10.06h1.04v20.86h-1.04v-9.97H15.97v9.97h-1.04v-20.86h1.04Z"/><path class="f" d="M47.07,129.92c0,.91-.56,1.36-1.69,1.36h-10.24v-.83h10.89v-7.64l.12-1.09h-.41c-.34,1.36-1.01,2.43-2.03,3.21-1.02,.78-2.3,1.17-3.86,1.17s-2.73-.47-3.58-1.41c-.85-.94-1.27-2.27-1.27-4.01v-9.44h1.04v9.47c0,1.58,.34,2.73,1.02,3.46,.68,.73,1.71,1.1,3.09,1.1,1.18,0,2.22-.33,3.12-.99,.9-.66,1.58-1.54,2.06-2.65,.47-1.1,.71-2.3,.71-3.58v-6.81h1.04v18.67Z"/><path class="f" d="M51.57,104.06h1.04v10.09l-.09,1.1h.38c.43-1.28,1.22-2.32,2.37-3.11,1.14-.79,2.49-1.18,4.02-1.18,1.28,0,2.45,.31,3.51,.93,1.06,.62,1.89,1.5,2.5,2.65,.61,1.14,.92,2.48,.92,4s-.31,2.85-.92,4c-.61,1.14-1.45,2.03-2.5,2.65-1.06,.62-2.22,.93-3.51,.93-1.54,0-2.88-.39-4.02-1.18-1.14-.79-1.93-1.82-2.37-3.08h-.38l.09,1.07v2.9h-1.04v-21.75Zm2.06,18.13c.62,1.02,1.43,1.79,2.41,2.31,.99,.52,2.02,.79,3.11,.79s2.09-.25,3-.74c.92-.49,1.65-1.25,2.21-2.26,.55-1.02,.83-2.26,.83-3.74s-.28-2.7-.83-3.71c-.55-1.02-1.29-1.78-2.21-2.28-.92-.5-1.92-.75-3-.75s-2.12,.26-3.11,.78c-.99,.52-1.79,1.29-2.41,2.31-.62,1.02-.93,2.23-.93,3.65s.31,2.64,.93,3.66Z"/><path class="f" d="M70.51,111.51c.18-.18,.46-.27,.86-.27h7.78v.83h-7.87v13.73h-1.04v-13.44c0-.39,.09-.68,.27-.86Z"/><path class="f" d="M80.69,124.98h4.02v-12.9h-2.63v-.83h2.57c.39,0,.68,.07,.84,.22,.17,.15,.25,.39,.25,.72v12.78h4.02v.83h-9.09v-.83Zm3.24-17.9c-.27-.28-.4-.61-.4-1.01s.13-.73,.4-1.01c.27-.28,.61-.41,1.02-.41s.75,.14,1.02,.41c.27,.28,.4,.61,.4,1.01s-.13,.73-.4,1.01c-.27,.28-.61,.41-1.02,.41s-.75-.14-1.02-.41Z"/><path class="f" d="M94.4,125.17c-1.06-.62-1.89-1.5-2.5-2.65-.61-1.14-.92-2.48-.92-4s.31-2.85,.92-4c.61-1.14,1.45-2.03,2.5-2.65,1.06-.62,2.22-.93,3.51-.93,1.54,0,2.88,.4,4.02,1.18,1.14,.79,1.93,1.83,2.37,3.11h.38l-.09-1.1v-10.09h1.04v21.75h-1.04v-2.9l.09-1.07h-.38c-.43,1.26-1.22,2.29-2.37,3.08-1.14,.79-2.49,1.18-4.02,1.18-1.28,0-2.45-.31-3.51-.93Zm-1.55-2.9c.55,1.02,1.29,1.77,2.2,2.26s1.92,.74,3,.74,2.12-.26,3.11-.79c.99-.52,1.79-1.29,2.41-2.31,.62-1.02,.93-2.23,.93-3.66s-.31-2.64-.93-3.65c-.62-1.02-1.43-1.79-2.41-2.31-.99-.52-2.02-.78-3.11-.78s-2.09,.25-3,.75-1.65,1.26-2.2,2.28c-.55,1.02-.83,2.25-.83,3.71s.28,2.73,.83,3.74Z"/><path class="f" d="M123.82,125.17c-1.06-.62-1.89-1.5-2.5-2.65-.61-1.14-.92-2.48-.92-4s.31-2.85,.92-4c.61-1.14,1.45-2.03,2.5-2.65,1.06-.62,2.22-.93,3.51-.93,1.54,0,2.88,.4,4.02,1.18,1.14,.79,1.93,1.83,2.37,3.11h.38l-.09-1.1v-10.09h1.04v21.75h-1.04v-2.9l.09-1.07h-.38c-.43,1.26-1.22,2.29-2.37,3.08-1.14,.79-2.49,1.18-4.02,1.18-1.28,0-2.45-.31-3.51-.93Zm-1.55-2.9c.55,1.02,1.29,1.77,2.2,2.26s1.92,.74,3,.74,2.12-.26,3.11-.79c.99-.52,1.79-1.29,2.41-2.31,.62-1.02,.93-2.23,.93-3.66s-.31-2.64-.93-3.65c-.62-1.02-1.43-1.79-2.41-2.31-.99-.52-2.02-.78-3.11-.78s-2.09,.25-3,.75-1.65,1.26-2.2,2.28c-.55,1.02-.83,2.25-.83,3.71s.28,2.73,.83,3.74Z"/><path class="f" d="M140.84,112.87c1.17-1.28,2.74-1.92,4.69-1.92s3.59,.63,4.79,1.88c1.2,1.25,1.81,2.99,1.81,5.22v.62h-12.01c.04,1.97,.54,3.57,1.51,4.78,.97,1.21,2.43,1.82,4.38,1.82,1.34,0,2.45-.4,3.33-1.21,.88-.81,1.48-1.91,1.82-3.31h1.04c-.45,1.54-1.13,2.82-2.04,3.83-.91,1.02-2.29,1.52-4.14,1.52-2.33,0-4.06-.74-5.21-2.22-1.14-1.48-1.72-3.34-1.72-5.59s.59-4.13,1.76-5.42Zm10.25,4.97c0-1.89-.51-3.38-1.52-4.45-1.02-1.08-2.36-1.61-4.04-1.61-1.03,0-1.94,.24-2.75,.72-.81,.48-1.45,1.18-1.92,2.1s-.72,2-.74,3.24h10.98Z"/><path class="f" d="M156.95,124.58c-1.08-1.02-1.63-2.41-1.63-4.19h1.04c0,1.52,.45,2.71,1.36,3.58,.91,.87,2.15,1.3,3.73,1.3,1.24,0,2.21-.27,2.92-.81,.7-.54,1.05-1.32,1.05-2.32,0-.71-.22-1.29-.65-1.73-.43-.44-1.15-.82-2.16-1.14l-3.4-1.04c-.99-.3-1.77-.72-2.34-1.27-.57-.55-.86-1.29-.86-2.22,0-1.18,.43-2.11,1.29-2.78,.86-.67,2.04-1.01,3.54-1.01,1.62,0,2.89,.42,3.82,1.24,.93,.83,1.39,1.96,1.39,3.4h-1.04c0-1.18-.37-2.12-1.11-2.8s-1.75-1.02-3.03-1.02c-1.18,0-2.12,.27-2.8,.81-.68,.54-1.02,1.3-1.02,2.26,0,1.14,.83,1.97,2.49,2.49l3.4,1.07c1.26,.39,2.17,.89,2.71,1.49,.54,.6,.81,1.36,.81,2.26,0,1.24-.44,2.21-1.33,2.9-.89,.69-2.11,1.04-3.67,1.04-1.91,0-3.41-.51-4.5-1.52Z"/><path class="f" d="M169.14,124.98h4.02v-12.9h-2.63v-.83h2.57c.39,0,.68,.07,.84,.22,.17,.15,.25,.39,.25,.72v12.78h4.02v.83h-9.09v-.83Zm3.24-17.9c-.27-.28-.4-.61-.4-1.01s.13-.73,.4-1.01c.27-.28,.61-.41,1.02-.41s.75,.14,1.02,.41c.27,.28,.4,.61,.4,1.01s-.13,.73-.4,1.01c-.27,.28-.61,.41-1.02,.41s-.75-.14-1.02-.41Z"/><path class="f" d="M182.86,125.17c-1.06-.62-1.89-1.5-2.5-2.65-.61-1.14-.92-2.48-.92-4s.31-2.85,.92-4c.61-1.14,1.45-2.03,2.5-2.65,1.06-.62,2.22-.93,3.51-.93,1.54,0,2.88,.4,4.02,1.18,1.14,.79,1.93,1.83,2.37,3.11h.38l-.09-1.1v-2.9h1.04v18.67c0,.91-.56,1.36-1.69,1.36h-10.24v-.83h10.89v-7.55l.09-1.07h-.38c-.43,1.26-1.22,2.29-2.37,3.08-1.14,.79-2.49,1.18-4.02,1.18-1.28,0-2.45-.31-3.51-.93Zm-1.55-2.9c.55,1.02,1.29,1.77,2.2,2.26s1.92,.74,3,.74,2.12-.26,3.11-.79c.99-.52,1.79-1.29,2.41-2.31,.62-1.02,.93-2.23,.93-3.66s-.31-2.64-.93-3.65c-.62-1.02-1.43-1.79-2.41-2.31-.99-.52-2.02-.78-3.11-.78s-2.09,.25-3,.75-1.65,1.26-2.2,2.28c-.55,1.02-.83,2.25-.83,3.71s.28,2.73,.83,3.74Z"/><path class="f" d="M198.56,111.25h1.04v2.99l-.12,1.09h.41c.33-1.36,1.01-2.43,2.03-3.21,1.02-.78,2.3-1.17,3.86-1.17s2.73,.47,3.58,1.41c.85,.94,1.27,2.27,1.27,4.01v9.44h-1.04v-9.47c0-1.58-.34-2.73-1.02-3.46-.68-.73-1.71-1.09-3.09-1.09-1.18,0-2.22,.33-3.12,.99-.9,.66-1.58,1.54-2.06,2.65-.47,1.11-.71,2.3-.71,3.58v6.81h-1.04v-14.56Z"/><path class="f" d="M226.64,124.58c-1.08-1.02-1.63-2.41-1.63-4.19h1.04c0,1.52,.45,2.71,1.36,3.58,.91,.87,2.15,1.3,3.73,1.3,1.24,0,2.21-.27,2.92-.81,.7-.54,1.05-1.32,1.05-2.32,0-.71-.22-1.29-.65-1.73-.43-.44-1.15-.82-2.16-1.14l-3.4-1.04c-.99-.3-1.77-.72-2.34-1.27-.57-.55-.86-1.29-.86-2.22,0-1.18,.43-2.11,1.29-2.78,.86-.67,2.04-1.01,3.54-1.01,1.62,0,2.89,.42,3.82,1.24,.93,.83,1.39,1.96,1.39,3.4h-1.04c0-1.18-.37-2.12-1.11-2.8s-1.75-1.02-3.03-1.02c-1.18,0-2.12,.27-2.8,.81-.68,.54-1.02,1.3-1.02,2.26,0,1.14,.83,1.97,2.49,2.49l3.4,1.07c1.26,.39,2.17,.89,2.71,1.49,.54,.6,.81,1.36,.81,2.26,0,1.24-.44,2.21-1.33,2.9-.89,.69-2.11,1.04-3.67,1.04-1.91,0-3.41-.51-4.5-1.52Z"/><path class="f" d="M247.33,125.81h-4.88c-.4,0-.68-.09-.86-.27s-.27-.46-.27-.86v-12.61h-3.05v-.83h3.05v-4.38l1.04-.3v4.68h4.38v.83h-4.38v12.9h4.97v.83Z"/><path class="f" d="M251.68,124.7c-.85-.94-1.27-2.27-1.27-4.01v-9.44h1.04v9.47c0,1.58,.34,2.73,1.02,3.46,.68,.73,1.71,1.1,3.09,1.1,1.18,0,2.22-.33,3.12-.99,.9-.66,1.58-1.54,2.06-2.65,.47-1.1,.71-2.3,.71-3.58v-6.81h1.04v14.56h-1.04v-2.99l.12-1.09h-.41c-.34,1.36-1.01,2.43-2.03,3.21-1.02,.78-2.3,1.17-3.86,1.17s-2.73-.47-3.58-1.41Z"/><path class="f" d="M269.92,125.17c-1.06-.62-1.89-1.5-2.5-2.65-.61-1.14-.92-2.48-.92-4s.31-2.85,.92-4c.61-1.14,1.45-2.03,2.5-2.65,1.06-.62,2.22-.93,3.51-.93,1.54,0,2.88,.4,4.02,1.18,1.14,.79,1.93,1.83,2.37,3.11h.38l-.09-1.1v-10.09h1.04v21.75h-1.04v-2.9l.09-1.07h-.38c-.43,1.26-1.22,2.29-2.37,3.08-1.14,.79-2.49,1.18-4.02,1.18-1.28,0-2.45-.31-3.51-.93Zm-1.55-2.9c.55,1.02,1.29,1.77,2.2,2.26s1.92,.74,3,.74,2.12-.26,3.11-.79c.99-.52,1.79-1.29,2.41-2.31,.62-1.02,.93-2.23,.93-3.66s-.31-2.64-.93-3.65c-.62-1.02-1.43-1.79-2.41-2.31-.99-.52-2.02-.78-3.11-.78s-2.09,.25-3,.75-1.65,1.26-2.2,2.28c-.55,1.02-.83,2.25-.83,3.71s.28,2.73,.83,3.74Z"/><path class="f" d="M284.7,124.98h4.02v-12.9h-2.63v-.83h2.57c.39,0,.68,.07,.84,.22,.17,.15,.25,.39,.25,.72v12.78h4.02v.83h-9.09v-.83Zm3.24-17.9c-.27-.28-.4-.61-.4-1.01s.13-.73,.4-1.01c.27-.28,.61-.41,1.02-.41s.75,.14,1.02,.41c.27,.28,.4,.61,.4,1.01s-.13,.73-.4,1.01c-.27,.28-.61,.41-1.02,.41s-.75-.14-1.02-.41Z"/><path class="f" d="M295.65,114.86c.57-1.16,1.42-2.11,2.53-2.83,1.11-.72,2.44-1.08,3.98-1.08s2.84,.36,3.95,1.08c1.11,.72,1.96,1.66,2.54,2.83,.58,1.16,.87,2.39,.87,3.67s-.29,2.51-.87,3.67c-.58,1.16-1.43,2.11-2.54,2.83-1.11,.72-2.43,1.08-3.95,1.08s-2.87-.36-3.98-1.08c-1.11-.72-1.96-1.66-2.53-2.83-.57-1.16-.86-2.39-.86-3.67s.29-2.5,.86-3.67Zm.9,6.92c.48,1.03,1.2,1.86,2.16,2.52,.96,.65,2.11,.98,3.45,.98s2.49-.33,3.45-.98c.96-.65,1.68-1.49,2.16-2.52,.48-1.03,.73-2.11,.73-3.26s-.24-2.2-.73-3.24c-.48-1.04-1.2-1.88-2.16-2.53-.96-.65-2.11-.98-3.45-.98s-2.49,.33-3.45,.98c-.96,.65-1.68,1.49-2.16,2.53-.48,1.04-.73,2.12-.73,3.24s.24,2.23,.73,3.26Z"/><path class="f" d="M14.9,148.54c.53-1.16,1.33-2.1,2.38-2.81,1.06-.71,2.32-1.07,3.8-1.07s2.84,.4,4.07,1.2,1.96,2.23,2.18,4.31h-1.01c-.22-1.7-.8-2.9-1.76-3.61s-2.12-1.07-3.48-1.07c-1.28,0-2.37,.31-3.26,.93-.89,.62-1.56,1.45-2.01,2.47-.45,1.03-.68,2.14-.68,3.34s.22,2.32,.67,3.34c.44,1.03,1.11,1.85,2.01,2.47,.9,.62,1.99,.93,3.27,.93,1.36,0,2.52-.36,3.48-1.07,.96-.71,1.54-1.91,1.76-3.61h1.01c-.22,2.07-.94,3.51-2.18,4.31s-2.59,1.2-4.07,1.2-2.77-.36-3.82-1.07-1.83-1.64-2.37-2.8c-.53-1.15-.8-2.39-.8-3.71s.27-2.53,.8-3.7Z"/><path class="f" d="M31.62,145.22c.18-.18,.46-.27,.86-.27h7.78v.83h-7.87v13.73h-1.04v-13.44c0-.39,.09-.68,.27-.86Z"/><path class="f" d="M43.59,146.58c1.17-1.28,2.74-1.92,4.69-1.92s3.59,.63,4.79,1.88c1.2,1.25,1.81,2.99,1.81,5.22v.62h-12.01c.04,1.97,.54,3.57,1.51,4.78,.97,1.21,2.43,1.82,4.38,1.82,1.34,0,2.45-.4,3.33-1.21,.88-.81,1.48-1.91,1.82-3.31h1.04c-.45,1.54-1.13,2.82-2.04,3.83-.91,1.02-2.29,1.52-4.14,1.52-2.33,0-4.06-.74-5.21-2.22-1.14-1.48-1.72-3.34-1.72-5.59s.59-4.13,1.76-5.42Zm10.25,4.97c0-1.89-.51-3.38-1.52-4.45-1.02-1.08-2.36-1.61-4.04-1.61-1.03,0-1.94,.24-2.75,.72-.81,.48-1.45,1.18-1.92,2.1s-.72,2-.74,3.24h10.98Z"/><path class="f" d="M59.56,152.56c.79-.71,1.9-1.12,3.34-1.21l6.27-.47c0-1.68-.46-2.99-1.39-3.95s-2.11-1.44-3.55-1.44c-1.26,0-2.35,.36-3.25,1.08-.91,.72-1.36,1.86-1.36,3.42h-1.04c0-.87,.21-1.71,.62-2.53,.41-.82,1.04-1.49,1.88-2.01,.84-.52,1.87-.79,3.09-.79,1.34,0,2.46,.3,3.34,.9s1.54,1.39,1.95,2.37c.41,.98,.62,2.06,.62,3.24v7.52h2.16v.83h-1.83c-.41,0-.71-.12-.87-.36-.17-.24-.25-.59-.25-1.07v-1.8l.18-1.39h-.41c-.39,1.44-1.1,2.62-2.12,3.54-1.02,.92-2.35,1.38-4.01,1.38-1.46,0-2.58-.37-3.37-1.11-.79-.74-1.18-1.77-1.18-3.09s.39-2.34,1.18-3.05Zm.78,5.53c.62,.59,1.51,.89,2.68,.89,1.34,0,2.48-.38,3.4-1.14s1.62-1.7,2.07-2.83c.45-1.12,.68-2.23,.68-3.31l-6.19,.47c-1.16,.1-2.05,.43-2.66,1.01-.61,.57-.92,1.38-.92,2.43s.31,1.89,.93,2.49Z"/><path class="f" d="M82.17,159.52h-4.88c-.4,0-.68-.09-.86-.27s-.27-.46-.27-.86v-12.61h-3.05v-.83h3.05v-4.38l1.04-.3v4.68h4.38v.83h-4.38v12.9h4.97v.83Z"/><path class="f" d="M84.86,158.69h4.02v-12.9h-2.63v-.83h2.57c.39,0,.68,.07,.84,.22,.17,.15,.25,.39,.25,.72v12.78h4.02v.83h-9.09v-.83Zm3.24-17.9c-.27-.28-.4-.61-.4-1.01s.13-.73,.4-1.01c.27-.28,.61-.41,1.02-.41s.75,.14,1.02,.41c.27,.28,.4,.61,.4,1.01s-.13,.73-.4,1.01c-.27,.28-.61,.41-1.02,.41s-.75-.14-1.02-.41Z"/><path class="f" d="M97.08,144.96h1.04v2.99l-.12,1.09h.41c.33-1.36,1.01-2.43,2.03-3.21,1.02-.78,2.3-1.17,3.86-1.17s2.73,.47,3.58,1.41c.85,.94,1.27,2.27,1.27,4.01v9.44h-1.04v-9.47c0-1.58-.34-2.73-1.02-3.46-.68-.73-1.71-1.09-3.09-1.09-1.18,0-2.22,.33-3.12,.99-.9,.66-1.58,1.54-2.06,2.65-.47,1.11-.71,2.3-.71,3.58v6.81h-1.04v-14.56Z"/><path class="f" d="M116.33,158.88c-1.06-.62-1.89-1.5-2.5-2.65-.61-1.14-.92-2.48-.92-4s.31-2.85,.92-4c.61-1.14,1.45-2.03,2.5-2.65,1.06-.62,2.22-.93,3.51-.93,1.54,0,2.88,.4,4.02,1.18,1.14,.79,1.93,1.83,2.37,3.11h.38l-.09-1.1v-2.9h1.04v18.67c0,.91-.56,1.36-1.69,1.36h-10.24v-.83h10.89v-7.55l.09-1.07h-.38c-.43,1.26-1.22,2.29-2.37,3.08-1.14,.79-2.49,1.18-4.02,1.18-1.28,0-2.45-.31-3.51-.93Zm-1.55-2.9c.55,1.02,1.29,1.77,2.2,2.26s1.92,.74,3,.74,2.12-.26,3.11-.79c.99-.52,1.79-1.29,2.41-2.31,.62-1.02,.93-2.23,.93-3.66s-.31-2.64-.93-3.65c-.62-1.02-1.43-1.79-2.41-2.31-.99-.52-2.02-.78-3.11-.78s-2.09,.25-3,.75-1.65,1.26-2.2,2.28c-.55,1.02-.83,2.25-.83,3.71s.28,2.73,.83,3.74Z"/><path class="j" d="M151.33,159.52h-5.06c-.55,0-.96-.13-1.23-.4-.27-.27-.4-.68-.4-1.23v-11.63h-3.11v-1.36h3.11v-4.14l1.63-.47v4.62h4.47v1.36h-4.47v11.93l5.06-.03v1.36Z"/><path class="j" d="M154.94,137.76h1.6v9.94l-.24,1.33h.53c.34-1.36,1.01-2.44,2.03-3.24,1.02-.8,2.29-1.2,3.83-1.2s2.84,.49,3.71,1.48c.88,.99,1.32,2.39,1.32,4.2v9.23h-1.6v-9.14c0-1.54-.32-2.66-.96-3.36s-1.63-1.05-2.97-1.05c-1.14,0-2.15,.31-3,.92-.86,.61-1.51,1.45-1.97,2.5-.45,1.06-.68,2.23-.68,3.54v6.6h-1.6v-21.75Z"/><path class="j" d="M173.19,146.54c1.2-1.29,2.82-1.94,4.85-1.94s3.72,.63,4.96,1.88c1.23,1.25,1.85,2.99,1.85,5.22v.77h-11.93c.04,1.79,.51,3.24,1.41,4.33,.9,1.09,2.22,1.64,3.98,1.64,1.34,0,2.43-.36,3.27-1.07s1.42-1.7,1.73-2.96h1.6c-.95,3.59-3.14,5.39-6.57,5.39-1.54,0-2.83-.35-3.88-1.05-1.05-.7-1.82-1.64-2.32-2.83-.5-1.18-.75-2.5-.75-3.96,0-2.33,.6-4.14,1.81-5.43Zm10.09,4.6c-.08-1.64-.59-2.91-1.52-3.82-.94-.91-2.18-1.36-3.71-1.36-1.44,0-2.63,.46-3.58,1.38-.95,.92-1.46,2.19-1.54,3.8h10.36Z"/><path class="j" d="M198.44,144.9h3.4v-2.87c0-1.34,.33-2.39,.99-3.14,.66-.75,1.71-1.12,3.15-1.12h2.54v1.33h-2.49c-.97,0-1.64,.24-2.03,.71-.38,.47-.58,1.22-.58,2.25v2.84h4.26v1.36h-4.26v11.9h4.26v1.36h-9.26v-1.36h3.4v-11.9h-3.4v-1.36Z"/><path class="j" d="M212.42,158.38c-.92-.96-1.38-2.36-1.38-4.22v-9.26h1.63v9.14c0,1.56,.33,2.68,.98,3.37,.65,.69,1.64,1.04,2.96,1.04,1.1,0,2.09-.3,2.94-.89s1.52-1.41,2-2.44,.71-2.19,.71-3.48v-6.75h1.6v14.62h-1.6v-2.81l.24-1.33h-.53c-.32,1.38-.96,2.47-1.94,3.26s-2.24,1.18-3.8,1.18-2.89-.48-3.8-1.44Z"/><path class="j" d="M236.79,159.52h-5.06c-.55,0-.96-.13-1.23-.4-.27-.27-.4-.68-.4-1.23v-11.63h-3.11v-1.36h3.11v-4.14l1.63-.47v4.62h4.47v1.36h-4.47v11.93l5.06-.03v1.36Z"/><path class="j" d="M241.24,158.38c-.92-.96-1.38-2.36-1.38-4.22v-9.26h1.63v9.14c0,1.56,.33,2.68,.98,3.37,.65,.69,1.64,1.04,2.96,1.04,1.1,0,2.09-.3,2.94-.89s1.52-1.41,2-2.44,.71-2.19,.71-3.48v-6.75h1.6v14.62h-1.6v-2.81l.24-1.33h-.53c-.32,1.38-.96,2.47-1.94,3.26s-2.24,1.18-3.8,1.18-2.89-.48-3.8-1.44Z"/><path class="j" d="M257.34,145.28c.27-.26,.68-.38,1.23-.38h7.81v1.36h-7.84v13.26h-1.6v-13.02c0-.55,.13-.96,.4-1.21Z"/><path class="j" d="M269.73,146.54c1.2-1.29,2.82-1.94,4.85-1.94s3.72,.63,4.96,1.88c1.23,1.25,1.85,2.99,1.85,5.22v.77h-11.93c.04,1.79,.51,3.24,1.41,4.33,.9,1.09,2.22,1.64,3.98,1.64,1.34,0,2.43-.36,3.27-1.07s1.42-1.7,1.73-2.96h1.6c-.95,3.59-3.14,5.39-6.57,5.39-1.54,0-2.83-.35-3.88-1.05-1.05-.7-1.82-1.64-2.32-2.83-.5-1.18-.75-2.5-.75-3.96,0-2.33,.6-4.14,1.81-5.43Zm10.09,4.6c-.08-1.64-.59-2.91-1.52-3.82-.94-.91-2.18-1.36-3.71-1.36-1.44,0-2.63,.46-3.58,1.38-.95,.92-1.46,2.19-1.54,3.8h10.36Z"/><path class="f" d="M14.69,178.66l4.17,13.05,.03,1.12h.41l4.11-14.18h1.98l4.11,14.18h.38l.03-1.18,4.14-12.99h.98l-4.65,14.56h-1.75l-4.05-14.15h-.38l-4.05,14.15h-1.81l-4.65-14.56h.98Z"/><path class="f" d="M37.27,192.4h4.02v-12.9h-2.63v-.83h2.57c.39,0,.68,.07,.84,.22,.17,.15,.25,.39,.25,.72v12.78h4.02v.83h-9.09v-.83Zm3.24-17.9c-.27-.28-.4-.61-.4-1.01s.13-.73,.4-1.01c.27-.28,.61-.41,1.02-.41s.75,.14,1.02,.41c.27,.28,.4,.61,.4,1.01s-.13,.73-.4,1.01c-.27,.28-.61,.41-1.02,.41s-.75-.14-1.02-.41Z"/><path class="f" d="M56.01,193.22h-4.88c-.4,0-.68-.09-.86-.27s-.27-.46-.27-.86v-12.61h-3.05v-.83h3.05v-4.38l1.04-.3v4.68h4.38v.83h-4.38v12.9h4.97v.83Z"/><path class="f" d="M59.62,171.47h1.04v10.18l-.12,1.09h.41c.33-1.36,1.01-2.43,2.03-3.21,1.02-.78,2.3-1.17,3.86-1.17s2.73,.47,3.58,1.41c.85,.94,1.27,2.27,1.27,4.01v9.44h-1.04v-9.47c0-1.58-.34-2.73-1.02-3.46-.68-.73-1.71-1.09-3.09-1.09-1.18,0-2.22,.33-3.12,.99-.9,.66-1.58,1.54-2.06,2.65-.47,1.11-.71,2.3-.71,3.58v6.81h-1.04v-21.75Z"/><path class="f" d="M86.96,171.47h1.04v10.09l-.09,1.1h.38c.43-1.28,1.22-2.32,2.37-3.11,1.14-.79,2.49-1.18,4.02-1.18,1.28,0,2.45,.31,3.51,.93,1.06,.62,1.89,1.5,2.5,2.65,.61,1.14,.92,2.48,.92,4s-.31,2.85-.92,4c-.61,1.14-1.45,2.03-2.5,2.65-1.06,.62-2.22,.93-3.51,.93-1.54,0-2.88-.39-4.02-1.18-1.14-.79-1.93-1.82-2.37-3.08h-.38l.09,1.07v2.9h-1.04v-21.75Zm2.06,18.13c.62,1.02,1.43,1.79,2.41,2.31,.99,.52,2.02,.79,3.11,.79s2.09-.25,3-.74c.92-.49,1.65-1.25,2.21-2.26,.55-1.02,.83-2.26,.83-3.74s-.28-2.7-.83-3.71c-.55-1.02-1.29-1.78-2.21-2.28-.92-.5-1.92-.75-3-.75s-2.12,.26-3.11,.78c-.99,.52-1.79,1.29-2.41,2.31-.62,1.02-.93,2.23-.93,3.65s.31,2.64,.93,3.66Z"/><path class="f" d="M105.72,182.28c.57-1.16,1.42-2.11,2.53-2.83,1.11-.72,2.44-1.08,3.98-1.08s2.84,.36,3.95,1.08c1.11,.72,1.96,1.66,2.54,2.83,.58,1.16,.87,2.39,.87,3.67s-.29,2.51-.87,3.67c-.58,1.16-1.43,2.11-2.54,2.83-1.11,.72-2.43,1.08-3.95,1.08s-2.87-.36-3.98-1.08c-1.11-.72-1.96-1.66-2.53-2.83-.57-1.16-.86-2.39-.86-3.67s.29-2.5,.86-3.67Zm.9,6.92c.48,1.03,1.2,1.86,2.16,2.52,.96,.65,2.11,.98,3.45,.98s2.49-.33,3.45-.98c.96-.65,1.68-1.49,2.16-2.52,.48-1.03,.73-2.11,.73-3.26s-.24-2.2-.73-3.24c-.48-1.04-1.2-1.88-2.16-2.53-.96-.65-2.11-.98-3.45-.98s-2.49,.33-3.45,.98c-.96,.65-1.68,1.49-2.16,2.53-.48,1.04-.73,2.12-.73,3.24s.24,2.23,.73,3.26Z"/><path class="f" d="M120.79,192.4h4.11v-20.09h-2.72v-.83h2.87c.28,0,.49,.07,.65,.22,.16,.15,.24,.35,.24,.61v20.09h4.08v.83h-9.23v-.83Z"/><path class="f" d="M134.65,192.59c-1.06-.62-1.89-1.5-2.5-2.65-.61-1.14-.92-2.48-.92-4s.31-2.85,.92-4c.61-1.14,1.45-2.03,2.5-2.65,1.06-.62,2.22-.93,3.51-.93,1.54,0,2.88,.4,4.02,1.18,1.14,.79,1.93,1.83,2.37,3.11h.38l-.09-1.1v-10.09h1.04v21.75h-1.04v-2.9l.09-1.07h-.38c-.43,1.26-1.22,2.29-2.37,3.08-1.14,.79-2.49,1.18-4.02,1.18-1.28,0-2.45-.31-3.51-.93Zm-1.55-2.9c.55,1.02,1.29,1.77,2.2,2.26s1.92,.74,3,.74,2.12-.26,3.11-.79c.99-.52,1.79-1.29,2.41-2.31,.62-1.02,.93-2.23,.93-3.66s-.31-2.64-.93-3.65c-.62-1.02-1.43-1.79-2.41-2.31-.99-.52-2.02-.78-3.11-.78s-2.09,.25-3,.75-1.65,1.26-2.2,2.28c-.55,1.02-.83,2.25-.83,3.71s.28,2.73,.83,3.74Z"/><path class="f" d="M162.01,186.27c.79-.71,1.9-1.12,3.34-1.21l6.27-.47c0-1.68-.46-2.99-1.39-3.95s-2.11-1.44-3.55-1.44c-1.26,0-2.35,.36-3.25,1.08-.91,.72-1.36,1.86-1.36,3.42h-1.04c0-.87,.21-1.71,.62-2.53,.41-.82,1.04-1.49,1.88-2.01,.84-.52,1.87-.79,3.09-.79,1.34,0,2.46,.3,3.34,.9s1.54,1.39,1.95,2.37c.41,.98,.62,2.06,.62,3.24v7.52h2.16v.83h-1.83c-.41,0-.71-.12-.87-.36-.17-.24-.25-.59-.25-1.07v-1.8l.18-1.39h-.41c-.39,1.44-1.1,2.62-2.12,3.54-1.02,.92-2.35,1.38-4.01,1.38-1.46,0-2.58-.37-3.37-1.11-.79-.74-1.18-1.77-1.18-3.09s.39-2.34,1.18-3.05Zm.78,5.53c.62,.59,1.51,.89,2.68,.89,1.34,0,2.48-.38,3.4-1.14s1.62-1.7,2.07-2.83c.45-1.12,.68-2.23,.68-3.31l-6.19,.47c-1.16,.1-2.05,.43-2.66,1.01-.61,.57-.92,1.38-.92,2.43s.31,1.89,.93,2.49Z"/><path class="f" d="M178.02,178.66h1.04v2.99l-.12,1.09h.41c.33-1.36,1.01-2.43,2.03-3.21,1.02-.78,2.3-1.17,3.86-1.17s2.73,.47,3.58,1.41c.85,.94,1.27,2.27,1.27,4.01v9.44h-1.04v-9.47c0-1.58-.34-2.73-1.02-3.46-.68-.73-1.71-1.09-3.09-1.09-1.18,0-2.22,.33-3.12,.99-.9,.66-1.58,1.54-2.06,2.65-.47,1.11-.71,2.3-.71,3.58v6.81h-1.04v-14.56Z"/><path class="f" d="M197.27,192.59c-1.06-.62-1.89-1.5-2.5-2.65-.61-1.14-.92-2.48-.92-4s.31-2.85,.92-4c.61-1.14,1.45-2.03,2.5-2.65,1.06-.62,2.22-.93,3.51-.93,1.54,0,2.88,.4,4.02,1.18,1.14,.79,1.93,1.83,2.37,3.11h.38l-.09-1.1v-10.09h1.04v21.75h-1.04v-2.9l.09-1.07h-.38c-.43,1.26-1.22,2.29-2.37,3.08-1.14,.79-2.49,1.18-4.02,1.18-1.28,0-2.45-.31-3.51-.93Zm-1.55-2.9c.55,1.02,1.29,1.77,2.2,2.26s1.92,.74,3,.74,2.12-.26,3.11-.79c.99-.52,1.79-1.29,2.41-2.31,.62-1.02,.93-2.23,.93-3.66s-.31-2.64-.93-3.65c-.62-1.02-1.43-1.79-2.41-2.31-.99-.52-2.02-.78-3.11-.78s-2.09,.25-3,.75-1.65,1.26-2.2,2.28c-.55,1.02-.83,2.25-.83,3.71s.28,2.73,.83,3.74Z"/><path class="f" d="M223.41,178.66h3.49v-3.28c0-2.6,1.18-3.91,3.55-3.91h2.54v.83h-2.37c-1.01,0-1.71,.24-2.1,.73-.4,.48-.59,1.27-.59,2.35v3.28h4.23v.83h-4.23v12.9h4.23v.83h-8.76v-.83h3.49v-12.9h-3.49v-.83Z"/><path class="f" d="M237.06,192.12c-.85-.94-1.27-2.27-1.27-4.01v-9.44h1.04v9.47c0,1.58,.34,2.73,1.02,3.46,.68,.73,1.71,1.1,3.09,1.1,1.18,0,2.22-.33,3.12-.99,.9-.66,1.58-1.54,2.06-2.65,.47-1.1,.71-2.3,.71-3.58v-6.81h1.04v14.56h-1.04v-2.99l.12-1.09h-.41c-.34,1.36-1.01,2.43-2.03,3.21-1.02,.78-2.3,1.17-3.86,1.17s-2.73-.47-3.58-1.41Z"/><path class="f" d="M252.33,178.66h1.04v2.99l-.12,1.09h.41c.33-1.36,1.01-2.43,2.03-3.21,1.02-.78,2.3-1.17,3.86-1.17s2.73,.47,3.58,1.41c.85,.94,1.27,2.27,1.27,4.01v9.44h-1.04v-9.47c0-1.58-.34-2.73-1.02-3.46-.68-.73-1.71-1.09-3.09-1.09-1.18,0-2.22,.33-3.12,.99-.9,.66-1.58,1.54-2.06,2.65-.47,1.11-.71,2.3-.71,3.58v6.81h-1.04v-14.56Z"/><path class="f" d="M268.96,182.25c.53-1.16,1.33-2.1,2.38-2.81,1.06-.71,2.32-1.07,3.8-1.07s2.84,.4,4.07,1.2,1.96,2.23,2.18,4.31h-1.01c-.22-1.7-.8-2.9-1.76-3.61s-2.12-1.07-3.48-1.07c-1.28,0-2.37,.31-3.26,.93-.89,.62-1.56,1.45-2.01,2.47-.45,1.03-.68,2.14-.68,3.34s.22,2.32,.67,3.34c.44,1.03,1.11,1.85,2.01,2.47,.9,.62,1.99,.93,3.27,.93,1.36,0,2.52-.36,3.48-1.07,.96-.71,1.54-1.91,1.76-3.61h1.01c-.22,2.07-.94,3.51-2.18,4.31s-2.59,1.2-4.07,1.2-2.77-.36-3.82-1.07-1.83-1.64-2.37-2.8c-.53-1.15-.8-2.39-.8-3.71s.27-2.53,.8-3.7Z"/><path class="f" d="M292.43,193.22h-4.88c-.4,0-.68-.09-.86-.27s-.27-.46-.27-.86v-12.61h-3.05v-.83h3.05v-4.38l1.04-.3v4.68h4.38v.83h-4.38v12.9h4.97v.83Z"/><path class="f" d="M295.12,192.4h4.02v-12.9h-2.63v-.83h2.57c.39,0,.68,.07,.84,.22,.17,.15,.25,.39,.25,.72v12.78h4.02v.83h-9.09v-.83Zm3.24-17.9c-.27-.28-.4-.61-.4-1.01s.13-.73,.4-1.01c.27-.28,.61-.41,1.02-.41s.75,.14,1.02,.41c.27,.28,.4,.61,.4,1.01s-.13,.73-.4,1.01c-.27,.28-.61,.41-1.02,.41s-.75-.14-1.02-.41Z"/><path class="f" d="M306.07,182.28c.57-1.16,1.42-2.11,2.53-2.83,1.11-.72,2.44-1.08,3.98-1.08s2.84,.36,3.95,1.08c1.11,.72,1.96,1.66,2.54,2.83,.58,1.16,.87,2.39,.87,3.67s-.29,2.51-.87,3.67c-.58,1.16-1.43,2.11-2.54,2.83-1.11,.72-2.43,1.08-3.95,1.08s-2.87-.36-3.98-1.08c-1.11-.72-1.96-1.66-2.53-2.83-.57-1.16-.86-2.39-.86-3.67s.29-2.5,.86-3.67Zm.9,6.92c.48,1.03,1.2,1.86,2.16,2.52,.96,.65,2.11,.98,3.45,.98s2.49-.33,3.45-.98c.96-.65,1.68-1.49,2.16-2.52,.48-1.03,.73-2.11,.73-3.26s-.24-2.2-.73-3.24c-.48-1.04-1.2-1.88-2.16-2.53-.96-.65-2.11-.98-3.45-.98s-2.49,.33-3.45,.98c-.96,.65-1.68,1.49-2.16,2.53-.48,1.04-.73,2.12-.73,3.24s.24,2.23,.73,3.26Z"/><path class="f" d="M323.97,178.66h1.04v2.99l-.12,1.09h.41c.33-1.36,1.01-2.43,2.03-3.21,1.02-.78,2.3-1.17,3.86-1.17s2.73,.47,3.58,1.41c.85,.94,1.27,2.27,1.27,4.01v9.44h-1.04v-9.47c0-1.58-.34-2.73-1.02-3.46-.68-.73-1.71-1.09-3.09-1.09-1.18,0-2.22,.33-3.12,.99-.9,.66-1.58,1.54-2.06,2.65-.47,1.11-.71,2.3-.71,3.58v6.81h-1.04v-14.56Z"/><path class="f" d="M341.17,186.27c.79-.71,1.9-1.12,3.34-1.21l6.27-.47c0-1.68-.46-2.99-1.39-3.95s-2.11-1.44-3.55-1.44c-1.26,0-2.35,.36-3.25,1.08-.91,.72-1.36,1.86-1.36,3.42h-1.04c0-.87,.21-1.71,.62-2.53,.41-.82,1.04-1.49,1.88-2.01,.84-.52,1.87-.79,3.09-.79,1.34,0,2.46,.3,3.34,.9s1.54,1.39,1.95,2.37c.41,.98,.62,2.06,.62,3.24v7.52h2.16v.83h-1.83c-.41,0-.71-.12-.87-.36-.17-.24-.25-.59-.25-1.07v-1.8l.18-1.39h-.41c-.39,1.44-1.1,2.62-2.12,3.54-1.02,.92-2.35,1.38-4.01,1.38-1.46,0-2.58-.37-3.37-1.11-.79-.74-1.18-1.77-1.18-3.09s.39-2.34,1.18-3.05Zm.78,5.53c.62,.59,1.51,.89,2.68,.89,1.34,0,2.48-.38,3.4-1.14s1.62-1.7,2.07-2.83c.45-1.12,.68-2.23,.68-3.31l-6.19,.47c-1.16,.1-2.05,.43-2.66,1.01-.61,.57-.92,1.38-.92,2.43s.31,1.89,.93,2.49Z"/><path class="f" d="M355.96,192.4h4.11v-20.09h-2.72v-.83h2.87c.28,0,.49,.07,.65,.22,.16,.15,.24,.35,.24,.61v20.09h4.08v.83h-9.23v-.83Z"/><path class="f" d="M26.35,212.37l-5.39,14.56h-2.22l-5.45-14.56h1.07l5.3,14.18h.38l5.27-14.18h1.04Z"/><path class="f" d="M28.31,226.1h4.02v-12.9h-2.63v-.83h2.57c.39,0,.68,.07,.84,.22,.17,.15,.25,.39,.25,.72v12.78h4.02v.83h-9.09v-.83Zm3.24-17.9c-.27-.28-.4-.61-.4-1.01s.13-.73,.4-1.01c.27-.28,.61-.41,1.02-.41s.75,.14,1.02,.41c.27,.28,.4,.61,.4,1.01s-.13,.73-.4,1.01c-.27,.28-.61,.41-1.02,.41s-.75-.14-1.02-.41Z"/><path class="f" d="M41.12,225.71c-1.08-1.02-1.63-2.41-1.63-4.19h1.04c0,1.52,.45,2.71,1.36,3.58,.91,.87,2.15,1.3,3.73,1.3,1.24,0,2.21-.27,2.92-.81,.7-.54,1.05-1.32,1.05-2.32,0-.71-.22-1.29-.65-1.73-.43-.44-1.15-.82-2.16-1.14l-3.4-1.04c-.99-.3-1.77-.72-2.34-1.27-.57-.55-.86-1.29-.86-2.22,0-1.18,.43-2.11,1.29-2.78,.86-.67,2.04-1.01,3.54-1.01,1.62,0,2.89,.42,3.82,1.24,.93,.83,1.39,1.96,1.39,3.4h-1.04c0-1.18-.37-2.12-1.11-2.8s-1.75-1.02-3.03-1.02c-1.18,0-2.12,.27-2.8,.81-.68,.54-1.02,1.3-1.02,2.26,0,1.14,.83,1.97,2.49,2.49l3.4,1.07c1.26,.39,2.17,.89,2.71,1.49,.54,.6,.81,1.36,.81,2.26,0,1.24-.44,2.21-1.33,2.9-.89,.69-2.11,1.04-3.67,1.04-1.91,0-3.41-.51-4.5-1.52Z"/><path class="f" d="M55.44,225.82c-.85-.94-1.27-2.27-1.27-4.01v-9.44h1.04v9.47c0,1.58,.34,2.73,1.02,3.46,.68,.73,1.71,1.1,3.09,1.1,1.18,0,2.22-.33,3.12-.99,.9-.66,1.58-1.54,2.06-2.65,.47-1.1,.71-2.3,.71-3.58v-6.81h1.04v14.56h-1.04v-2.99l.12-1.09h-.41c-.34,1.36-1.01,2.43-2.03,3.21-1.02,.78-2.3,1.17-3.86,1.17s-2.73-.47-3.58-1.41Z"/><path class="f" d="M71.63,219.98c.79-.71,1.9-1.12,3.34-1.21l6.27-.47c0-1.68-.46-2.99-1.39-3.95s-2.11-1.44-3.55-1.44c-1.26,0-2.35,.36-3.25,1.08-.91,.72-1.36,1.86-1.36,3.42h-1.04c0-.87,.21-1.71,.62-2.53,.41-.82,1.04-1.49,1.88-2.01,.84-.52,1.87-.79,3.09-.79,1.34,0,2.46,.3,3.34,.9s1.54,1.39,1.95,2.37c.41,.98,.62,2.06,.62,3.24v7.52h2.16v.83h-1.83c-.41,0-.71-.12-.87-.36-.17-.24-.25-.59-.25-1.07v-1.8l.18-1.39h-.41c-.39,1.44-1.1,2.62-2.12,3.54-1.02,.92-2.35,1.38-4.01,1.38-1.46,0-2.58-.37-3.37-1.11-.79-.74-1.18-1.77-1.18-3.09s.39-2.34,1.18-3.05Zm.78,5.53c.62,.59,1.51,.89,2.68,.89,1.34,0,2.48-.38,3.4-1.14s1.62-1.7,2.07-2.83c.45-1.12,.68-2.23,.68-3.31l-6.19,.47c-1.16,.1-2.05,.43-2.66,1.01-.61,.57-.92,1.38-.92,2.43s.31,1.89,.93,2.49Z"/><path class="f" d="M86.43,226.1h4.11v-20.09h-2.72v-.83h2.87c.28,0,.49,.07,.65,.22,.16,.15,.24,.35,.24,.61v20.09h4.08v.83h-9.23v-.83Z"/><path class="f" d="M117.12,226.93h-4.88c-.4,0-.68-.09-.86-.27s-.27-.46-.27-.86v-12.61h-3.05v-.83h3.05v-4.38l1.04-.3v4.68h4.38v.83h-4.38v12.9h4.97v.83Z"/><path class="f" d="M119.66,215.98c.57-1.16,1.42-2.11,2.53-2.83,1.11-.72,2.44-1.08,3.98-1.08s2.84,.36,3.95,1.08c1.11,.72,1.96,1.66,2.54,2.83,.58,1.16,.87,2.39,.87,3.67s-.29,2.51-.87,3.67c-.58,1.16-1.43,2.11-2.54,2.83-1.11,.72-2.43,1.08-3.95,1.08s-2.87-.36-3.98-1.08c-1.11-.72-1.96-1.66-2.53-2.83-.57-1.16-.86-2.39-.86-3.67s.29-2.5,.86-3.67Zm.9,6.92c.48,1.03,1.2,1.86,2.16,2.52,.96,.65,2.11,.98,3.45,.98s2.49-.33,3.45-.98c.96-.65,1.68-1.49,2.16-2.52,.48-1.03,.73-2.11,.73-3.26s-.24-2.2-.73-3.24c-.48-1.04-1.2-1.88-2.16-2.53-.96-.65-2.11-.98-3.45-.98s-2.49,.33-3.45,.98c-.96,.65-1.68,1.49-2.16,2.53-.48,1.04-.73,2.12-.73,3.24s.24,2.23,.73,3.26Z"/><path class="f" d="M137.65,215.98c.57-1.16,1.42-2.11,2.53-2.83,1.11-.72,2.44-1.08,3.98-1.08s2.84,.36,3.95,1.08c1.11,.72,1.96,1.66,2.54,2.83,.58,1.16,.87,2.39,.87,3.67s-.29,2.51-.87,3.67c-.58,1.16-1.43,2.11-2.54,2.83-1.11,.72-2.43,1.08-3.95,1.08s-2.87-.36-3.98-1.08c-1.11-.72-1.96-1.66-2.53-2.83-.57-1.16-.86-2.39-.86-3.67s.29-2.5,.86-3.67Zm.9,6.92c.48,1.03,1.2,1.86,2.16,2.52,.96,.65,2.11,.98,3.45,.98s2.49-.33,3.45-.98c.96-.65,1.68-1.49,2.16-2.52,.48-1.03,.73-2.11,.73-3.26s-.24-2.2-.73-3.24c-.48-1.04-1.2-1.88-2.16-2.53-.96-.65-2.11-.98-3.45-.98s-2.49,.33-3.45,.98c-.96,.65-1.68,1.49-2.16,2.53-.48,1.04-.73,2.12-.73,3.24s.24,2.23,.73,3.26Z"/><path class="f" d="M152.72,226.1h4.11v-20.09h-2.72v-.83h2.87c.28,0,.49,.07,.65,.22,.16,.15,.24,.35,.24,.61v20.09h4.08v.83h-9.23v-.83Z"/><path class="f" d="M165.68,225.71c-1.08-1.02-1.63-2.41-1.63-4.19h1.04c0,1.52,.45,2.71,1.36,3.58,.91,.87,2.15,1.3,3.73,1.3,1.24,0,2.21-.27,2.92-.81,.7-.54,1.05-1.32,1.05-2.32,0-.71-.22-1.29-.65-1.73-.43-.44-1.15-.82-2.16-1.14l-3.4-1.04c-.99-.3-1.77-.72-2.34-1.27-.57-.55-.86-1.29-.86-2.22,0-1.18,.43-2.11,1.29-2.78,.86-.67,2.04-1.01,3.54-1.01,1.62,0,2.89,.42,3.82,1.24,.93,.83,1.39,1.96,1.39,3.4h-1.04c0-1.18-.37-2.12-1.11-2.8s-1.75-1.02-3.03-1.02c-1.18,0-2.12,.27-2.8,.81-.68,.54-1.02,1.3-1.02,2.26,0,1.14,.83,1.97,2.49,2.49l3.4,1.07c1.26,.39,2.17,.89,2.71,1.49,.54,.6,.81,1.36,.81,2.26,0,1.24-.44,2.21-1.33,2.9-.89,.69-2.11,1.04-3.67,1.04-1.91,0-3.41-.51-4.5-1.52Z"/><path class="f" d="M179.1,226.82c-.27-.28-.4-.61-.4-1.01s.13-.73,.4-1.01c.27-.28,.61-.41,1.02-.41s.75,.14,1.02,.41,.4,.61,.4,1.01-.13,.73-.4,1.01c-.27,.28-.61,.41-1.02,.41s-.75-.14-1.02-.41Z"/></g></g><g><path class="d" d="M41.64,22.18l-3.07-.18c-.52-.01-1.02,.17-1.4,.53l-.6,.57c-.11,.1-.26,.2-.91,.18l-.57-.02h0l-4.82-.08c-.33,0-.63-.15-.86-.38l-.47-.5c-.36-.38-.84-.6-1.37-.61l-2.77-.08c-.52-.01-1.02,.17-1.4,.53l-.6,.57c-.11,.1-.27,.2-.91,.18l-1.84-.05v-.4c0-1.38,.54-2.67,1.51-3.65,.97-.97,2.27-1.51,3.65-1.51h10.41c1.49,0,2.88,.58,3.93,1.63l2.34,2.34h0c-.06,.31-.15,.63-.25,.94ZM25.35,11.01h8.12c3.15,0,5.94,1.64,7.48,4.39,.87,1.55,1.22,3.26,1.07,4.94l-1.96-1.96c-1.19-1.19-2.77-1.84-4.45-1.84h-10.41c-1.57,0-3.05,.61-4.16,1.72-.05,.05-.1,.1-.15,.16-.9-.53-1.92-.81-2.97-.81-.93,0-1.85,.23-2.67,.64,1.38-4.2,5.38-7.24,10.09-7.24Zm-10.6,10.45c0-.75,.08-1.49,.24-2.2,.86-.6,1.9-.93,2.95-.93,.88,0,1.74,.22,2.5,.65-.72,.99-1.11,2.19-1.11,3.44v2.09c0,.07,0,.13-.02,.19h0v.09c-.14,.56-.64,.98-1.24,.98-1.21,0-2.34,.47-3.2,1.32l-.13,.13v-5.76Zm0,6.79l.64-.64c.72-.72,1.67-1.11,2.68-1.11,.37,0,.71-.1,1.01-.28l-.21,1.43c-.18,1.27-.11,2.41,.19,3.4,.37,1.23,1.05,2.36,1.96,3.27,1.34,1.34,2.09,3.13,2.09,5.05l.05,1.52,.03,1.14v.03c-1.01-.94-2.12-1.97-3.1-2.89-.82-.76-1.55-1.44-2.08-1.93-.31-.29-.51-.48-.66-.61,.07-.48,.12-.99,.15-1.51,.2-3.74-.87-6.62-2.49-6.71-.08,0-.17,0-.25,.01v-.16Zm.21,.87c.45,.02,.89,.53,1.23,1.39h-2.68c.44-.91,.97-1.42,1.45-1.39Zm1.47,2.12c.27,1.01,.41,2.32,.33,3.82-.09,1.69-.44,3.11-.89,4.12h-2.51c.6-.9,.92-2.47,.92-3.99s-.31-3.04-.89-3.95h3.04Zm-4.14,7.94h-.15c-.55-.13-1.26-1.62-1.26-3.99s.67-3.76,1.21-3.97v.03h.32c.53,.29,1.15,1.74,1.15,3.95,0,2.37-.71,3.86-1.26,3.99Zm2.04,1.6c-.34-.02-.69-.33-.99-.87h2.14c-.37,.58-.78,.89-1.15,.87Zm23.02,5.02c.29,.94,.48,1.67,.49,1.88-.19,.49-1.28,2.25-1.64,2.44-.08,0-.23,0-.44,0-8.16,.09-10.87-.27-11.71-.59-1.16-.44-4.39-3.45-8.88-8.27,.88-.54,1.61-1.93,2.01-3.8,1.06,.98,3.63,3.37,7.29,6.78,1,.93,2.41,1.34,3.75,1.08l2.36-.45c1.36-.26,2.78-.2,4.11,.17,1.57,.44,2.31,.65,2.65,.75Zm-12.23-1.95s.05,0,.08,0c.13,0,.26-.01,.39-.04,.42-.08,.77-.58,1.14-1.18,.06-.09,.13-.2,.14-.22l.71-.87c.4-.4,.93-.61,1.5-.61h4.35c.57,0,1.11,.22,1.51,.63l.77,.77c.07,.07,.16,.15,.26,.22,.12,.09,.26,.16,.4,.22,.25,.74,.5,1.51,.73,2.22-.5-.14-1.23-.35-2.2-.62-1.44-.4-2.98-.46-4.45-.18l-2.36,.45c-1.05,.2-2.15-.08-2.97-.76Zm17.35-9.65c-.35,.8-.83,1.61-1.42,2.21-1.36,1.36-2.32,1.6-2.32,3.78,0,0,0,.63-.02,.99-.03,.49-.41,.74-.63,.85-.54,.26-1.23,.22-1.68-.09-.07-.05-.12-.09-.16-.13l-.77-.77c-.54-.54-1.26-.84-2.02-.84h-4.35c-.76,0-1.48,.3-2.02,.84l-.72,.88c-.06,.06-.12,.16-.23,.33-.12,.2-.49,.79-.66,.85-.36,.07-.73-.01-1.03-.23-.29-.21-.48-.53-.52-.88l-.07-2.64c0-2.1-.82-4.07-2.3-5.55-.82-.82-1.44-1.85-1.78-2.96-.27-.89-.32-1.93-.16-3.08l.42-2.82c.03-.13,.04-.27,.04-.42v-.97l1.82,.05c.72,.02,1.12-.09,1.43-.38l.6-.57c.24-.23,.55-.34,.88-.33l2.77,.08c.33,0,.63,.15,.86,.38l.47,.5c.36,.38,.84,.6,1.37,.61l4.68,.07h0l.71,.02c.06,0,.11,0,.17,0,.62,0,.98-.11,1.26-.38l.6-.57c.24-.23,.55-.34,.87-.34l2.83,.17c-.17,.4-.37,.8-.61,1.18-.2,.33-.24,1.14-.24,1.53v1.14l.73,.11v-1.26c0-.25,0-.93,.14-1.14,1.79-2.91,1.86-6.42,.2-9.4-1.67-2.98-4.7-4.76-8.11-4.76h-8.12c-6.25,0-11.33,5.01-11.33,11.18v7.24c-.49,.34-.93,.96-1.31,1.82h-.16c-.11-.04-.22-.05-.34-.05-1.34,0-2.07,2.44-2.07,4.73s.73,4.73,2.07,4.73c.05,0,.1,0,.14-.01h.17c.56,1.26,1.26,1.57,1.76,1.6,.03,0,.05,0,.08,0,.01,0,.02,0,.04,0,.03,.04,.1,.1,.18,.19,3.3,3.54,7.57,7.89,9.21,8.52,1.14,.43,4.36,.65,9.6,.65,.75,0,1.54,0,2.37-.01,.21,0,.35,0,.42,0,.02,0,.03,0,.04,0,.89,0,2.3-2.94,2.32-2.97,.04-.13,.16-.47-1.35-4.96,.4,.02,.82-.06,1.18-.24,.62-.3,1-.83,1.04-1.46,.02-.39,.03-1.01,.03-1.04,0-1.76,.62-1.77,2.11-3.26,.91-.91,1.59-2.21,1.96-3.44,.02-.07,.06-.21,.07-.3l-.56,.51-.56,.51Z"/><path class="d" d="M40.94,26.57c-2.21,0-4.01,1.8-4.01,4.02s1.8,4.01,4.01,4.01,4.02-1.8,4.02-4.01-1.8-4.02-4.02-4.02Zm0,7.35c-1.84,0-3.33-1.49-3.33-3.33s1.49-3.33,3.33-3.33,3.33,1.49,3.33,3.33-1.49,3.33-3.33,3.33Z"/><path class="d" d="M27.27,26.57c-2.21,0-4.01,1.8-4.01,4.02s1.8,4.01,4.01,4.01,4.02-1.8,4.02-4.01-1.8-4.02-4.02-4.02Zm0,7.35c-1.84,0-3.33-1.49-3.33-3.33s1.49-3.33,3.33-3.33,3.33,1.49,3.33,3.33-1.49,3.33-3.33,3.33Z"/></g><g><path class="g" d="M18.83,83.94c.4,.28,.71,.64,.94,1.08,.22,.44,.38,.93,.46,1.47,.08,.54,.12,1.07,.12,1.58s-.04,1.05-.12,1.59c-.08,.54-.23,1.03-.46,1.47s-.54,.8-.94,1.08c-.4,.28-.93,.42-1.58,.42s-1.17-.14-1.57-.42c-.41-.28-.72-.64-.94-1.08s-.38-.93-.46-1.47c-.08-.54-.12-1.07-.12-1.58s.04-1.06,.12-1.6c.08-.54,.23-1.03,.46-1.47,.22-.44,.54-.8,.94-1.08,.4-.28,.93-.42,1.57-.42s1.17,.14,1.58,.42Zm-2.79,.64c-.3,.26-.53,.59-.69,.97-.16,.39-.26,.81-.31,1.27-.05,.46-.08,.87-.08,1.25s.03,.81,.08,1.26c.05,.45,.15,.87,.31,1.27,.16,.39,.39,.72,.69,.98,.3,.26,.71,.39,1.22,.39s.91-.13,1.22-.39c.3-.26,.53-.59,.69-.98,.16-.39,.26-.81,.31-1.27,.05-.45,.08-.87,.08-1.26s-.02-.8-.08-1.25c-.05-.46-.15-.88-.31-1.27-.16-.39-.39-.71-.69-.97-.3-.26-.71-.39-1.22-.39s-.91,.13-1.22,.39Z"/><path class="g" d="M26.19,83.94c.4,.28,.71,.64,.94,1.08,.22,.44,.38,.93,.46,1.47,.08,.54,.12,1.07,.12,1.58s-.04,1.05-.12,1.59c-.08,.54-.23,1.03-.46,1.47s-.54,.8-.94,1.08c-.4,.28-.93,.42-1.58,.42s-1.17-.14-1.57-.42c-.41-.28-.72-.64-.94-1.08s-.38-.93-.46-1.47c-.08-.54-.12-1.07-.12-1.58s.04-1.06,.12-1.6c.08-.54,.23-1.03,.46-1.47,.22-.44,.54-.8,.94-1.08,.4-.28,.93-.42,1.57-.42s1.17,.14,1.58,.42Zm-2.79,.64c-.3,.26-.53,.59-.69,.97-.16,.39-.26,.81-.31,1.27-.05,.46-.08,.87-.08,1.25s.03,.81,.08,1.26c.05,.45,.15,.87,.31,1.27,.16,.39,.39,.72,.69,.98,.3,.26,.71,.39,1.22,.39s.91-.13,1.22-.39c.3-.26,.53-.59,.69-.98,.16-.39,.26-.81,.31-1.27,.05-.45,.08-.87,.08-1.26s-.02-.8-.08-1.25c-.05-.46-.15-.88-.31-1.27-.16-.39-.39-.71-.69-.97-.3-.26-.71-.39-1.22-.39s-.91,.13-1.22,.39Z"/><path class="g" d="M30.62,85.25c.28-.03,.53-.1,.73-.21,.21-.11,.38-.28,.52-.5s.24-.54,.3-.94h.65v8.86h-.8v-6.58h-2.34v-.57c.35,0,.66-.03,.94-.06Z"/></g><g><g><path class="g" d="M18.22,337.42c.4,.28,.71,.64,.94,1.08,.22,.44,.38,.93,.46,1.47,.08,.54,.12,1.07,.12,1.58s-.04,1.05-.12,1.59c-.08,.54-.23,1.03-.46,1.47s-.54,.8-.94,1.08c-.4,.28-.93,.42-1.58,.42s-1.17-.14-1.57-.42c-.41-.28-.72-.64-.94-1.08s-.38-.93-.46-1.47c-.08-.54-.12-1.07-.12-1.58s.04-1.06,.12-1.6c.08-.54,.23-1.03,.46-1.47,.22-.44,.54-.8,.94-1.08,.4-.28,.93-.42,1.57-.42s1.17,.14,1.58,.42Zm-2.79,.64c-.3,.26-.53,.59-.69,.97-.16,.39-.26,.81-.31,1.27-.05,.46-.08,.87-.08,1.25s.03,.81,.08,1.26c.05,.45,.15,.87,.31,1.27,.16,.39,.39,.72,.69,.98,.3,.26,.71,.39,1.22,.39s.91-.13,1.22-.39c.3-.26,.53-.59,.69-.98,.16-.39,.26-.81,.31-1.27,.05-.45,.08-.87,.08-1.26s-.02-.8-.08-1.25c-.05-.46-.15-.88-.31-1.27-.16-.39-.39-.71-.69-.97-.3-.26-.71-.39-1.22-.39s-.91,.13-1.22,.39Z"/><path class="g" d="M25.57,337.42c.4,.28,.71,.64,.94,1.08,.22,.44,.38,.93,.46,1.47,.08,.54,.12,1.07,.12,1.58s-.04,1.05-.12,1.59c-.08,.54-.23,1.03-.46,1.47s-.54,.8-.94,1.08c-.4,.28-.93,.42-1.58,.42s-1.17-.14-1.57-.42c-.41-.28-.72-.64-.94-1.08s-.38-.93-.46-1.47c-.08-.54-.12-1.07-.12-1.58s.04-1.06,.12-1.6c.08-.54,.23-1.03,.46-1.47,.22-.44,.54-.8,.94-1.08,.4-.28,.93-.42,1.57-.42s1.17,.14,1.58,.42Zm-2.79,.64c-.3,.26-.53,.59-.69,.97-.16,.39-.26,.81-.31,1.27-.05,.46-.08,.87-.08,1.25s.03,.81,.08,1.26c.05,.45,.15,.87,.31,1.27,.16,.39,.39,.72,.69,.98,.3,.26,.71,.39,1.22,.39s.91-.13,1.22-.39c.3-.26,.53-.59,.69-.98,.16-.39,.26-.81,.31-1.27,.05-.45,.08-.87,.08-1.26s-.02-.8-.08-1.25c-.05-.46-.15-.88-.31-1.27-.16-.39-.39-.71-.69-.97-.3-.26-.71-.39-1.22-.39s-.91,.13-1.22,.39Z"/><path class="g" d="M29.17,344.07c.1,.29,.24,.53,.43,.73,.19,.2,.43,.36,.71,.47,.28,.11,.6,.17,.96,.17,.3,0,.58-.04,.85-.13,.27-.08,.51-.21,.72-.38s.38-.38,.51-.62c.13-.25,.19-.52,.19-.84s-.06-.6-.16-.83c-.11-.23-.26-.43-.46-.58-.19-.16-.42-.27-.68-.35-.26-.08-.53-.11-.83-.11h-.67v-.67h.67c.2,0,.41-.03,.63-.09s.41-.16,.58-.29,.31-.3,.42-.5c.11-.2,.16-.44,.16-.72,0-.29-.05-.55-.15-.75-.1-.21-.24-.38-.42-.52-.18-.14-.38-.24-.61-.3-.23-.06-.48-.09-.75-.09-.33,0-.62,.05-.87,.16-.25,.11-.47,.26-.64,.46-.17,.2-.3,.43-.39,.71-.08,.27-.12,.58-.11,.9h-.8c0-.42,.07-.81,.2-1.16s.32-.66,.56-.92,.53-.46,.88-.61,.73-.22,1.16-.22c.35,0,.68,.04,1.01,.13,.33,.09,.62,.22,.88,.41s.46,.41,.62,.7c.16,.28,.23,.62,.23,1.02,0,.48-.13,.9-.39,1.25-.26,.35-.63,.59-1.11,.71v.03c.58,.09,1.03,.33,1.35,.73s.48,.88,.48,1.46c0,.44-.08,.83-.25,1.16-.16,.33-.39,.61-.66,.84-.28,.23-.6,.4-.98,.51-.37,.11-.76,.17-1.16,.17-.46,0-.88-.07-1.26-.2-.38-.13-.71-.33-.99-.58-.27-.25-.48-.57-.62-.94-.14-.37-.19-.8-.16-1.28h.8c-.02,.35,.02,.68,.12,.96Z"/></g><rect class="h" x="63.38" y="367.29" width="110.3" height=".47"/><rect class="h" x="207.59" y="367.29" width="139.72" height=".47"/><g><path class="e" d="M14.6,357.47h5.14v.86h-4.14v2.78h3.66v.84h-3.66v3.26h-1v-7.74Z"/><path class="e" d="M21.2,357.47h1v4.65c0,.81,.16,1.4,.47,1.77s.86,.57,1.64,.57,1.33-.19,1.65-.57,.48-.97,.48-1.77v-4.65h1v4.86c0,.98-.26,1.73-.77,2.23-.52,.51-1.3,.76-2.35,.76-2.07,0-3.11-1-3.11-3v-4.86Z"/><path class="e" d="M34.58,364.77c-.49,.37-1.25,.56-2.26,.56-1.16,0-2.05-.26-2.65-.78-.6-.52-.91-1.27-.91-2.25h1.01c0,.74,.21,1.29,.64,1.65,.43,.36,1.07,.54,1.93,.54,.67,0,1.16-.11,1.48-.32,.32-.21,.48-.53,.48-.97,0-.64-.43-1.08-1.3-1.3l-2.16-.56c-1.15-.3-1.72-.95-1.72-1.94,0-.67,.23-1.17,.7-1.53,.47-.35,1.15-.53,2.04-.53,1.04,0,1.83,.24,2.39,.71,.55,.47,.83,1.13,.83,1.97h-1.02c0-1.23-.73-1.84-2.2-1.84-1.16,0-1.73,.39-1.73,1.17,0,.59,.39,.98,1.17,1.19l2.14,.54c.62,.16,1.09,.42,1.4,.76,.31,.35,.47,.78,.47,1.3,0,.71-.25,1.25-.74,1.62Z"/><path class="e" d="M40.98,357.47v.86h-1.73v6.03h1.73v.86h-4.46v-.86h1.73v-6.03h-1.73v-.86h4.46Z"/><path class="e" d="M42.73,357.47h2l3.69,7.46h.27l-.16-.69v-6.77h.99v7.74h-2l-3.68-7.46h-.29l.18,.69v6.77h-1v-7.74Z"/><path class="e" d="M52.77,364.83c-.52-.34-.91-.8-1.17-1.39-.26-.59-.39-1.26-.39-2.03,0-.81,.15-1.52,.44-2.13,.29-.61,.72-1.08,1.27-1.42,.55-.34,1.21-.5,1.98-.5,.94,0,1.71,.26,2.31,.77s.96,1.22,1.09,2.12h-1.01c-.09-.64-.34-1.14-.75-1.5-.41-.35-.94-.53-1.6-.53-.86,0-1.53,.29-2,.87-.47,.58-.71,1.37-.71,2.35,0,.91,.22,1.64,.65,2.2,.43,.56,1.1,.84,2.02,.84,.85,0,1.49-.23,1.93-.68s.64-1.11,.61-1.98h-3v-.77h3.33c.46,0,.69,.22,.69,.65v3.51h-1v-.88l.21-1.04h-.29c-.02,.26-.11,.55-.26,.86-.15,.31-.43,.58-.82,.82-.4,.24-.93,.36-1.6,.36-.76,0-1.4-.17-1.92-.5Z"/><path class="e" d="M64.22,357.47h2.49c.74,0,1.39,.1,1.97,.3,.57,.2,1.04,.58,1.41,1.15,.37,.57,.55,1.38,.55,2.42s-.18,1.86-.55,2.43c-.37,.57-.83,.96-1.41,1.15-.57,.2-1.23,.3-1.97,.3h-2.49v-7.74Zm2.49,6.88c.57,0,1.06-.06,1.47-.19,.41-.13,.75-.41,1.03-.86,.28-.44,.42-1.1,.42-1.97s-.14-1.52-.42-1.96c-.28-.44-.62-.73-1.03-.86s-.9-.19-1.47-.19h-1.49v6.03h1.49Z"/><path class="e" d="M72.33,357.47h5.38v.86h-4.38v2.59h3.83v.83h-3.83v2.6h4.38v.86h-5.38v-7.74Z"/><path class="e" d="M84.56,364.77c-.49,.37-1.25,.56-2.26,.56-1.16,0-2.05-.26-2.65-.78-.6-.52-.91-1.27-.91-2.25h1.01c0,.74,.21,1.29,.64,1.65,.43,.36,1.07,.54,1.93,.54,.67,0,1.16-.11,1.48-.32,.32-.21,.48-.53,.48-.97,0-.64-.43-1.08-1.3-1.3l-2.16-.56c-1.15-.3-1.72-.95-1.72-1.94,0-.67,.23-1.17,.7-1.53,.47-.35,1.15-.53,2.04-.53,1.04,0,1.83,.24,2.39,.71,.55,.47,.83,1.13,.83,1.97h-1.02c0-1.23-.73-1.84-2.2-1.84-1.16,0-1.73,.39-1.73,1.17,0,.59,.39,.98,1.17,1.19l2.14,.54c.62,.16,1.09,.42,1.4,.76,.31,.35,.47,.78,.47,1.3,0,.71-.25,1.25-.74,1.62Z"/><path class="e" d="M90.96,357.47v.86h-1.73v6.03h1.73v.86h-4.46v-.86h1.73v-6.03h-1.73v-.86h4.46Z"/><path class="e" d="M93.59,364.83c-.52-.34-.91-.8-1.17-1.39-.26-.59-.39-1.26-.39-2.03,0-.81,.15-1.52,.44-2.13,.29-.61,.72-1.08,1.27-1.42,.55-.34,1.21-.5,1.98-.5,.94,0,1.71,.26,2.31,.77s.96,1.22,1.09,2.12h-1.01c-.09-.64-.34-1.14-.75-1.5-.41-.35-.94-.53-1.6-.53-.86,0-1.53,.29-2,.87-.47,.58-.71,1.37-.71,2.35,0,.91,.22,1.64,.65,2.2,.43,.56,1.1,.84,2.02,.84,.85,0,1.49-.23,1.93-.68s.64-1.11,.61-1.98h-3v-.77h3.33c.46,0,.69,.22,.69,.65v3.51h-1v-.88l.21-1.04h-.29c-.02,.26-.11,.55-.26,.86-.15,.31-.43,.58-.82,.82-.4,.24-.93,.36-1.6,.36-.76,0-1.4-.17-1.92-.5Z"/><path class="e" d="M101.15,357.47h2l3.69,7.46h.27l-.16-.69v-6.77h.99v7.74h-2l-3.68-7.46h-.29l.18,.69v6.77h-1v-7.74Z"/><path class="e" d="M119.65,357.47v.86h-2.66v6.88h-1v-6.88h-2.67v-.86h6.32Z"/><path class="e" d="M122.09,357.47v3.49h4.41v-3.49h1v7.74h-1v-3.38h-4.41v3.38h-1v-7.74h1Z"/><path class="e" d="M133.7,357.47v.86h-1.73v6.03h1.73v.86h-4.46v-.86h1.73v-6.03h-1.73v-.86h4.46Z"/><path class="e" d="M135.45,357.47h2l3.69,7.46h.27l-.16-.69v-6.77h.99v7.74h-2l-3.68-7.46h-.29l.18,.69v6.77h-1v-7.74Z"/><path class="e" d="M144.09,357.47h1v3.39h.55l3.28-3.39h1.25l-3.63,3.8,3.67,3.94h-1.32l-3.27-3.51h-.53v3.51h-1v-7.74Z"/><path class="e" d="M155.95,357.47v.86h-1.73v6.03h1.73v.86h-4.46v-.86h1.73v-6.03h-1.73v-.86h4.46Z"/><path class="e" d="M157.7,357.47h2l3.69,7.46h.27l-.16-.69v-6.77h.99v7.74h-2l-3.68-7.46h-.29l.18,.69v6.77h-1v-7.74Z"/><path class="e" d="M167.74,364.83c-.52-.34-.91-.8-1.17-1.39-.26-.59-.39-1.26-.39-2.03,0-.81,.15-1.52,.44-2.13,.29-.61,.72-1.08,1.27-1.42,.55-.34,1.21-.5,1.98-.5,.94,0,1.71,.26,2.31,.77s.96,1.22,1.09,2.12h-1.01c-.09-.64-.34-1.14-.75-1.5-.41-.35-.94-.53-1.6-.53-.86,0-1.53,.29-2,.87-.47,.58-.71,1.37-.71,2.35,0,.91,.22,1.64,.65,2.2,.43,.56,1.1,.84,2.02,.84,.85,0,1.49-.23,1.93-.68s.64-1.11,.61-1.98h-3v-.77h3.33c.46,0,.69,.22,.69,.65v3.51h-1v-.88l.21-1.04h-.29c-.02,.26-.11,.55-.26,.86-.15,.31-.43,.58-.82,.82-.4,.24-.93,.36-1.6,.36-.76,0-1.4-.17-1.92-.5Z"/><path class="e" d="M181.16,357.47h2.14l2.47,7.74h-1.04l-.93-2.96h-3.13l-.93,2.96h-1.03l2.46-7.74Zm2.36,3.92l-1.15-3.64h-.27l-1.15,3.64h2.58Z"/><path class="e" d="M187.12,357.47h2l3.69,7.46h.27l-.16-.69v-6.77h.99v7.74h-2l-3.68-7.46h-.29l.18,.69v6.77h-1v-7.74Z"/><path class="e" d="M195.76,357.47h2.49c.74,0,1.39,.1,1.97,.3,.57,.2,1.04,.58,1.41,1.15,.37,.57,.55,1.38,.55,2.42s-.18,1.86-.55,2.43c-.37,.57-.83,.96-1.41,1.15-.57,.2-1.23,.3-1.97,.3h-2.49v-7.74Zm2.49,6.88c.57,0,1.06-.06,1.47-.19,.41-.13,.75-.41,1.03-.86,.28-.44,.42-1.1,.42-1.97s-.14-1.52-.42-1.96c-.28-.44-.62-.73-1.03-.86s-.9-.19-1.47-.19h-1.49v6.03h1.49Z"/><path class="e" d="M207.74,357.47h2l2.05,7.46h.29l2.05-7.46h1.99v7.74h-1v-6.51l.17-.96h-.27l-2.09,7.46h-2l-2.07-7.46h-.29l.18,.96v6.51h-1v-7.74Z"/><path class="e" d="M218.25,359.29c.29-.6,.72-1.08,1.27-1.42,.55-.34,1.2-.52,1.95-.52s1.39,.17,1.94,.52c.55,.34,.97,.82,1.26,1.42,.29,.6,.44,1.29,.44,2.05s-.15,1.44-.44,2.05c-.29,.6-.71,1.08-1.26,1.43-.55,.35-1.2,.52-1.94,.52s-1.4-.17-1.95-.52-.98-.82-1.27-1.43c-.29-.6-.44-1.29-.44-2.05s.15-1.44,.44-2.05Zm1.25,4.32c.45,.57,1.11,.86,1.97,.86s1.52-.29,1.97-.86c.45-.57,.67-1.33,.67-2.27s-.23-1.7-.67-2.27c-.45-.57-1.11-.85-1.97-.85s-1.52,.28-1.97,.85c-.45,.57-.68,1.32-.68,2.27s.23,1.7,.68,2.27Z"/><path class="e" d="M231.86,357.47v.86h-2.66v6.88h-1v-6.88h-2.67v-.86h6.32Z"/><path class="e" d="M237.72,357.47v.86h-1.73v6.03h1.73v.86h-4.46v-.86h1.73v-6.03h-1.73v-.86h4.46Z"/><path class="e" d="M239.22,359.29c.29-.6,.72-1.08,1.27-1.42,.55-.34,1.2-.52,1.95-.52s1.39,.17,1.94,.52c.55,.34,.97,.82,1.26,1.42,.29,.6,.44,1.29,.44,2.05s-.15,1.44-.44,2.05c-.29,.6-.71,1.08-1.26,1.43-.55,.35-1.2,.52-1.94,.52s-1.4-.17-1.95-.52-.98-.82-1.27-1.43c-.29-.6-.44-1.29-.44-2.05s.15-1.44,.44-2.05Zm1.25,4.32c.45,.57,1.11,.86,1.97,.86s1.52-.29,1.97-.86c.45-.57,.67-1.33,.67-2.27s-.23-1.7-.67-2.27c-.45-.57-1.11-.85-1.97-.85s-1.52,.28-1.97,.85c-.45,.57-.68,1.32-.68,2.27s.23,1.7,.68,2.27Z"/><path class="e" d="M247.79,357.47h2l3.69,7.46h.27l-.16-.69v-6.77h.99v7.74h-2l-3.68-7.46h-.29l.18,.69v6.77h-1v-7.74Z"/><path class="e" d="M265.78,364.77c-.49,.37-1.25,.56-2.26,.56-1.16,0-2.05-.26-2.65-.78-.6-.52-.91-1.27-.91-2.25h1.01c0,.74,.21,1.29,.64,1.65,.43,.36,1.07,.54,1.93,.54,.67,0,1.16-.11,1.48-.32,.32-.21,.48-.53,.48-.97,0-.64-.43-1.08-1.3-1.3l-2.16-.56c-1.15-.3-1.72-.95-1.72-1.94,0-.67,.23-1.17,.7-1.53,.47-.35,1.15-.53,2.04-.53,1.04,0,1.83,.24,2.39,.71,.55,.47,.83,1.13,.83,1.97h-1.02c0-1.23-.73-1.84-2.2-1.84-1.16,0-1.73,.39-1.73,1.17,0,.59,.39,.98,1.17,1.19l2.14,.54c.62,.16,1.09,.42,1.4,.76,.31,.35,.47,.78,.47,1.3,0,.71-.25,1.25-.74,1.62Z"/><path class="e" d="M273.63,357.47v.86h-2.66v6.88h-1v-6.88h-2.67v-.86h6.32Z"/><path class="e" d="M274.87,359.29c.29-.6,.72-1.08,1.27-1.42,.55-.34,1.2-.52,1.95-.52s1.39,.17,1.94,.52c.55,.34,.97,.82,1.26,1.42,.29,.6,.44,1.29,.44,2.05s-.15,1.44-.44,2.05c-.29,.6-.71,1.08-1.26,1.43-.55,.35-1.2,.52-1.94,.52s-1.4-.17-1.95-.52-.98-.82-1.27-1.43c-.29-.6-.44-1.29-.44-2.05s.15-1.44,.44-2.05Zm1.25,4.32c.45,.57,1.11,.86,1.97,.86s1.52-.29,1.97-.86c.45-.57,.67-1.33,.67-2.27s-.23-1.7-.67-2.27c-.45-.57-1.11-.85-1.97-.85s-1.52,.28-1.97,.85c-.45,.57-.68,1.32-.68,2.27s.23,1.7,.68,2.27Z"/><path class="e" d="M283.43,357.47h2.87c.99,0,1.74,.15,2.25,.45,.51,.3,.77,.84,.77,1.62,0,.57-.13,1-.4,1.27-.27,.28-.65,.46-1.15,.55v.27h.85c.48,0,.71,.25,.71,.76v2.81h-.99v-3.06h-3.91v3.06h-1v-7.74Zm2.87,3.82c.46,0,.84-.04,1.12-.12,.29-.08,.51-.23,.67-.45,.16-.22,.24-.54,.24-.96s-.08-.74-.24-.94c-.16-.2-.38-.34-.65-.4s-.66-.09-1.14-.09h-1.87v2.96h1.87Z"/><path class="e" d="M296.88,357.47l-2.31,4.48h-.52v3.26h-.99v-3.26h-.52l-2.29-4.48h1.05l2.11,4.21h.29l2.11-4.21h1.06Z"/><path class="e" d="M304.29,357.47v.86h-2.66v6.88h-1v-6.88h-2.67v-.86h6.32Z"/><path class="e" d="M305.73,357.47h5.38v.86h-4.38v2.59h3.83v.83h-3.83v2.6h4.38v.86h-5.38v-7.74Z"/><path class="e" d="M312.84,365.04c-.12-.12-.18-.29-.18-.52v-7.05h1v6.88h3.88v.86h-4.18c-.22,0-.39-.06-.51-.18Z"/><path class="e" d="M319.02,365.04c-.12-.12-.18-.29-.18-.52v-7.05h1v6.88h3.88v.86h-4.18c-.22,0-.39-.06-.51-.18Z"/><path class="e" d="M329.41,357.47v.86h-1.73v6.03h1.73v.86h-4.46v-.86h1.73v-6.03h-1.73v-.86h4.46Z"/><path class="e" d="M331.15,357.47h2l3.69,7.46h.27l-.16-.69v-6.77h.99v7.74h-2l-3.68-7.46h-.29l.18,.69v6.77h-1v-7.74Z"/><path class="e" d="M341.2,364.83c-.52-.34-.91-.8-1.17-1.39-.26-.59-.39-1.26-.39-2.03,0-.81,.15-1.52,.44-2.13,.29-.61,.72-1.08,1.27-1.42,.55-.34,1.21-.5,1.98-.5,.94,0,1.71,.26,2.31,.77s.96,1.22,1.09,2.12h-1.01c-.09-.64-.34-1.14-.75-1.5-.41-.35-.94-.53-1.6-.53-.86,0-1.53,.29-2,.87-.47,.58-.71,1.37-.71,2.35,0,.91,.22,1.64,.65,2.2,.43,.56,1.1,.84,2.02,.84,.85,0,1.49-.23,1.93-.68s.64-1.11,.61-1.98h-3v-.77h3.33c.46,0,.69,.22,.69,.65v3.51h-1v-.88l.21-1.04h-.29c-.02,.26-.11,.55-.26,.86-.15,.31-.43,.58-.82,.82-.4,.24-.93,.36-1.6,.36-.76,0-1.4-.17-1.92-.5Z"/><path class="e" d="M349.84,363.64l-.88,3.24-.88-.24,.88-3.24,.88,.24Z"/><path class="e" d="M22.26,378.68h-1.93l-1.33-7.46h-.27l-1.3,7.46h-1.95l-1.43-7.74h.99l1.27,6.64-.07,.82h.29l1.32-7.46h2.04l1.31,7.46h.29l-.04-.82,1.24-6.64h.99l-1.41,7.74Z"/><path class="e" d="M24.92,370.94h5.38v.86h-4.38v2.59h3.83v.83h-3.83v2.6h4.38v.86h-5.38v-7.74Z"/><path class="e" d="M35.8,370.94h2.61c.68,0,1.24,.05,1.67,.16,.43,.11,.76,.3,.99,.58,.23,.28,.34,.66,.34,1.15,0,.53-.15,.92-.45,1.19-.3,.27-.67,.42-1.12,.46v.26c1.43,.04,2.14,.66,2.14,1.88,0,.75-.26,1.29-.79,1.6-.53,.31-1.3,.47-2.32,.47h-3.07v-7.74Zm2.66,3.32c.45,0,.81-.03,1.09-.09,.28-.06,.49-.18,.65-.36,.15-.18,.23-.44,.23-.8,0-.37-.08-.65-.23-.83-.15-.18-.36-.29-.63-.35-.27-.05-.64-.08-1.11-.08h-1.66v2.5h1.66Zm.45,3.59c.48,0,.86-.04,1.15-.1,.29-.07,.52-.21,.68-.41s.24-.5,.24-.88c0-.53-.17-.89-.52-1.1-.34-.21-.86-.31-1.56-.31h-2.11v2.8h2.11Z"/><path class="e" d="M43.4,370.94h1v4.65c0,.81,.16,1.4,.47,1.77s.86,.57,1.64,.57,1.33-.19,1.65-.57,.48-.97,.48-1.77v-4.65h1v4.86c0,.98-.26,1.73-.77,2.23-.52,.51-1.3,.76-2.35,.76-2.07,0-3.11-1-3.11-3v-4.86Z"/><path class="e" d="M55.53,370.94v.86h-1.73v6.03h1.73v.86h-4.46v-.86h1.73v-6.03h-1.73v-.86h4.46Z"/><path class="e" d="M57.45,378.51c-.12-.12-.18-.29-.18-.52v-7.05h1v6.88h3.88v.86h-4.18c-.22,0-.39-.06-.51-.18Z"/><path class="e" d="M63.45,370.94h2.49c.74,0,1.39,.1,1.97,.3,.57,.2,1.04,.58,1.41,1.15,.37,.57,.55,1.38,.55,2.42s-.18,1.86-.55,2.43c-.37,.57-.83,.96-1.41,1.15-.57,.2-1.23,.3-1.97,.3h-2.49v-7.74Zm2.49,6.88c.57,0,1.06-.06,1.47-.19,.41-.13,.75-.41,1.03-.86,.28-.44,.42-1.1,.42-1.97s-.14-1.52-.42-1.96c-.28-.44-.62-.73-1.03-.86s-.9-.19-1.47-.19h-1.49v6.03h1.49Z"/><path class="e" d="M72.08,377.11l-.88,3.24-.88-.24,.88-3.24,.88,.24Z"/><path class="e" d="M77.9,370.94h2.49c.74,0,1.39,.1,1.97,.3,.57,.2,1.04,.58,1.41,1.15,.37,.57,.55,1.38,.55,2.42s-.18,1.86-.55,2.43c-.37,.57-.83,.96-1.41,1.15-.57,.2-1.23,.3-1.97,.3h-2.49v-7.74Zm2.49,6.88c.57,0,1.06-.06,1.47-.19,.41-.13,.75-.41,1.03-.86,.28-.44,.42-1.1,.42-1.97s-.14-1.52-.42-1.96c-.28-.44-.62-.73-1.03-.86s-.9-.19-1.47-.19h-1.49v6.03h1.49Z"/><path class="e" d="M86.01,370.94h5.38v.86h-4.38v2.59h3.83v.83h-3.83v2.6h4.38v.86h-5.38v-7.74Z"/><path class="e" d="M92.98,370.94h2.25c1.09,0,1.9,.19,2.43,.57,.53,.38,.8,1.04,.8,1.99s-.27,1.61-.8,1.99c-.53,.38-1.34,.58-2.43,.58h-1.25v2.61h-1v-7.74Zm2.28,4.27c.48,0,.87-.05,1.19-.14,.31-.09,.56-.26,.75-.51,.18-.25,.27-.6,.27-1.06s-.09-.82-.27-1.06c-.18-.25-.43-.42-.75-.51-.31-.09-.71-.13-1.19-.13h-1.28v3.41h1.28Z"/><path class="e" d="M100.25,378.51c-.12-.12-.18-.29-.18-.52v-7.05h1v6.88h3.88v.86h-4.18c-.22,0-.39-.06-.51-.18Z"/><path class="e" d="M106.07,372.76c.29-.6,.72-1.08,1.27-1.42,.55-.34,1.2-.52,1.95-.52s1.39,.17,1.94,.52c.55,.34,.97,.82,1.26,1.42,.29,.6,.44,1.29,.44,2.05s-.15,1.44-.44,2.05c-.29,.6-.71,1.08-1.26,1.43-.55,.35-1.2,.52-1.94,.52s-1.4-.17-1.95-.52-.98-.82-1.27-1.43c-.29-.6-.44-1.29-.44-2.05s.15-1.44,.44-2.05Zm1.25,4.32c.45,.57,1.11,.86,1.97,.86s1.52-.29,1.97-.86c.45-.57,.67-1.33,.67-2.27s-.23-1.7-.67-2.27c-.45-.57-1.11-.85-1.97-.85s-1.52,.28-1.97,.85c-.45,.57-.68,1.32-.68,2.27s.23,1.7,.68,2.27Z"/><path class="e" d="M119.8,370.94l-2.31,4.48h-.52v3.26h-.99v-3.26h-.52l-2.29-4.48h1.05l2.11,4.21h.29l2.11-4.21h1.06Z"/><path class="e" d="M121.08,377.11l-.88,3.24-.88-.24,.88-3.24,.88,.24Z"/><path class="e" d="M128.86,370.94h2.14l2.47,7.74h-1.04l-.93-2.96h-3.13l-.93,2.96h-1.03l2.46-7.74Zm2.36,3.92l-1.15-3.64h-.27l-1.15,3.64h2.58Z"/><path class="e" d="M134.82,370.94h2l3.69,7.46h.27l-.16-.69v-6.77h.99v7.74h-2l-3.68-7.46h-.29l.18,.69v6.77h-1v-7.74Z"/><path class="e" d="M143.46,370.94h2.49c.74,0,1.39,.1,1.97,.3,.57,.2,1.04,.58,1.41,1.15,.37,.57,.55,1.38,.55,2.42s-.18,1.86-.55,2.43c-.37,.57-.83,.96-1.41,1.15-.57,.2-1.23,.3-1.97,.3h-2.49v-7.74Zm2.49,6.88c.57,0,1.06-.06,1.47-.19,.41-.13,.75-.41,1.03-.86,.28-.44,.42-1.1,.42-1.97s-.14-1.52-.42-1.96c-.28-.44-.62-.73-1.03-.86s-.9-.19-1.47-.19h-1.49v6.03h1.49Z"/><path class="e" d="M157.4,370.94h2.14l2.47,7.74h-1.04l-.93-2.96h-3.13l-.93,2.96h-1.03l2.46-7.74Zm2.36,3.92l-1.15-3.64h-.27l-1.15,3.64h2.58Z"/><path class="e" d="M163.36,370.94h2l2.05,7.46h.29l2.05-7.46h1.99v7.74h-1v-6.51l.17-.96h-.27l-2.09,7.46h-2l-2.07-7.46h-.29l.18,.96v6.51h-1v-7.74Z"/><path class="e" d="M173.6,370.94h2.25c1.09,0,1.9,.19,2.43,.57,.53,.38,.8,1.04,.8,1.99s-.27,1.61-.8,1.99c-.53,.38-1.34,.58-2.43,.58h-1.25v2.61h-1v-7.74Zm2.28,4.27c.48,0,.87-.05,1.19-.14,.31-.09,.56-.26,.75-.51,.18-.25,.27-.6,.27-1.06s-.09-.82-.27-1.06c-.18-.25-.43-.42-.75-.51-.31-.09-.71-.13-1.19-.13h-1.28v3.41h1.28Z"/><path class="e" d="M180.86,378.51c-.12-.12-.18-.29-.18-.52v-7.05h1v6.88h3.88v.86h-4.18c-.22,0-.39-.06-.51-.18Z"/><path class="e" d="M191.25,370.94v.86h-1.73v6.03h1.73v.86h-4.46v-.86h1.73v-6.03h-1.73v-.86h4.46Z"/><path class="e" d="M192.99,370.94h5.14v.86h-4.14v2.78h3.66v.84h-3.66v3.26h-1v-7.74Z"/><path class="e" d="M205.93,370.94l-2.31,4.48h-.52v3.26h-.99v-3.26h-.52l-2.29-4.48h1.05l2.11,4.21h.29l2.11-4.21h1.06Z"/><path class="e" d="M211.2,370.94h2l2.05,7.46h.29l2.05-7.46h1.99v7.74h-1v-6.51l.17-.96h-.27l-2.09,7.46h-2l-2.07-7.46h-.29l.18,.96v6.51h-1v-7.74Z"/><path class="e" d="M221.71,372.76c.29-.6,.72-1.08,1.27-1.42,.55-.34,1.2-.52,1.95-.52s1.39,.17,1.94,.52c.55,.34,.97,.82,1.26,1.42,.29,.6,.44,1.29,.44,2.05s-.15,1.44-.44,2.05c-.29,.6-.71,1.08-1.26,1.43-.55,.35-1.2,.52-1.94,.52s-1.4-.17-1.95-.52-.98-.82-1.27-1.43c-.29-.6-.44-1.29-.44-2.05s.15-1.44,.44-2.05Zm1.25,4.32c.45,.57,1.11,.86,1.97,.86s1.52-.29,1.97-.86c.45-.57,.67-1.33,.67-2.27s-.23-1.7-.67-2.27c-.45-.57-1.11-.85-1.97-.85s-1.52,.28-1.97,.85c-.45,.57-.68,1.32-.68,2.27s.23,1.7,.68,2.27Z"/><path class="e" d="M230.28,370.94h2.49c.74,0,1.39,.1,1.97,.3,.57,.2,1.04,.58,1.41,1.15,.37,.57,.55,1.38,.55,2.42s-.18,1.86-.55,2.43c-.37,.57-.83,.96-1.41,1.15-.57,.2-1.23,.3-1.97,.3h-2.49v-7.74Zm2.49,6.88c.57,0,1.06-.06,1.47-.19,.41-.13,.75-.41,1.03-.86,.28-.44,.42-1.1,.42-1.97s-.14-1.52-.42-1.96c-.28-.44-.62-.73-1.03-.86s-.9-.19-1.47-.19h-1.49v6.03h1.49Z"/><path class="e" d="M238.39,370.94h5.38v.86h-4.38v2.59h3.83v.83h-3.83v2.6h4.38v.86h-5.38v-7.74Z"/><path class="e" d="M245.36,370.94h2.87c.99,0,1.74,.15,2.25,.45,.51,.3,.77,.84,.77,1.62,0,.57-.13,1-.4,1.27-.27,.28-.65,.46-1.15,.55v.27h.85c.48,0,.71,.25,.71,.76v2.81h-.99v-3.06h-3.91v3.06h-1v-7.74Zm2.87,3.82c.46,0,.84-.04,1.12-.12,.29-.08,.51-.23,.67-.45,.16-.22,.24-.54,.24-.96s-.08-.74-.24-.94c-.16-.2-.38-.34-.65-.4s-.66-.09-1.14-.09h-1.87v2.96h1.87Z"/><path class="e" d="M253.07,370.94h2l3.69,7.46h.27l-.16-.69v-6.77h.99v7.74h-2l-3.68-7.46h-.29l.18,.69v6.77h-1v-7.74Z"/><path class="e" d="M265.57,370.94h2.61c.68,0,1.24,.05,1.67,.16,.43,.11,.76,.3,.99,.58,.23,.28,.34,.66,.34,1.15,0,.53-.15,.92-.45,1.19-.3,.27-.67,.42-1.12,.46v.26c1.43,.04,2.14,.66,2.14,1.88,0,.75-.26,1.29-.79,1.6-.53,.31-1.3,.47-2.32,.47h-3.07v-7.74Zm2.66,3.32c.45,0,.81-.03,1.09-.09,.28-.06,.49-.18,.65-.36,.15-.18,.23-.44,.23-.8,0-.37-.08-.65-.23-.83-.15-.18-.36-.29-.63-.35-.27-.05-.64-.08-1.11-.08h-1.66v2.5h1.66Zm.45,3.59c.48,0,.86-.04,1.15-.1,.29-.07,.52-.21,.68-.41s.24-.5,.24-.88c0-.53-.17-.89-.52-1.1-.34-.21-.86-.31-1.56-.31h-2.11v2.8h2.11Z"/><path class="e" d="M273.38,370.94h2.87c.99,0,1.74,.15,2.25,.45,.51,.3,.77,.84,.77,1.62,0,.57-.13,1-.4,1.27-.27,.28-.65,.46-1.15,.55v.27h.85c.48,0,.71,.25,.71,.76v2.81h-.99v-3.06h-3.91v3.06h-1v-7.74Zm2.87,3.82c.46,0,.84-.04,1.12-.12,.29-.08,.51-.23,.67-.45,.16-.22,.24-.54,.24-.96s-.08-.74-.24-.94c-.16-.2-.38-.34-.65-.4s-.66-.09-1.14-.09h-1.87v2.96h1.87Z"/><path class="e" d="M283.07,370.94h2.14l2.47,7.74h-1.04l-.93-2.96h-3.13l-.93,2.96h-1.03l2.46-7.74Zm2.36,3.92l-1.15-3.64h-.27l-1.15,3.64h2.58Z"/><path class="e" d="M289.03,370.94h2l3.69,7.46h.27l-.16-.69v-6.77h.99v7.74h-2l-3.68-7.46h-.29l.18,.69v6.77h-1v-7.74Z"/><path class="e" d="M297.67,370.94h2.49c.74,0,1.39,.1,1.97,.3,.57,.2,1.04,.58,1.41,1.15,.37,.57,.55,1.38,.55,2.42s-.18,1.86-.55,2.43c-.37,.57-.83,.96-1.41,1.15-.57,.2-1.23,.3-1.97,.3h-2.49v-7.74Zm2.49,6.88c.57,0,1.06-.06,1.47-.19,.41-.13,.75-.41,1.03-.86,.28-.44,.42-1.1,.42-1.97s-.14-1.52-.42-1.96c-.28-.44-.62-.73-1.03-.86s-.9-.19-1.47-.19h-1.49v6.03h1.49Z"/><path class="e" d="M311.28,378.24c-.49,.37-1.25,.56-2.26,.56-1.16,0-2.05-.26-2.65-.78-.6-.52-.91-1.27-.91-2.25h1.01c0,.74,.21,1.29,.64,1.65,.43,.36,1.07,.54,1.93,.54,.67,0,1.16-.11,1.48-.32,.32-.21,.48-.53,.48-.97,0-.64-.43-1.08-1.3-1.3l-2.16-.56c-1.15-.3-1.72-.95-1.72-1.94,0-.67,.23-1.17,.7-1.53,.47-.35,1.15-.53,2.04-.53,1.04,0,1.83,.24,2.39,.71,.55,.47,.83,1.13,.83,1.97h-1.02c0-1.23-.73-1.84-2.2-1.84-1.16,0-1.73,.39-1.73,1.17,0,.59,.39,.98,1.17,1.19l2.14,.54c.62,.16,1.09,.42,1.4,.76,.31,.35,.47,.78,.47,1.3,0,.71-.25,1.25-.74,1.62Z"/><path class="e" d="M14.6,384.42h5.14v.86h-4.14v2.78h3.66v.84h-3.66v3.26h-1v-7.74Z"/><path class="e" d="M21.45,386.23c.29-.6,.72-1.08,1.27-1.42,.55-.34,1.2-.52,1.95-.52s1.39,.17,1.94,.52c.55,.34,.97,.82,1.26,1.42,.29,.6,.44,1.29,.44,2.05s-.15,1.44-.44,2.05c-.29,.6-.71,1.08-1.26,1.43-.55,.35-1.2,.52-1.94,.52s-1.4-.17-1.95-.52-.98-.82-1.27-1.43c-.29-.6-.44-1.29-.44-2.05s.15-1.44,.44-2.05Zm1.25,4.32c.45,.57,1.11,.86,1.97,.86s1.52-.29,1.97-.86c.45-.57,.67-1.33,.67-2.27s-.23-1.7-.67-2.27c-.45-.57-1.11-.85-1.97-.85s-1.52,.28-1.97,.85c-.45,.57-.68,1.32-.68,2.27s.23,1.7,.68,2.27Z"/><path class="e" d="M30.01,384.42h2.87c.99,0,1.74,.15,2.25,.45,.51,.3,.77,.84,.77,1.62,0,.57-.13,1-.4,1.27-.27,.28-.65,.46-1.15,.55v.27h.85c.48,0,.71,.25,.71,.76v2.81h-.99v-3.06h-3.91v3.06h-1v-7.74Zm2.87,3.82c.46,0,.84-.04,1.12-.12,.29-.08,.51-.23,.67-.45,.16-.22,.24-.54,.24-.96s-.08-.74-.24-.94c-.16-.2-.38-.34-.65-.4s-.66-.09-1.14-.09h-1.87v2.96h1.87Z"/><path class="e" d="M41.57,384.42h5.38v.86h-4.38v2.59h3.83v.83h-3.83v2.6h4.38v.86h-5.38v-7.74Z"/><path class="e" d="M48.12,384.42h1.03l2.36,7.46h.29l2.36-7.46h1.03l-2.47,7.74h-2.14l-2.46-7.74Z"/><path class="e" d="M56.55,384.42h5.38v.86h-4.38v2.59h3.83v.83h-3.83v2.6h4.38v.86h-5.38v-7.74Z"/><path class="e" d="M63.52,384.42h2.87c.99,0,1.74,.15,2.25,.45,.51,.3,.77,.84,.77,1.62,0,.57-.13,1-.4,1.27-.27,.28-.65,.46-1.15,.55v.27h.85c.48,0,.71,.25,.71,.76v2.81h-.99v-3.06h-3.91v3.06h-1v-7.74Zm2.87,3.82c.46,0,.84-.04,1.12-.12,.29-.08,.51-.23,.67-.45,.16-.22,.24-.54,.24-.96s-.08-.74-.24-.94c-.16-.2-.38-.34-.65-.4s-.66-.09-1.14-.09h-1.87v2.96h1.87Z"/><path class="e" d="M76.97,384.42l-2.31,4.48h-.52v3.26h-.99v-3.26h-.52l-2.29-4.48h1.05l2.11,4.21h.29l2.11-4.21h1.06Z"/><path class="e" d="M86.04,392.16h-1.93l-1.33-7.46h-.27l-1.3,7.46h-1.95l-1.43-7.74h.99l1.27,6.64-.07,.82h.29l1.32-7.46h2.04l1.31,7.46h.29l-.04-.82,1.24-6.64h.99l-1.41,7.74Z"/><path class="e" d="M89.69,384.42v3.49h4.41v-3.49h1v7.74h-1v-3.38h-4.41v3.38h-1v-7.74h1Z"/><path class="e" d="M96.96,384.42h5.38v.86h-4.38v2.59h3.83v.83h-3.83v2.6h4.38v.86h-5.38v-7.74Z"/><path class="e" d="M103.93,384.42h2.87c.99,0,1.74,.15,2.25,.45,.51,.3,.77,.84,.77,1.62,0,.57-.13,1-.4,1.27-.27,.28-.65,.46-1.15,.55v.27h.85c.48,0,.71,.25,.71,.76v2.81h-.99v-3.06h-3.91v3.06h-1v-7.74Zm2.87,3.82c.46,0,.84-.04,1.12-.12,.29-.08,.51-.23,.67-.45,.16-.22,.24-.54,.24-.96s-.08-.74-.24-.94c-.16-.2-.38-.34-.65-.4s-.66-.09-1.14-.09h-1.87v2.96h1.87Z"/><path class="e" d="M111.64,384.42h5.38v.86h-4.38v2.59h3.83v.83h-3.83v2.6h4.38v.86h-5.38v-7.74Z"/><path class="e" d="M128.51,384.42v.86h-2.66v6.88h-1v-6.88h-2.67v-.86h6.32Z"/><path class="e" d="M130.95,384.42v3.49h4.41v-3.49h1v7.74h-1v-3.38h-4.41v3.38h-1v-7.74h1Z"/><path class="e" d="M138.21,384.42h5.38v.86h-4.38v2.59h3.83v.83h-3.83v2.6h4.38v.86h-5.38v-7.74Z"/><path class="e" d="M151.33,384.42l-2.31,4.48h-.52v3.26h-.99v-3.26h-.52l-2.29-4.48h1.05l2.11,4.21h.29l2.11-4.21h1.06Z"/><path class="e" d="M162.1,391.72c-.49,.37-1.25,.56-2.26,.56-1.16,0-2.05-.26-2.65-.78-.6-.52-.91-1.27-.91-2.25h1.01c0,.74,.21,1.29,.64,1.65,.43,.36,1.07,.54,1.93,.54,.67,0,1.16-.11,1.48-.32,.32-.21,.48-.53,.48-.97,0-.64-.43-1.08-1.3-1.3l-2.16-.56c-1.15-.3-1.72-.95-1.72-1.94,0-.67,.23-1.17,.7-1.53,.47-.35,1.15-.53,2.04-.53,1.04,0,1.83,.24,2.39,.71,.55,.47,.83,1.13,.83,1.97h-1.02c0-1.23-.73-1.84-2.2-1.84-1.16,0-1.73,.39-1.73,1.17,0,.59,.39,.98,1.17,1.19l2.14,.54c.62,.16,1.09,.42,1.4,.76,.31,.35,.47,.78,.47,1.3,0,.71-.25,1.25-.74,1.62Z"/><path class="e" d="M165.36,384.42v3.49h4.41v-3.49h1v7.74h-1v-3.38h-4.41v3.38h-1v-7.74h1Z"/><path class="e" d="M172.92,386.23c.29-.6,.72-1.08,1.27-1.42,.55-.34,1.2-.52,1.95-.52s1.39,.17,1.94,.52c.55,.34,.97,.82,1.26,1.42,.29,.6,.44,1.29,.44,2.05s-.15,1.44-.44,2.05c-.29,.6-.71,1.08-1.26,1.43-.55,.35-1.2,.52-1.94,.52s-1.4-.17-1.95-.52-.98-.82-1.27-1.43c-.29-.6-.44-1.29-.44-2.05s.15-1.44,.44-2.05Zm1.25,4.32c.45,.57,1.11,.86,1.97,.86s1.52-.29,1.97-.86c.45-.57,.67-1.33,.67-2.27s-.23-1.7-.67-2.27c-.45-.57-1.11-.85-1.97-.85s-1.52,.28-1.97,.85c-.45,.57-.68,1.32-.68,2.27s.23,1.7,.68,2.27Z"/><path class="e" d="M188.87,392.16h-1.93l-1.33-7.46h-.27l-1.3,7.46h-1.95l-1.43-7.74h.99l1.27,6.64-.07,.82h.29l1.32-7.46h2.04l1.31,7.46h.29l-.04-.82,1.24-6.64h.99l-1.41,7.74Z"/><path class="e" d="M195.23,384.42h1v4.65c0,.81,.16,1.4,.47,1.77s.86,.57,1.64,.57,1.33-.19,1.65-.57,.48-.97,.48-1.77v-4.65h1v4.86c0,.98-.26,1.73-.77,2.23-.52,.51-1.3,.76-2.35,.76-2.07,0-3.11-1-3.11-3v-4.86Z"/><path class="e" d="M203.23,384.42h2.25c1.09,0,1.9,.19,2.43,.57,.53,.38,.8,1.04,.8,1.99s-.27,1.61-.8,1.99c-.53,.38-1.34,.58-2.43,.58h-1.25v2.61h-1v-7.74Zm2.28,4.27c.48,0,.87-.05,1.19-.14,.31-.09,.56-.26,.75-.51,.18-.25,.27-.6,.27-1.06s-.09-.82-.27-1.06c-.18-.25-.43-.42-.75-.51-.31-.09-.71-.13-1.19-.13h-1.28v3.41h1.28Z"/><path class="e" d="M209.02,392c-.18-.18-.27-.4-.27-.66s.09-.48,.27-.66c.18-.17,.4-.26,.66-.26s.49,.09,.67,.27,.27,.4,.27,.65-.09,.48-.27,.66c-.18,.18-.41,.27-.67,.27s-.48-.09-.66-.27Z"/></g></g><g><g><path class="g" d="M18.22,257.42c.4,.28,.71,.64,.94,1.08,.22,.44,.38,.93,.46,1.47,.08,.54,.12,1.07,.12,1.58s-.04,1.05-.12,1.59c-.08,.54-.23,1.03-.46,1.47s-.54,.8-.94,1.08c-.4,.28-.93,.42-1.58,.42s-1.17-.14-1.57-.42c-.41-.28-.72-.64-.94-1.08s-.38-.93-.46-1.47c-.08-.54-.12-1.07-.12-1.58s.04-1.06,.12-1.6c.08-.54,.23-1.03,.46-1.47,.22-.44,.54-.8,.94-1.08,.4-.28,.93-.42,1.57-.42s1.17,.14,1.58,.42Zm-2.79,.64c-.3,.26-.53,.59-.69,.97-.16,.39-.26,.81-.31,1.27-.05,.46-.08,.87-.08,1.25s.03,.81,.08,1.26c.05,.45,.15,.87,.31,1.27,.16,.39,.39,.72,.69,.98,.3,.26,.71,.39,1.22,.39s.91-.13,1.22-.39c.3-.26,.53-.59,.69-.98,.16-.39,.26-.81,.31-1.27,.05-.45,.08-.87,.08-1.26s-.02-.8-.08-1.25c-.05-.46-.15-.88-.31-1.27-.16-.39-.39-.71-.69-.97-.3-.26-.71-.39-1.22-.39s-.91,.13-1.22,.39Z"/><path class="g" d="M25.57,257.42c.4,.28,.71,.64,.94,1.08,.22,.44,.38,.93,.46,1.47,.08,.54,.12,1.07,.12,1.58s-.04,1.05-.12,1.59c-.08,.54-.23,1.03-.46,1.47s-.54,.8-.94,1.08c-.4,.28-.93,.42-1.58,.42s-1.17-.14-1.57-.42c-.41-.28-.72-.64-.94-1.08s-.38-.93-.46-1.47c-.08-.54-.12-1.07-.12-1.58s.04-1.06,.12-1.6c.08-.54,.23-1.03,.46-1.47,.22-.44,.54-.8,.94-1.08,.4-.28,.93-.42,1.57-.42s1.17,.14,1.58,.42Zm-2.79,.64c-.3,.26-.53,.59-.69,.97-.16,.39-.26,.81-.31,1.27-.05,.46-.08,.87-.08,1.25s.03,.81,.08,1.26c.05,.45,.15,.87,.31,1.27,.16,.39,.39,.72,.69,.98,.3,.26,.71,.39,1.22,.39s.91-.13,1.22-.39c.3-.26,.53-.59,.69-.98,.16-.39,.26-.81,.31-1.27,.05-.45,.08-.87,.08-1.26s-.02-.8-.08-1.25c-.05-.46-.15-.88-.31-1.27-.16-.39-.39-.71-.69-.97-.3-.26-.71-.39-1.22-.39s-.91,.13-1.22,.39Z"/><path class="g" d="M28.29,265.93c0-.44,.08-.83,.23-1.17,.14-.34,.33-.64,.57-.91,.24-.27,.5-.52,.8-.74s.6-.44,.91-.65c.31-.21,.62-.42,.93-.63,.31-.21,.58-.44,.83-.69,.24-.25,.43-.5,.55-.75,.12-.26,.18-.56,.18-.92,0-.29-.05-.54-.16-.77s-.25-.41-.43-.57c-.18-.16-.39-.27-.63-.35-.24-.08-.5-.12-.77-.12-.36,0-.67,.07-.93,.2-.26,.14-.47,.32-.63,.54-.16,.23-.28,.49-.35,.78-.07,.3-.1,.61-.09,.94h-.8c0-.46,.04-.88,.16-1.26,.11-.38,.29-.72,.53-.99s.53-.5,.89-.65c.36-.16,.78-.23,1.26-.23,.39,0,.75,.05,1.08,.16,.33,.11,.62,.26,.87,.47,.25,.21,.44,.47,.58,.78s.21,.67,.21,1.09c0,.37-.06,.71-.18,1.01-.12,.3-.29,.58-.49,.83-.21,.25-.44,.49-.71,.7-.27,.21-.55,.42-.84,.6-.21,.14-.46,.3-.75,.48-.29,.17-.56,.37-.83,.58-.27,.21-.5,.44-.7,.69s-.33,.52-.38,.82h4.92v.73h-5.84Z"/></g><g><path class="e" d="M21.68,285.09h-1.93l-1.33-7.46h-.27l-1.3,7.46h-1.95l-1.43-7.74h.99l1.27,6.64-.07,.82h.29l1.32-7.46h2.04l1.31,7.46h.29l-.04-.82,1.24-6.64h.99l-1.41,7.74Z"/><path class="e" d="M24.34,277.35h5.38v.86h-4.38v2.59h3.83v.83h-3.83v2.6h4.38v.86h-5.38v-7.74Z"/><path class="e" d="M41.21,277.35v.86h-2.66v6.88h-1v-6.88h-2.67v-.86h6.32Z"/><path class="e" d="M43.65,277.35v3.49h4.41v-3.49h1v7.74h-1v-3.38h-4.41v3.38h-1v-7.74h1Z"/><path class="e" d="M50.92,277.35h2.87c.99,0,1.74,.15,2.25,.45,.51,.3,.77,.84,.77,1.62,0,.57-.13,1-.4,1.27-.27,.28-.65,.46-1.15,.55v.27h.85c.48,0,.71,.25,.71,.76v2.81h-.99v-3.06h-3.91v3.06h-1v-7.74Zm2.87,3.82c.46,0,.84-.04,1.12-.12,.29-.08,.51-.23,.67-.45,.16-.22,.24-.54,.24-.96s-.08-.74-.24-.94c-.16-.2-.38-.34-.65-.4s-.66-.09-1.14-.09h-1.87v2.96h1.87Z"/><path class="e" d="M62.81,277.35v.86h-1.73v6.03h1.73v.86h-4.46v-.86h1.73v-6.03h-1.73v-.86h4.46Z"/><path class="e" d="M64.06,277.35h1.03l2.36,7.46h.29l2.36-7.46h1.03l-2.47,7.74h-2.14l-2.46-7.74Z"/><path class="e" d="M72.49,277.35h5.38v.86h-4.38v2.59h3.83v.83h-3.83v2.6h4.38v.86h-5.38v-7.74Z"/><path class="e" d="M91.03,285.09h-1.93l-1.33-7.46h-.27l-1.3,7.46h-1.95l-1.43-7.74h.99l1.27,6.64-.07,.82h.29l1.32-7.46h2.04l1.31,7.46h.29l-.04-.82,1.24-6.64h.99l-1.41,7.74Z"/><path class="e" d="M93.85,279.17c.29-.6,.72-1.08,1.27-1.42,.55-.34,1.2-.52,1.95-.52s1.39,.17,1.94,.52c.55,.34,.97,.82,1.26,1.42,.29,.6,.44,1.29,.44,2.05s-.15,1.44-.44,2.05c-.29,.6-.71,1.08-1.26,1.43-.55,.35-1.2,.52-1.94,.52s-1.4-.17-1.95-.52-.98-.82-1.27-1.43c-.29-.6-.44-1.29-.44-2.05s.15-1.44,.44-2.05Zm1.25,4.32c.45,.57,1.11,.86,1.97,.86s1.52-.29,1.97-.86c.45-.57,.67-1.33,.67-2.27s-.23-1.7-.67-2.27c-.45-.57-1.11-.85-1.97-.85s-1.52,.28-1.97,.85c-.45,.57-.68,1.32-.68,2.27s.23,1.7,.68,2.27Z"/><path class="e" d="M102.42,277.35h2.87c.99,0,1.74,.15,2.25,.45,.51,.3,.77,.84,.77,1.62,0,.57-.13,1-.4,1.27-.27,.28-.65,.46-1.15,.55v.27h.85c.48,0,.71,.25,.71,.76v2.81h-.99v-3.06h-3.91v3.06h-1v-7.74Zm2.87,3.82c.46,0,.84-.04,1.12-.12,.29-.08,.51-.23,.67-.45,.16-.22,.24-.54,.24-.96s-.08-.74-.24-.94c-.16-.2-.38-.34-.65-.4s-.66-.09-1.14-.09h-1.87v2.96h1.87Z"/><path class="e" d="M110.12,277.35h1v3.39h.55l3.28-3.39h1.25l-3.63,3.8,3.67,3.94h-1.32l-3.27-3.51h-.53v3.51h-1v-7.74Z"/><path class="e" d="M121.99,277.35v.86h-1.73v6.03h1.73v.86h-4.46v-.86h1.73v-6.03h-1.73v-.86h4.46Z"/><path class="e" d="M123.73,277.35h2l3.69,7.46h.27l-.16-.69v-6.77h.99v7.74h-2l-3.68-7.46h-.29l.18,.69v6.77h-1v-7.74Z"/><path class="e" d="M133.78,284.71c-.52-.34-.91-.8-1.17-1.39-.26-.59-.39-1.26-.39-2.03,0-.81,.15-1.52,.44-2.13,.29-.61,.72-1.08,1.27-1.42,.55-.34,1.21-.5,1.98-.5,.94,0,1.71,.26,2.31,.77s.96,1.22,1.09,2.12h-1.01c-.09-.64-.34-1.14-.75-1.5-.41-.35-.94-.53-1.6-.53-.86,0-1.53,.29-2,.87-.47,.58-.71,1.37-.71,2.35,0,.91,.22,1.64,.65,2.2,.43,.56,1.1,.84,2.02,.84,.85,0,1.49-.23,1.93-.68s.64-1.11,.61-1.98h-3v-.77h3.33c.46,0,.69,.22,.69,.65v3.51h-1v-.88l.21-1.04h-.29c-.02,.26-.11,.55-.26,.86-.15,.31-.43,.58-.82,.82-.4,.24-.93,.36-1.6,.36-.76,0-1.4-.17-1.92-.5Z"/><path class="e" d="M152.89,285.09h-1.93l-1.33-7.46h-.27l-1.3,7.46h-1.95l-1.43-7.74h.99l1.27,6.64-.07,.82h.29l1.32-7.46h2.04l1.31,7.46h.29l-.04-.82,1.24-6.64h.99l-1.41,7.74Z"/><path class="e" d="M159.86,277.35v.86h-1.73v6.03h1.73v.86h-4.46v-.86h1.73v-6.03h-1.73v-.86h4.46Z"/><path class="e" d="M167.59,277.35v.86h-2.66v6.88h-1v-6.88h-2.67v-.86h6.32Z"/><path class="e" d="M170.03,277.35v3.49h4.41v-3.49h1v7.74h-1v-3.38h-4.41v3.38h-1v-7.74h1Z"/><path class="e" d="M185.5,277.35v.86h-1.73v6.03h1.73v.86h-4.46v-.86h1.73v-6.03h-1.73v-.86h4.46Z"/><path class="e" d="M187.24,277.35h2l3.69,7.46h.27l-.16-.69v-6.77h.99v7.74h-2l-3.68-7.46h-.29l.18,.69v6.77h-1v-7.74Z"/><path class="e" d="M195.88,277.35h2l3.69,7.46h.27l-.16-.69v-6.77h.99v7.74h-2l-3.68-7.46h-.29l.18,.69v6.77h-1v-7.74Z"/><path class="e" d="M204.81,279.17c.29-.6,.72-1.08,1.27-1.42,.55-.34,1.2-.52,1.95-.52s1.39,.17,1.94,.52c.55,.34,.97,.82,1.26,1.42,.29,.6,.44,1.29,.44,2.05s-.15,1.44-.44,2.05c-.29,.6-.71,1.08-1.26,1.43-.55,.35-1.2,.52-1.94,.52s-1.4-.17-1.95-.52-.98-.82-1.27-1.43c-.29-.6-.44-1.29-.44-2.05s.15-1.44,.44-2.05Zm1.25,4.32c.45,.57,1.11,.86,1.97,.86s1.52-.29,1.97-.86c.45-.57,.67-1.33,.67-2.27s-.23-1.7-.67-2.27c-.45-.57-1.11-.85-1.97-.85s-1.52,.28-1.97,.85c-.45,.57-.68,1.32-.68,2.27s.23,1.7,.68,2.27Z"/><path class="e" d="M212.18,277.35h1.03l2.36,7.46h.29l2.36-7.46h1.03l-2.47,7.74h-2.14l-2.46-7.74Z"/><path class="e" d="M221.69,277.35h2.14l2.47,7.74h-1.04l-.93-2.96h-3.13l-.93,2.96h-1.03l2.46-7.74Zm2.36,3.92l-1.15-3.64h-.27l-1.15,3.64h2.58Z"/><path class="e" d="M232.59,277.35v.86h-2.66v6.88h-1v-6.88h-2.67v-.86h6.32Z"/><path class="e" d="M238.46,277.35v.86h-1.73v6.03h1.73v.86h-4.46v-.86h1.73v-6.03h-1.73v-.86h4.46Z"/><path class="e" d="M239.71,277.35h1.03l2.36,7.46h.29l2.36-7.46h1.03l-2.47,7.74h-2.14l-2.46-7.74Z"/><path class="e" d="M248.14,277.35h5.38v.86h-4.38v2.59h3.83v.83h-3.83v2.6h4.38v.86h-5.38v-7.74Z"/><path class="e" d="M259.02,277.35h2.25c1.09,0,1.9,.19,2.43,.57,.53,.38,.8,1.04,.8,1.99s-.27,1.61-.8,1.99c-.53,.38-1.34,.58-2.43,.58h-1.25v2.61h-1v-7.74Zm2.28,4.27c.48,0,.87-.05,1.19-.14,.31-.09,.56-.26,.75-.51,.18-.25,.27-.6,.27-1.06s-.09-.82-.27-1.06c-.18-.25-.43-.42-.75-.51-.31-.09-.71-.13-1.19-.13h-1.28v3.41h1.28Z"/><path class="e" d="M267.48,277.35h2.14l2.47,7.74h-1.04l-.93-2.96h-3.13l-.93,2.96h-1.03l2.46-7.74Zm2.36,3.92l-1.15-3.64h-.27l-1.15,3.64h2.58Z"/><path class="e" d="M273.44,277.35h2.87c.99,0,1.74,.15,2.25,.45,.51,.3,.77,.84,.77,1.62,0,.57-.13,1-.4,1.27-.27,.28-.65,.46-1.15,.55v.27h.85c.48,0,.71,.25,.71,.76v2.81h-.99v-3.06h-3.91v3.06h-1v-7.74Zm2.87,3.82c.46,0,.84-.04,1.12-.12,.29-.08,.51-.23,.67-.45,.16-.22,.24-.54,.24-.96s-.08-.74-.24-.94c-.16-.2-.38-.34-.65-.4s-.66-.09-1.14-.09h-1.87v2.96h1.87Z"/><path class="e" d="M286.75,277.35v.86h-2.66v6.88h-1v-6.88h-2.67v-.86h6.32Z"/><path class="e" d="M288.19,277.35h2l3.69,7.46h.27l-.16-.69v-6.77h.99v7.74h-2l-3.68-7.46h-.29l.18,.69v6.77h-1v-7.74Z"/><path class="e" d="M296.83,277.35h5.38v.86h-4.38v2.59h3.83v.83h-3.83v2.6h4.38v.86h-5.38v-7.74Z"/><path class="e" d="M303.8,277.35h2.87c.99,0,1.74,.15,2.25,.45,.51,.3,.77,.84,.77,1.62,0,.57-.13,1-.4,1.27-.27,.28-.65,.46-1.15,.55v.27h.85c.48,0,.71,.25,.71,.76v2.81h-.99v-3.06h-3.91v3.06h-1v-7.74Zm2.87,3.82c.46,0,.84-.04,1.12-.12,.29-.08,.51-.23,.67-.45,.16-.22,.24-.54,.24-.96s-.08-.74-.24-.94c-.16-.2-.38-.34-.65-.4s-.66-.09-1.14-.09h-1.87v2.96h1.87Z"/><path class="e" d="M316.99,284.65c-.49,.37-1.25,.56-2.26,.56-1.16,0-2.05-.26-2.65-.78-.6-.52-.91-1.27-.91-2.25h1.01c0,.74,.21,1.29,.64,1.65,.43,.36,1.07,.54,1.93,.54,.67,0,1.16-.11,1.48-.32,.32-.21,.48-.53,.48-.97,0-.64-.43-1.08-1.3-1.3l-2.16-.56c-1.15-.3-1.72-.95-1.72-1.94,0-.67,.23-1.17,.7-1.53,.47-.35,1.15-.53,2.04-.53,1.04,0,1.83,.24,2.39,.71,.55,.47,.83,1.13,.83,1.97h-1.02c0-1.23-.73-1.84-2.2-1.84-1.16,0-1.73,.39-1.73,1.17,0,.59,.39,.98,1.17,1.19l2.14,.54c.62,.16,1.09,.42,1.4,.76,.31,.35,.47,.78,.47,1.3,0,.71-.25,1.25-.74,1.62Z"/><path class="e" d="M21.68,298.56h-1.93l-1.33-7.46h-.27l-1.3,7.46h-1.95l-1.43-7.74h.99l1.27,6.64-.07,.82h.29l1.32-7.46h2.04l1.31,7.46h.29l-.04-.82,1.24-6.64h.99l-1.41,7.74Z"/><path class="e" d="M25.34,290.82v3.49h4.41v-3.49h1v7.74h-1v-3.38h-4.41v3.38h-1v-7.74h1Z"/><path class="e" d="M32.89,292.64c.29-.6,.72-1.08,1.27-1.42,.55-.34,1.2-.52,1.95-.52s1.39,.17,1.94,.52c.55,.34,.97,.82,1.26,1.42,.29,.6,.44,1.29,.44,2.05s-.15,1.44-.44,2.05c-.29,.6-.71,1.08-1.26,1.43-.55,.35-1.2,.52-1.94,.52s-1.4-.17-1.95-.52-.98-.82-1.27-1.43c-.29-.6-.44-1.29-.44-2.05s.15-1.44,.44-2.05Zm1.25,4.32c.45,.57,1.11,.86,1.97,.86s1.52-.29,1.97-.86c.45-.57,.67-1.33,.67-2.27s-.23-1.7-.67-2.27c-.45-.57-1.11-.85-1.97-.85s-1.52,.28-1.97,.85c-.45,.57-.68,1.32-.68,2.27s.23,1.7,.68,2.27Z"/><path class="e" d="M50.81,298.12c-.49,.37-1.25,.56-2.26,.56-1.16,0-2.05-.26-2.65-.78-.6-.52-.91-1.27-.91-2.25h1.01c0,.74,.21,1.29,.64,1.65,.43,.36,1.07,.54,1.93,.54,.67,0,1.16-.11,1.48-.32,.32-.21,.48-.53,.48-.97,0-.64-.43-1.08-1.3-1.3l-2.16-.56c-1.15-.3-1.72-.95-1.72-1.94,0-.67,.23-1.17,.7-1.53,.47-.35,1.15-.53,2.04-.53,1.04,0,1.83,.24,2.39,.71,.55,.47,.83,1.13,.83,1.97h-1.02c0-1.23-.73-1.84-2.2-1.84-1.16,0-1.73,.39-1.73,1.17,0,.59,.39,.98,1.17,1.19l2.14,.54c.62,.16,1.09,.42,1.4,.76,.31,.35,.47,.78,.47,1.3,0,.71-.25,1.25-.74,1.62Z"/><path class="e" d="M53.08,290.82h5.38v.86h-4.38v2.59h3.83v.83h-3.83v2.6h4.38v.86h-5.38v-7.74Z"/><path class="e" d="M60.05,290.82h5.38v.86h-4.38v2.59h3.83v.83h-3.83v2.6h4.38v.86h-5.38v-7.74Z"/><path class="e" d="M67.02,290.82h1v3.39h.55l3.28-3.39h1.25l-3.63,3.8,3.67,3.94h-1.32l-3.27-3.51h-.53v3.51h-1v-7.74Z"/><path class="e" d="M84.41,290.82v.86h-2.66v6.88h-1v-6.88h-2.67v-.86h6.32Z"/><path class="e" d="M86.85,290.82v3.49h4.41v-3.49h1v7.74h-1v-3.38h-4.41v3.38h-1v-7.74h1Z"/><path class="e" d="M98.46,290.82v.86h-1.73v6.03h1.73v.86h-4.46v-.86h1.73v-6.03h-1.73v-.86h4.46Z"/><path class="e" d="M100.21,290.82h2l3.69,7.46h.27l-.16-.69v-6.77h.99v7.74h-2l-3.68-7.46h-.29l.18,.69v6.77h-1v-7.74Z"/><path class="e" d="M108.85,290.82h1v3.39h.55l3.28-3.39h1.25l-3.63,3.8,3.67,3.94h-1.32l-3.27-3.51h-.53v3.51h-1v-7.74Z"/><path class="e" d="M116.38,290.82h5.38v.86h-4.38v2.59h3.83v.83h-3.83v2.6h4.38v.86h-5.38v-7.74Z"/><path class="e" d="M123.35,290.82h2.87c.99,0,1.74,.15,2.25,.45,.51,.3,.77,.84,.77,1.62,0,.57-.13,1-.4,1.27-.27,.28-.65,.46-1.15,.55v.27h.85c.48,0,.71,.25,.71,.76v2.81h-.99v-3.06h-3.91v3.06h-1v-7.74Zm2.87,3.82c.46,0,.84-.04,1.12-.12,.29-.08,.51-.23,.67-.45,.16-.22,.24-.54,.24-.96s-.08-.74-.24-.94c-.16-.2-.38-.34-.65-.4s-.66-.09-1.14-.09h-1.87v2.96h1.87Z"/><path class="e" d="M136.54,298.12c-.49,.37-1.25,.56-2.26,.56-1.16,0-2.05-.26-2.65-.78-.6-.52-.91-1.27-.91-2.25h1.01c0,.74,.21,1.29,.64,1.65,.43,.36,1.07,.54,1.93,.54,.67,0,1.16-.11,1.48-.32,.32-.21,.48-.53,.48-.97,0-.64-.43-1.08-1.3-1.3l-2.16-.56c-1.15-.3-1.72-.95-1.72-1.94,0-.67,.23-1.17,.7-1.53,.47-.35,1.15-.53,2.04-.53,1.04,0,1.83,.24,2.39,.71,.55,.47,.83,1.13,.83,1.97h-1.02c0-1.23-.73-1.84-2.2-1.84-1.16,0-1.73,.39-1.73,1.17,0,.59,.39,.98,1.17,1.19l2.14,.54c.62,.16,1.09,.42,1.4,.76,.31,.35,.47,.78,.47,1.3,0,.71-.25,1.25-.74,1.62Z"/><path class="e" d="M144.64,290.82h2.14l2.47,7.74h-1.04l-.93-2.96h-3.13l-.93,2.96h-1.03l2.46-7.74Zm2.36,3.92l-1.15-3.64h-.27l-1.15,3.64h2.58Z"/><path class="e" d="M150.6,290.82h2l3.69,7.46h.27l-.16-.69v-6.77h.99v7.74h-2l-3.68-7.46h-.29l.18,.69v6.77h-1v-7.74Z"/><path class="e" d="M159.24,290.82h2.49c.74,0,1.39,.1,1.97,.3,.57,.2,1.04,.58,1.41,1.15,.37,.57,.55,1.38,.55,2.42s-.18,1.86-.55,2.43c-.37,.57-.83,.96-1.41,1.15-.57,.2-1.23,.3-1.97,.3h-2.49v-7.74Zm2.49,6.88c.57,0,1.06-.06,1.47-.19,.41-.13,.75-.41,1.03-.86,.28-.44,.42-1.1,.42-1.97s-.14-1.52-.42-1.96c-.28-.44-.62-.73-1.03-.86s-.9-.19-1.47-.19h-1.49v6.03h1.49Z"/><path class="e" d="M171.21,290.82h2l2.05,7.46h.29l2.05-7.46h1.99v7.74h-1v-6.51l.17-.96h-.27l-2.09,7.46h-2l-2.07-7.46h-.29l.18,.96v6.51h-1v-7.74Z"/><path class="e" d="M183.41,290.82h2.14l2.47,7.74h-1.04l-.93-2.96h-3.13l-.93,2.96h-1.03l2.46-7.74Zm2.36,3.92l-1.15-3.64h-.27l-1.15,3.64h2.58Z"/><path class="e" d="M189.37,290.82h1v3.39h.55l3.28-3.39h1.25l-3.63,3.8,3.67,3.94h-1.32l-3.27-3.51h-.53v3.51h-1v-7.74Z"/><path class="e" d="M196.9,290.82h5.38v.86h-4.38v2.59h3.83v.83h-3.83v2.6h4.38v.86h-5.38v-7.74Z"/><path class="e" d="M203.87,290.82h2.87c.99,0,1.74,.15,2.25,.45,.51,.3,.77,.84,.77,1.62,0,.57-.13,1-.4,1.27-.27,.28-.65,.46-1.15,.55v.27h.85c.48,0,.71,.25,.71,.76v2.81h-.99v-3.06h-3.91v3.06h-1v-7.74Zm2.87,3.82c.46,0,.84-.04,1.12-.12,.29-.08,.51-.23,.67-.45,.16-.22,.24-.54,.24-.96s-.08-.74-.24-.94c-.16-.2-.38-.34-.65-.4s-.66-.09-1.14-.09h-1.87v2.96h1.87Z"/><path class="e" d="M217.06,298.12c-.49,.37-1.25,.56-2.26,.56-1.16,0-2.05-.26-2.65-.78-.6-.52-.91-1.27-.91-2.25h1.01c0,.74,.21,1.29,.64,1.65,.43,.36,1.07,.54,1.93,.54,.67,0,1.16-.11,1.48-.32,.32-.21,.48-.53,.48-.97,0-.64-.43-1.08-1.3-1.3l-2.16-.56c-1.15-.3-1.72-.95-1.72-1.94,0-.67,.23-1.17,.7-1.53,.47-.35,1.15-.53,2.04-.53,1.04,0,1.83,.24,2.39,.71,.55,.47,.83,1.13,.83,1.97h-1.02c0-1.23-.73-1.84-2.2-1.84-1.16,0-1.73,.39-1.73,1.17,0,.59,.39,.98,1.17,1.19l2.14,.54c.62,.16,1.09,.42,1.4,.76,.31,.35,.47,.78,.47,1.3,0,.71-.25,1.25-.74,1.62Z"/><path class="e" d="M230.86,298.56h-1.93l-1.33-7.46h-.27l-1.3,7.46h-1.95l-1.43-7.74h.99l1.27,6.64-.07,.82h.29l1.32-7.46h2.04l1.31,7.46h.29l-.04-.82,1.24-6.64h.99l-1.41,7.74Z"/><path class="e" d="M237.83,290.82v.86h-1.73v6.03h1.73v.86h-4.46v-.86h1.73v-6.03h-1.73v-.86h4.46Z"/><path class="e" d="M245.56,290.82v.86h-2.66v6.88h-1v-6.88h-2.67v-.86h6.32Z"/><path class="e" d="M248,290.82v3.49h4.41v-3.49h1v7.74h-1v-3.38h-4.41v3.38h-1v-7.74h1Z"/><path class="e" d="M259.61,290.82v.86h-1.73v6.03h1.73v.86h-4.46v-.86h1.73v-6.03h-1.73v-.86h4.46Z"/><path class="e" d="M261.35,290.82h2l3.69,7.46h.27l-.16-.69v-6.77h.99v7.74h-2l-3.68-7.46h-.29l.18,.69v6.77h-1v-7.74Z"/><path class="e" d="M14.31,306.11c.29-.6,.72-1.08,1.27-1.42,.55-.34,1.2-.52,1.95-.52s1.39,.17,1.94,.52c.55,.34,.97,.82,1.26,1.42,.29,.6,.44,1.29,.44,2.05s-.15,1.44-.44,2.05c-.29,.6-.71,1.08-1.26,1.43-.55,.35-1.2,.52-1.94,.52s-1.4-.17-1.95-.52-.98-.82-1.27-1.43c-.29-.6-.44-1.29-.44-2.05s.15-1.44,.44-2.05Zm1.25,4.32c.45,.57,1.11,.86,1.97,.86s1.52-.29,1.97-.86c.45-.57,.67-1.33,.67-2.27s-.23-1.7-.67-2.27c-.45-.57-1.11-.85-1.97-.85s-1.52,.28-1.97,.85c-.45,.57-.68,1.32-.68,2.27s.23,1.7,.68,2.27Z"/><path class="e" d="M22.87,304.3h2l3.69,7.46h.27l-.16-.69v-6.77h.99v7.74h-2l-3.68-7.46h-.29l.18,.69v6.77h-1v-7.74Z"/><path class="e" d="M31.51,304.3h5.38v.86h-4.38v2.59h3.83v.83h-3.83v2.6h4.38v.86h-5.38v-7.74Z"/><path class="e" d="M43.94,311.64c-.55-.35-.98-.82-1.27-1.43-.29-.6-.44-1.29-.44-2.05s.15-1.44,.44-2.05c.29-.6,.72-1.08,1.27-1.42,.56-.34,1.21-.52,1.95-.52,1,0,1.8,.28,2.43,.83s.99,1.31,1.11,2.28h-1c-.09-.71-.35-1.26-.79-1.65-.44-.39-1.02-.59-1.75-.59-.85,0-1.5,.28-1.96,.85-.46,.57-.69,1.32-.69,2.27s.23,1.71,.69,2.28c.46,.57,1.12,.85,1.96,.85,.73,0,1.32-.2,1.75-.59,.44-.39,.7-.95,.79-1.66h1c-.12,.97-.49,1.74-1.11,2.29s-1.43,.83-2.43,.83c-.75,0-1.41-.17-1.96-.52Z"/><path class="e" d="M51.14,304.3h2.87c.99,0,1.74,.15,2.25,.45,.51,.3,.77,.84,.77,1.62,0,.57-.13,1-.4,1.27-.27,.28-.65,.46-1.15,.55v.27h.85c.48,0,.71,.25,.71,.76v2.81h-.99v-3.06h-3.91v3.06h-1v-7.74Zm2.87,3.82c.46,0,.84-.04,1.12-.12,.29-.08,.51-.23,.67-.45,.16-.22,.24-.54,.24-.96s-.08-.74-.24-.94c-.16-.2-.38-.34-.65-.4s-.66-.09-1.14-.09h-1.87v2.96h1.87Z"/><path class="e" d="M58.84,304.3h5.38v.86h-4.38v2.59h3.83v.83h-3.83v2.6h4.38v.86h-5.38v-7.74Z"/><path class="e" d="M67.83,304.3h2.14l2.47,7.74h-1.04l-.93-2.96h-3.13l-.93,2.96h-1.03l2.46-7.74Zm2.36,3.92l-1.15-3.64h-.27l-1.15,3.64h2.58Z"/><path class="e" d="M78.74,304.3v.86h-2.66v6.88h-1v-6.88h-2.67v-.86h6.32Z"/><path class="e" d="M84.6,304.3v.86h-1.73v6.03h1.73v.86h-4.46v-.86h1.73v-6.03h-1.73v-.86h4.46Z"/><path class="e" d="M85.85,304.3h1.03l2.36,7.46h.29l2.36-7.46h1.03l-2.47,7.74h-2.14l-2.46-7.74Z"/><path class="e" d="M94.28,304.3h5.38v.86h-4.38v2.59h3.83v.83h-3.83v2.6h4.38v.86h-5.38v-7.74Z"/><path class="e" d="M106.71,311.64c-.55-.35-.98-.82-1.27-1.43-.29-.6-.44-1.29-.44-2.05s.15-1.44,.44-2.05c.29-.6,.72-1.08,1.27-1.42,.56-.34,1.21-.52,1.95-.52,1,0,1.8,.28,2.43,.83s.99,1.31,1.11,2.28h-1c-.09-.71-.35-1.26-.79-1.65-.44-.39-1.02-.59-1.75-.59-.85,0-1.5,.28-1.96,.85-.46,.57-.69,1.32-.69,2.27s.23,1.71,.69,2.28c.46,.57,1.12,.85,1.96,.85,.73,0,1.32-.2,1.75-.59,.44-.39,.7-.95,.79-1.66h1c-.12,.97-.49,1.74-1.11,2.29s-1.43,.83-2.43,.83c-.75,0-1.41-.17-1.96-.52Z"/><path class="e" d="M114.19,306.11c.29-.6,.72-1.08,1.27-1.42,.55-.34,1.2-.52,1.95-.52s1.39,.17,1.94,.52c.55,.34,.97,.82,1.26,1.42,.29,.6,.44,1.29,.44,2.05s-.15,1.44-.44,2.05c-.29,.6-.71,1.08-1.26,1.43-.55,.35-1.2,.52-1.94,.52s-1.4-.17-1.95-.52-.98-.82-1.27-1.43c-.29-.6-.44-1.29-.44-2.05s.15-1.44,.44-2.05Zm1.25,4.32c.45,.57,1.11,.86,1.97,.86s1.52-.29,1.97-.86c.45-.57,.67-1.33,.67-2.27s-.23-1.7-.67-2.27c-.45-.57-1.11-.85-1.97-.85s-1.52,.28-1.97,.85c-.45,.57-.68,1.32-.68,2.27s.23,1.7,.68,2.27Z"/><path class="e" d="M122.76,304.3h2l2.05,7.46h.29l2.05-7.46h1.99v7.74h-1v-6.51l.17-.96h-.27l-2.09,7.46h-2l-2.07-7.46h-.29l.18,.96v6.51h-1v-7.74Z"/><path class="e" d="M132.99,304.3h2.25c1.09,0,1.9,.19,2.43,.57,.53,.38,.8,1.04,.8,1.99s-.27,1.61-.8,1.99c-.53,.38-1.34,.58-2.43,.58h-1.25v2.61h-1v-7.74Zm2.28,4.27c.48,0,.87-.05,1.19-.14,.31-.09,.56-.26,.75-.51,.18-.25,.27-.6,.27-1.06s-.09-.82-.27-1.06c-.18-.25-.43-.42-.75-.51-.31-.09-.71-.13-1.19-.13h-1.28v3.41h1.28Z"/><path class="e" d="M141.45,304.3h2.14l2.47,7.74h-1.04l-.93-2.96h-3.13l-.93,2.96h-1.03l2.46-7.74Zm2.36,3.92l-1.15-3.64h-.27l-1.15,3.64h2.58Z"/><path class="e" d="M147.41,304.3h2l3.69,7.46h.27l-.16-.69v-6.77h.99v7.74h-2l-3.68-7.46h-.29l.18,.69v6.77h-1v-7.74Z"/><path class="e" d="M162.14,304.3l-2.31,4.48h-.52v3.26h-.99v-3.26h-.52l-2.29-4.48h1.05l2.11,4.21h.29l2.11-4.21h1.06Z"/><path class="e" d="M162.09,311.88c-.18-.18-.27-.4-.27-.66s.09-.48,.27-.66c.18-.17,.4-.26,.66-.26s.49,.09,.67,.27,.27,.4,.27,.65-.09,.48-.27,.66c-.18,.18-.41,.27-.67,.27s-.48-.09-.66-.27Z"/></g><rect class="h" x="78.52" y="300.12" width="59.38" height=".47"/><rect class="h" x="170.78" y="300.12" width="47.24" height=".47"/></g></g></g></svg>