<?xml version="1.0" encoding="UTF-8"?><svg xmlns="http://www.w3.org/2000/svg" viewBox="0 0 1313.31 701.97"><defs><style>.d{fill:#f84a1e;}.e{fill:#cdcdcd;}.f{fill:#bbb;}.g,.h{fill:#d0d0d0;}.i{fill:#d6ff45;}.j{fill:#232323;}.k{fill:#262626;}.l{opacity:.8;}.h{opacity:.9;}</style></defs><g id="a"/><g id="b"><g id="c"><rect class="j" width="1313.31" height="701.97"/><g class="l"><path class="f" d="M50.38,646.18l-24,.09,.35-5.76,33.69-.09-.17,33.6-5.67,.44,.09-24.35-27.06,27.06-4.02-4.1,26.8-26.88Z"/></g><g><rect class="i" x="291.19" y="264.66" width="251.09" height="49.54"/><g><path class="g" d="M107.26,214.89v1.37h-7.64v31.76h7.64v1.37h-16.98v-1.37h7.64v-31.76h-7.64v-1.37h16.98Z"/><path class="g" d="M113.47,225.32h1.71v4.94l-.2,1.81h.69c.55-2.25,1.67-4.02,3.35-5.31,1.68-1.29,3.81-1.93,6.39-1.93s4.52,.78,5.92,2.32c1.4,1.55,2.1,3.76,2.1,6.63v15.61h-1.71v-15.66c0-2.61-.56-4.52-1.69-5.73-1.13-1.21-2.83-1.81-5.11-1.81-1.96,0-3.68,.55-5.16,1.64-1.49,1.09-2.62,2.55-3.4,4.38-.78,1.83-1.17,3.8-1.17,5.92v11.26h-1.71v-24.08Z"/><path class="g" d="M152.87,249.4h-8.08c-.65,0-1.13-.15-1.42-.44-.29-.29-.44-.77-.44-1.42v-20.85h-5.04v-1.37h5.04v-7.24l1.71-.49v7.73h7.24v1.37h-7.24v21.34h8.22v1.37Z"/><path class="g" d="M159.01,228.01c1.94-2.12,4.53-3.18,7.76-3.18s5.94,1.04,7.93,3.11c1.99,2.07,2.99,4.95,2.99,8.64v1.03h-19.87c.06,3.26,.9,5.9,2.5,7.91,1.6,2.01,4.01,3.01,7.24,3.01,2.22,0,4.05-.67,5.51-2.01,1.45-1.34,2.45-3.16,3.01-5.48h1.71c-.75,2.54-1.88,4.66-3.38,6.34-1.5,1.68-3.79,2.52-6.85,2.52-3.85,0-6.72-1.22-8.61-3.67-1.89-2.45-2.84-5.53-2.84-9.25s.97-6.83,2.91-8.96Zm16.96,8.22c0-3.13-.84-5.59-2.52-7.37-1.68-1.78-3.91-2.67-6.68-2.67-1.7,0-3.21,.4-4.55,1.2-1.34,.8-2.4,1.96-3.18,3.47-.78,1.52-1.19,3.3-1.22,5.36h18.16Z"/><path class="g" d="M184.88,225.76c.29-.29,.77-.44,1.42-.44h12.87v1.37h-13.02v22.71h-1.71v-22.22c0-.65,.15-1.12,.44-1.42Z"/><path class="g" d="M206.83,248.35c-1.75-1.03-3.12-2.49-4.14-4.38-1.01-1.89-1.52-4.09-1.52-6.61s.51-4.71,1.52-6.61c1.01-1.89,2.39-3.35,4.14-4.38,1.75-1.03,3.68-1.54,5.8-1.54,2.55,0,4.76,.65,6.66,1.96,1.89,1.31,3.2,3.02,3.92,5.14h.64l-.15-1.81v-16.69h1.71v35.97h-1.71v-4.8l.15-1.76h-.64c-.72,2.09-2.02,3.79-3.92,5.09-1.89,1.31-4.11,1.96-6.66,1.96-2.12,0-4.05-.51-5.8-1.54Zm-2.57-4.8c.91,1.68,2.13,2.93,3.65,3.74,1.52,.82,3.17,1.22,4.97,1.22s3.51-.43,5.14-1.3c1.63-.86,2.96-2.14,3.99-3.82s1.54-3.7,1.54-6.04-.51-4.36-1.54-6.04c-1.03-1.68-2.36-2.95-3.99-3.82-1.63-.86-3.34-1.3-5.14-1.3s-3.45,.42-4.97,1.25c-1.52,.83-2.73,2.09-3.65,3.77-.91,1.68-1.37,3.73-1.37,6.14s.46,4.51,1.37,6.19Z"/><path class="g" d="M231.28,248.03h6.66v-21.34h-4.36v-1.37h4.26c.65,0,1.12,.12,1.39,.37,.28,.24,.42,.64,.42,1.2v21.14h6.66v1.37h-15.03v-1.37Zm5.36-29.61c-.44-.46-.66-1.01-.66-1.66s.22-1.21,.66-1.66c.44-.46,1-.69,1.69-.69s1.25,.23,1.69,.69c.44,.46,.66,1.01,.66,1.66s-.22,1.21-.66,1.66c-.44,.46-1,.69-1.69,.69s-1.25-.23-1.69-.69Z"/><path class="g" d="M252.47,247.37c-1.79-1.68-2.69-3.99-2.69-6.93h1.71c0,2.51,.75,4.49,2.25,5.92,1.5,1.44,3.56,2.15,6.17,2.15,2.06,0,3.66-.45,4.82-1.35s1.74-2.18,1.74-3.84c0-1.17-.36-2.13-1.08-2.86-.72-.73-1.91-1.36-3.57-1.88l-5.63-1.71c-1.63-.49-2.92-1.19-3.87-2.1-.95-.91-1.42-2.14-1.42-3.67,0-1.96,.71-3.49,2.13-4.6s3.37-1.66,5.85-1.66c2.68,0,4.78,.68,6.31,2.06,1.53,1.37,2.3,3.25,2.3,5.63h-1.71c0-1.96-.61-3.5-1.83-4.62-1.22-1.13-2.9-1.69-5.02-1.69-1.96,0-3.5,.45-4.62,1.35-1.13,.9-1.69,2.15-1.69,3.74,0,1.89,1.37,3.26,4.11,4.11l5.63,1.76c2.09,.65,3.58,1.48,4.48,2.47,.9,1,1.35,2.24,1.35,3.74,0,2.06-.73,3.66-2.2,4.8-1.47,1.14-3.49,1.71-6.07,1.71-3.17,0-5.65-.84-7.44-2.52Z"/><path class="g" d="M274.59,231.24c.88-1.92,2.19-3.47,3.94-4.65s3.84-1.76,6.29-1.76,4.69,.66,6.73,1.98c2.04,1.32,3.24,3.7,3.6,7.12h-1.66c-.36-2.81-1.33-4.8-2.91-5.97-1.58-1.17-3.5-1.76-5.75-1.76-2.12,0-3.92,.51-5.38,1.54-1.47,1.03-2.58,2.39-3.33,4.09-.75,1.7-1.13,3.54-1.13,5.53s.37,3.83,1.1,5.53c.73,1.7,1.84,3.06,3.33,4.09,1.48,1.03,3.29,1.54,5.41,1.54,2.25,0,4.17-.59,5.75-1.76,1.58-1.17,2.55-3.17,2.91-5.97h1.66c-.36,3.43-1.56,5.8-3.6,7.12-2.04,1.32-4.28,1.98-6.73,1.98s-4.58-.59-6.31-1.76-3.03-2.72-3.92-4.62c-.88-1.91-1.32-3.96-1.32-6.14s.44-4.19,1.32-6.12Z"/><path class="g" d="M298.82,248.03h6.66v-21.34h-4.36v-1.37h4.26c.65,0,1.12,.12,1.39,.37,.28,.24,.42,.64,.42,1.2v21.14h6.66v1.37h-15.03v-1.37Zm5.36-29.61c-.44-.46-.66-1.01-.66-1.66s.22-1.21,.66-1.66c.44-.46,1-.69,1.69-.69s1.25,.23,1.69,.69c.44,.46,.66,1.01,.66,1.66s-.22,1.21-.66,1.66c-.44,.46-1,.69-1.69,.69s-1.25-.23-1.69-.69Z"/><path class="g" d="M319.03,225.32h1.71v4.8l-.15,1.76h.64c.72-2.09,2.02-3.79,3.92-5.09,1.89-1.3,4.11-1.96,6.66-1.96,2.12,0,4.05,.51,5.8,1.54,1.75,1.03,3.12,2.49,4.14,4.38,1.01,1.89,1.52,4.09,1.52,6.61s-.51,4.71-1.52,6.61c-1.01,1.89-2.39,3.35-4.14,4.38-1.75,1.03-3.68,1.54-5.8,1.54-2.54,0-4.76-.65-6.66-1.96-1.89-1.3-3.2-3.02-3.92-5.14h-.64l.15,1.81v13.26h-1.71v-32.55Zm3.4,18.08c1.03,1.68,2.36,2.95,3.99,3.82,1.63,.86,3.34,1.3,5.14,1.3s3.45-.42,4.97-1.25c1.52-.83,2.73-2.09,3.65-3.77,.91-1.68,1.37-3.73,1.37-6.14s-.46-4.51-1.37-6.19c-.91-1.68-2.13-2.93-3.65-3.74-1.52-.82-3.17-1.22-4.97-1.22s-3.51,.43-5.14,1.3c-1.63,.87-2.96,2.14-3.99,3.82-1.03,1.68-1.54,3.7-1.54,6.04s.51,4.36,1.54,6.04Z"/><path class="g" d="M345.22,248.03h6.8v-33.23h-4.5v-1.37h4.75c.46,0,.81,.12,1.08,.37,.26,.25,.39,.58,.39,1v33.23h6.75v1.37h-15.27v-1.37Z"/><path class="g" d="M364.16,248.03h6.66v-21.34h-4.36v-1.37h4.26c.65,0,1.12,.12,1.39,.37,.28,.24,.42,.64,.42,1.2v21.14h6.66v1.37h-15.03v-1.37Zm5.36-29.61c-.44-.46-.66-1.01-.66-1.66s.22-1.21,.66-1.66c.44-.46,1-.69,1.69-.69s1.25,.23,1.69,.69c.44,.46,.66,1.01,.66,1.66s-.22,1.21-.66,1.66c-.44,.46-1,.69-1.69,.69s-1.25-.23-1.69-.69Z"/><path class="g" d="M384.37,225.32h1.71v4.94l-.2,1.81h.69c.55-2.25,1.67-4.02,3.35-5.31,1.68-1.29,3.81-1.93,6.39-1.93s4.52,.78,5.92,2.32c1.4,1.55,2.1,3.76,2.1,6.63v15.61h-1.71v-15.66c0-2.61-.56-4.52-1.69-5.73-1.13-1.21-2.83-1.81-5.11-1.81-1.96,0-3.68,.55-5.16,1.64-1.49,1.09-2.62,2.55-3.4,4.38-.78,1.83-1.17,3.8-1.17,5.92v11.26h-1.71v-24.08Z"/><path class="g" d="M412.81,237.9c1.3-1.17,3.15-1.84,5.53-2.01l10.38-.78c0-2.77-.77-4.95-2.3-6.53-1.53-1.58-3.49-2.37-5.87-2.37-2.09,0-3.88,.6-5.38,1.79-1.5,1.19-2.25,3.08-2.25,5.65h-1.71c0-1.44,.34-2.83,1.03-4.18,.69-1.35,1.72-2.46,3.11-3.33,1.39-.86,3.09-1.3,5.11-1.3,2.22,0,4.06,.5,5.53,1.49,1.47,1,2.54,2.3,3.23,3.92s1.03,3.4,1.03,5.36v12.43h3.57v1.37h-3.03c-.69,0-1.17-.2-1.44-.59-.28-.39-.42-.98-.42-1.76v-2.99l.29-2.3h-.69c-.65,2.38-1.82,4.33-3.5,5.85-1.68,1.52-3.89,2.28-6.63,2.28-2.42,0-4.27-.61-5.58-1.83-1.31-1.22-1.96-2.93-1.96-5.12s.65-3.87,1.96-5.04Zm1.3,9.15c1.03,.98,2.5,1.47,4.43,1.47,2.22,0,4.09-.63,5.63-1.88,1.53-1.26,2.67-2.81,3.43-4.67,.75-1.86,1.13-3.69,1.13-5.48l-10.23,.78c-1.93,.16-3.39,.72-4.4,1.66-1.01,.95-1.52,2.28-1.52,4.01s.51,3.13,1.54,4.11Z"/><path class="g" d="M439.73,225.76c.29-.29,.77-.44,1.42-.44h12.87v1.37h-13.02v22.71h-1.71v-22.22c0-.65,.15-1.12,.44-1.42Z"/><path class="g" d="M479.08,256.2c0,1.5-.93,2.25-2.79,2.25h-16.93v-1.37h18.01v-12.63l.2-1.81h-.69c-.56,2.25-1.67,4.02-3.35,5.31-1.68,1.29-3.81,1.93-6.39,1.93s-4.52-.77-5.92-2.32c-1.4-1.55-2.1-3.76-2.1-6.63v-15.61h1.71v15.66c0,2.61,.56,4.52,1.69,5.73,1.13,1.21,2.83,1.81,5.11,1.81,1.96,0,3.68-.55,5.16-1.64,1.48-1.09,2.62-2.55,3.4-4.38,.78-1.83,1.17-3.8,1.17-5.92v-11.26h1.71v30.88Z"/><path class="g" d="M508.66,248.35c-1.75-1.03-3.12-2.49-4.14-4.38-1.01-1.89-1.52-4.09-1.52-6.61s.51-4.71,1.52-6.61c1.01-1.89,2.39-3.35,4.14-4.38,1.75-1.03,3.68-1.54,5.8-1.54,2.55,0,4.76,.65,6.66,1.96,1.89,1.31,3.2,3.02,3.92,5.14h.64l-.15-1.81v-16.69h1.71v35.97h-1.71v-4.8l.15-1.76h-.64c-.72,2.09-2.02,3.79-3.92,5.09-1.89,1.31-4.11,1.96-6.66,1.96-2.12,0-4.05-.51-5.8-1.54Zm-2.57-4.8c.91,1.68,2.13,2.93,3.65,3.74,1.52,.82,3.17,1.22,4.97,1.22s3.51-.43,5.14-1.3c1.63-.86,2.96-2.14,3.99-3.82s1.54-3.7,1.54-6.04-.51-4.36-1.54-6.04c-1.03-1.68-2.36-2.95-3.99-3.82-1.63-.86-3.34-1.3-5.14-1.3s-3.45,.42-4.97,1.25c-1.52,.83-2.73,2.09-3.65,3.77-.91,1.68-1.37,3.73-1.37,6.14s.46,4.51,1.37,6.19Z"/><path class="g" d="M536.81,228.01c1.94-2.12,4.53-3.18,7.76-3.18s5.94,1.04,7.93,3.11c1.99,2.07,2.99,4.95,2.99,8.64v1.03h-19.87c.06,3.26,.9,5.9,2.5,7.91,1.6,2.01,4.01,3.01,7.24,3.01,2.22,0,4.05-.67,5.51-2.01,1.45-1.34,2.45-3.16,3.01-5.48h1.71c-.75,2.54-1.88,4.66-3.38,6.34-1.5,1.68-3.79,2.52-6.85,2.52-3.85,0-6.72-1.22-8.61-3.67-1.89-2.45-2.84-5.53-2.84-9.25s.97-6.83,2.91-8.96Zm16.96,8.22c0-3.13-.84-5.59-2.52-7.37-1.68-1.78-3.91-2.67-6.68-2.67-1.7,0-3.21,.4-4.55,1.2-1.34,.8-2.4,1.96-3.18,3.47-.78,1.52-1.19,3.3-1.22,5.36h18.16Z"/><path class="g" d="M563.45,247.37c-1.79-1.68-2.69-3.99-2.69-6.93h1.71c0,2.51,.75,4.49,2.25,5.92,1.5,1.44,3.56,2.15,6.17,2.15,2.06,0,3.66-.45,4.82-1.35s1.74-2.18,1.74-3.84c0-1.17-.36-2.13-1.08-2.86-.72-.73-1.91-1.36-3.57-1.88l-5.63-1.71c-1.63-.49-2.92-1.19-3.87-2.1-.95-.91-1.42-2.14-1.42-3.67,0-1.96,.71-3.49,2.13-4.6s3.37-1.66,5.85-1.66c2.68,0,4.78,.68,6.31,2.06,1.53,1.37,2.3,3.25,2.3,5.63h-1.71c0-1.96-.61-3.5-1.83-4.62-1.22-1.13-2.9-1.69-5.02-1.69-1.96,0-3.5,.45-4.62,1.35-1.13,.9-1.69,2.15-1.69,3.74,0,1.89,1.37,3.26,4.11,4.11l5.63,1.76c2.09,.65,3.58,1.48,4.48,2.47,.9,1,1.35,2.24,1.35,3.74,0,2.06-.73,3.66-2.2,4.8-1.47,1.14-3.49,1.71-6.07,1.71-3.17,0-5.65-.84-7.44-2.52Z"/><path class="g" d="M583.62,248.03h6.66v-21.34h-4.36v-1.37h4.26c.65,0,1.12,.12,1.39,.37,.28,.24,.42,.64,.42,1.2v21.14h6.66v1.37h-15.03v-1.37Zm5.36-29.61c-.44-.46-.66-1.01-.66-1.66s.22-1.21,.66-1.66c.44-.46,1-.69,1.69-.69s1.25,.23,1.69,.69c.44,.46,.66,1.01,.66,1.66s-.22,1.21-.66,1.66c-.44,.46-1,.69-1.69,.69s-1.25-.23-1.69-.69Z"/><path class="g" d="M606.3,248.35c-1.75-1.03-3.12-2.49-4.14-4.38-1.01-1.89-1.52-4.09-1.52-6.61s.51-4.71,1.52-6.61c1.01-1.89,2.39-3.35,4.14-4.38,1.75-1.03,3.68-1.54,5.8-1.54,2.55,0,4.76,.65,6.66,1.96,1.89,1.31,3.2,3.02,3.92,5.14h.64l-.15-1.81v-4.8h1.71v30.88c0,1.5-.93,2.25-2.79,2.25h-16.93v-1.37h18.01v-12.48l.15-1.76h-.64c-.72,2.09-2.02,3.79-3.92,5.09-1.89,1.31-4.11,1.96-6.66,1.96-2.12,0-4.05-.51-5.8-1.54Zm-2.57-4.8c.91,1.68,2.13,2.93,3.65,3.74,1.52,.82,3.17,1.22,4.97,1.22s3.51-.43,5.14-1.3c1.63-.86,2.96-2.14,3.99-3.82s1.54-3.7,1.54-6.04-.51-4.36-1.54-6.04c-1.03-1.68-2.36-2.95-3.99-3.82-1.63-.86-3.34-1.3-5.14-1.3s-3.45,.42-4.97,1.25c-1.52,.83-2.73,2.09-3.65,3.77-.91,1.68-1.37,3.73-1.37,6.14s.46,4.51,1.37,6.19Z"/><path class="g" d="M632.27,225.32h1.71v4.94l-.2,1.81h.69c.55-2.25,1.67-4.02,3.35-5.31,1.68-1.29,3.81-1.93,6.39-1.93s4.52,.78,5.92,2.32c1.4,1.55,2.1,3.76,2.1,6.63v15.61h-1.71v-15.66c0-2.61-.56-4.52-1.69-5.73-1.13-1.21-2.83-1.81-5.11-1.81-1.96,0-3.68,.55-5.16,1.64-1.49,1.09-2.62,2.55-3.4,4.38-.78,1.83-1.17,3.8-1.17,5.92v11.26h-1.71v-24.08Z"/><path class="g" d="M678.72,247.37c-1.79-1.68-2.69-3.99-2.69-6.93h1.71c0,2.51,.75,4.49,2.25,5.92,1.5,1.44,3.56,2.15,6.17,2.15,2.06,0,3.66-.45,4.82-1.35s1.74-2.18,1.74-3.84c0-1.17-.36-2.13-1.08-2.86-.72-.73-1.91-1.36-3.57-1.88l-5.63-1.71c-1.63-.49-2.92-1.19-3.87-2.1-.95-.91-1.42-2.14-1.42-3.67,0-1.96,.71-3.49,2.13-4.6s3.37-1.66,5.85-1.66c2.68,0,4.78,.68,6.31,2.06,1.53,1.37,2.3,3.25,2.3,5.63h-1.71c0-1.96-.61-3.5-1.83-4.62-1.22-1.13-2.9-1.69-5.02-1.69-1.96,0-3.5,.45-4.62,1.35-1.13,.9-1.69,2.15-1.69,3.74,0,1.89,1.37,3.26,4.11,4.11l5.63,1.76c2.09,.65,3.58,1.48,4.48,2.47,.9,1,1.35,2.24,1.35,3.74,0,2.06-.73,3.66-2.2,4.8-1.47,1.14-3.49,1.71-6.07,1.71-3.17,0-5.65-.84-7.44-2.52Z"/><path class="g" d="M712.93,249.4h-8.08c-.65,0-1.13-.15-1.42-.44-.29-.29-.44-.77-.44-1.42v-20.85h-5.04v-1.37h5.04v-7.24l1.71-.49v7.73h7.24v1.37h-7.24v21.34h8.22v1.37Z"/><path class="g" d="M720.12,247.56c-1.4-1.55-2.1-3.76-2.1-6.63v-15.61h1.71v15.66c0,2.61,.56,4.52,1.69,5.73,1.13,1.21,2.83,1.81,5.11,1.81,1.96,0,3.68-.55,5.16-1.64,1.48-1.09,2.62-2.55,3.4-4.38,.78-1.83,1.17-3.8,1.17-5.92v-11.26h1.71v24.08h-1.71v-4.94l.2-1.81h-.69c-.56,2.25-1.67,4.02-3.35,5.31-1.68,1.29-3.81,1.93-6.39,1.93s-4.52-.77-5.92-2.32Z"/><path class="g" d="M750.29,248.35c-1.75-1.03-3.12-2.49-4.14-4.38-1.01-1.89-1.52-4.09-1.52-6.61s.51-4.71,1.52-6.61c1.01-1.89,2.39-3.35,4.14-4.38,1.75-1.03,3.68-1.54,5.8-1.54,2.55,0,4.76,.65,6.66,1.96,1.89,1.31,3.2,3.02,3.92,5.14h.64l-.15-1.81v-16.69h1.71v35.97h-1.71v-4.8l.15-1.76h-.64c-.72,2.09-2.02,3.79-3.92,5.09-1.89,1.31-4.11,1.96-6.66,1.96-2.12,0-4.05-.51-5.8-1.54Zm-2.57-4.8c.91,1.68,2.13,2.93,3.65,3.74,1.52,.82,3.17,1.22,4.97,1.22s3.51-.43,5.14-1.3c1.63-.86,2.96-2.14,3.99-3.82s1.54-3.7,1.54-6.04-.51-4.36-1.54-6.04c-1.03-1.68-2.36-2.95-3.99-3.82-1.63-.86-3.34-1.3-5.14-1.3s-3.45,.42-4.97,1.25c-1.52,.83-2.73,2.09-3.65,3.77-.91,1.68-1.37,3.73-1.37,6.14s.46,4.51,1.37,6.19Z"/><path class="g" d="M774.74,248.03h6.66v-21.34h-4.36v-1.37h4.26c.65,0,1.12,.12,1.39,.37,.28,.24,.42,.64,.42,1.2v21.14h6.66v1.37h-15.03v-1.37Zm5.36-29.61c-.44-.46-.66-1.01-.66-1.66s.22-1.21,.66-1.66c.44-.46,1-.69,1.69-.69s1.25,.23,1.69,.69c.44,.46,.66,1.01,.66,1.66s-.22,1.21-.66,1.66c-.44,.46-1,.69-1.69,.69s-1.25-.23-1.69-.69Z"/><path class="g" d="M792.85,231.29c.95-1.92,2.34-3.48,4.18-4.67,1.84-1.19,4.04-1.79,6.58-1.79s4.69,.6,6.53,1.79c1.84,1.19,3.25,2.75,4.21,4.67,.96,1.93,1.44,3.95,1.44,6.07s-.48,4.14-1.44,6.07c-.96,1.92-2.37,3.48-4.21,4.67-1.84,1.19-4.02,1.79-6.53,1.79s-4.74-.59-6.58-1.79c-1.84-1.19-3.24-2.75-4.18-4.67-.95-1.92-1.42-3.95-1.42-6.07s.47-4.14,1.42-6.07Zm1.49,11.45c.8,1.7,1.99,3.08,3.57,4.16,1.58,1.08,3.48,1.62,5.7,1.62s4.12-.54,5.7-1.62c1.58-1.08,2.77-2.46,3.57-4.16,.8-1.7,1.2-3.49,1.2-5.38s-.4-3.65-1.2-5.36c-.8-1.71-1.99-3.11-3.57-4.18-1.58-1.08-3.48-1.62-5.7-1.62s-4.12,.54-5.7,1.62c-1.58,1.08-2.77,2.47-3.57,4.18-.8,1.71-1.2,3.5-1.2,5.36s.4,3.69,1.2,5.38Z"/><path class="g" d="M91.35,286.99c.88-1.92,2.19-3.47,3.94-4.65s3.84-1.76,6.29-1.76,4.69,.66,6.73,1.98c2.04,1.32,3.24,3.7,3.6,7.12h-1.66c-.36-2.81-1.33-4.8-2.91-5.97-1.58-1.17-3.5-1.76-5.75-1.76-2.12,0-3.92,.51-5.38,1.54-1.47,1.03-2.58,2.39-3.33,4.09-.75,1.7-1.13,3.54-1.13,5.53s.37,3.83,1.1,5.53c.73,1.7,1.84,3.06,3.33,4.09,1.48,1.03,3.29,1.54,5.41,1.54,2.25,0,4.17-.59,5.75-1.76,1.58-1.17,2.55-3.17,2.91-5.97h1.66c-.36,3.43-1.56,5.8-3.6,7.12-2.04,1.32-4.28,1.98-6.73,1.98s-4.58-.59-6.31-1.76-3.03-2.72-3.92-4.62c-.88-1.91-1.32-3.96-1.32-6.14s.44-4.19,1.32-6.12Z"/><path class="g" d="M119,281.51c.29-.29,.77-.44,1.42-.44h12.87v1.37h-13.02v22.71h-1.71v-22.22c0-.65,.15-1.12,.44-1.42Z"/><path class="g" d="M138.8,283.76c1.94-2.12,4.53-3.18,7.76-3.18s5.94,1.04,7.93,3.11c1.99,2.07,2.99,4.95,2.99,8.64v1.03h-19.87c.06,3.26,.9,5.9,2.5,7.91,1.6,2.01,4.01,3.01,7.24,3.01,2.22,0,4.05-.67,5.51-2.01,1.45-1.34,2.45-3.16,3.01-5.48h1.71c-.75,2.54-1.88,4.66-3.38,6.34-1.5,1.68-3.79,2.52-6.85,2.52-3.85,0-6.72-1.22-8.61-3.67-1.89-2.45-2.84-5.53-2.84-9.25s.97-6.83,2.91-8.96Zm16.96,8.22c0-3.13-.84-5.59-2.52-7.37-1.68-1.78-3.91-2.67-6.68-2.67-1.7,0-3.21,.4-4.55,1.2-1.34,.8-2.4,1.96-3.18,3.47-.78,1.52-1.19,3.3-1.22,5.36h18.16Z"/><path class="g" d="M165.2,293.65c1.3-1.17,3.15-1.84,5.53-2.01l10.38-.78c0-2.77-.77-4.95-2.3-6.53-1.53-1.58-3.49-2.37-5.87-2.37-2.09,0-3.88,.6-5.38,1.79-1.5,1.19-2.25,3.08-2.25,5.65h-1.71c0-1.44,.34-2.83,1.03-4.18,.69-1.35,1.72-2.46,3.11-3.33,1.39-.86,3.09-1.3,5.11-1.3,2.22,0,4.06,.5,5.53,1.49,1.47,1,2.54,2.3,3.23,3.92s1.03,3.4,1.03,5.36v12.43h3.57v1.37h-3.03c-.69,0-1.17-.2-1.44-.59-.28-.39-.42-.98-.42-1.76v-2.99l.29-2.3h-.69c-.65,2.38-1.82,4.33-3.5,5.85-1.68,1.52-3.89,2.28-6.63,2.28-2.42,0-4.27-.61-5.58-1.83-1.31-1.22-1.96-2.93-1.96-5.12s.65-3.87,1.96-5.04Zm1.3,9.15c1.03,.98,2.5,1.47,4.43,1.47,2.22,0,4.09-.63,5.63-1.88,1.53-1.26,2.67-2.81,3.43-4.67,.75-1.86,1.13-3.69,1.13-5.48l-10.23,.78c-1.93,.16-3.39,.72-4.4,1.66-1.01,.95-1.52,2.28-1.52,4.01s.51,3.13,1.54,4.11Z"/><path class="g" d="M202.6,305.15h-8.08c-.65,0-1.13-.15-1.42-.44-.29-.29-.44-.77-.44-1.42v-20.85h-5.04v-1.37h5.04v-7.24l1.71-.49v7.73h7.24v1.37h-7.24v21.34h8.22v1.37Z"/><path class="g" d="M207.05,303.78h6.66v-21.34h-4.36v-1.37h4.26c.65,0,1.12,.12,1.39,.37,.28,.24,.42,.64,.42,1.2v21.14h6.66v1.37h-15.03v-1.37Zm5.36-29.61c-.44-.46-.66-1.01-.66-1.66s.22-1.21,.66-1.66c.44-.46,1-.69,1.69-.69s1.25,.23,1.69,.69c.44,.46,.66,1.01,.66,1.66s-.22,1.21-.66,1.66c-.44,.46-1,.69-1.69,.69s-1.25-.23-1.69-.69Z"/><path class="g" d="M227.26,281.07h1.71v4.94l-.2,1.81h.69c.55-2.25,1.67-4.02,3.35-5.31,1.68-1.29,3.81-1.93,6.39-1.93s4.52,.78,5.92,2.32c1.4,1.55,2.1,3.76,2.1,6.63v15.61h-1.71v-15.66c0-2.61-.56-4.52-1.69-5.73-1.13-1.21-2.83-1.81-5.11-1.81-1.96,0-3.68,.55-5.16,1.64-1.49,1.09-2.62,2.55-3.4,4.38-.78,1.83-1.17,3.8-1.17,5.92v11.26h-1.71v-24.08Z"/><path class="g" d="M259.1,304.1c-1.75-1.03-3.12-2.49-4.14-4.38-1.01-1.89-1.52-4.09-1.52-6.61s.51-4.71,1.52-6.61c1.01-1.89,2.39-3.35,4.14-4.38,1.75-1.03,3.68-1.54,5.8-1.54,2.55,0,4.76,.65,6.66,1.96,1.89,1.31,3.2,3.02,3.92,5.14h.64l-.15-1.81v-4.8h1.71v30.88c0,1.5-.93,2.25-2.79,2.25h-16.93v-1.37h18.01v-12.48l.15-1.76h-.64c-.72,2.09-2.02,3.79-3.92,5.09-1.89,1.31-4.11,1.96-6.66,1.96-2.12,0-4.05-.51-5.8-1.54Zm-2.57-4.8c.91,1.68,2.13,2.93,3.65,3.74,1.52,.82,3.17,1.22,4.97,1.22s3.51-.43,5.14-1.3c1.63-.86,2.96-2.14,3.99-3.82s1.54-3.7,1.54-6.04-.51-4.36-1.54-6.04c-1.03-1.68-2.36-2.95-3.99-3.82-1.63-.86-3.34-1.3-5.14-1.3s-3.45,.42-4.97,1.25c-1.52,.83-2.73,2.09-3.65,3.77-.91,1.68-1.37,3.73-1.37,6.14s.46,4.51,1.37,6.19Z"/><path class="k" d="M316.98,305.15h-8.37c-.91,0-1.59-.22-2.03-.66s-.66-1.12-.66-2.03v-19.23h-5.14v-2.25h5.14v-6.85l2.69-.78v7.64h7.39v2.25h-7.39v19.72l8.37-.05v2.25Z"/><path class="k" d="M322.95,269.17h2.64v16.45l-.39,2.2h.88c.55-2.25,1.67-4.04,3.35-5.36,1.68-1.32,3.79-1.98,6.34-1.98s4.69,.82,6.14,2.45c1.45,1.63,2.18,3.95,2.18,6.95v15.27h-2.64v-15.12c0-2.54-.53-4.4-1.59-5.55-1.06-1.16-2.7-1.74-4.92-1.74-1.89,0-3.55,.51-4.97,1.52-1.42,1.01-2.5,2.39-3.25,4.14-.75,1.75-1.13,3.7-1.13,5.85v10.91h-2.64v-35.97Z"/><path class="k" d="M353.15,283.69c1.99-2.14,4.67-3.21,8.03-3.21s6.16,1.04,8.2,3.11c2.04,2.07,3.06,4.95,3.06,8.64v1.27h-19.72c.06,2.97,.84,5.36,2.32,7.17,1.48,1.81,3.68,2.72,6.58,2.72,2.22,0,4.02-.59,5.41-1.76,1.39-1.17,2.34-2.81,2.86-4.89h2.64c-1.57,5.94-5.19,8.91-10.87,8.91-2.54,0-4.68-.58-6.41-1.74-1.73-1.16-3.01-2.72-3.84-4.67-.83-1.96-1.25-4.14-1.25-6.56,0-3.85,1-6.84,2.99-8.98Zm16.69,7.61c-.13-2.71-.97-4.81-2.52-6.31-1.55-1.5-3.6-2.25-6.14-2.25-2.38,0-4.36,.76-5.92,2.28-1.57,1.52-2.42,3.61-2.54,6.29h17.13Z"/><path class="k" d="M394.89,280.97h5.63v-4.75c0-2.22,.55-3.95,1.64-5.19,1.09-1.24,2.83-1.86,5.21-1.86h4.21v2.2h-4.11c-1.6,0-2.72,.39-3.35,1.17s-.95,2.02-.95,3.72v4.7h7.05v2.25h-7.05v19.68h7.05v2.25h-15.32v-2.25h5.63v-19.68h-5.63v-2.25Z"/><path class="k" d="M418.02,303.26c-1.52-1.58-2.28-3.91-2.28-6.97v-15.32h2.69v15.12c0,2.58,.54,4.44,1.62,5.58s2.71,1.71,4.89,1.71c1.83,0,3.45-.49,4.87-1.47,1.42-.98,2.52-2.32,3.3-4.04,.78-1.71,1.17-3.63,1.17-5.75v-11.16h2.64v24.18h-2.64v-4.65l.39-2.2h-.88c-.52,2.29-1.59,4.08-3.21,5.38-1.62,1.31-3.71,1.96-6.29,1.96s-4.77-.79-6.29-2.37Z"/><path class="k" d="M458.32,305.15h-8.37c-.91,0-1.59-.22-2.03-.66s-.66-1.12-.66-2.03v-19.23h-5.14v-2.25h5.14v-6.85l2.69-.78v7.64h7.39v2.25h-7.39v19.72l8.37-.05v2.25Z"/><path class="k" d="M465.69,303.26c-1.52-1.58-2.28-3.91-2.28-6.97v-15.32h2.69v15.12c0,2.58,.54,4.44,1.62,5.58s2.71,1.71,4.89,1.71c1.83,0,3.45-.49,4.87-1.47,1.42-.98,2.52-2.32,3.3-4.04,.78-1.71,1.17-3.63,1.17-5.75v-11.16h2.64v24.18h-2.64v-4.65l.39-2.2h-.88c-.52,2.29-1.59,4.08-3.21,5.38-1.62,1.31-3.71,1.96-6.29,1.96s-4.77-.79-6.29-2.37Z"/><path class="k" d="M492.32,281.61c.44-.42,1.12-.64,2.03-.64h12.92v2.25h-12.97v21.93h-2.64v-21.54c0-.91,.22-1.58,.66-2.01Z"/><path class="k" d="M512.8,283.69c1.99-2.14,4.67-3.21,8.03-3.21s6.16,1.04,8.2,3.11c2.04,2.07,3.06,4.95,3.06,8.64v1.27h-19.72c.06,2.97,.84,5.36,2.32,7.17,1.48,1.81,3.68,2.72,6.58,2.72,2.22,0,4.02-.59,5.41-1.76,1.39-1.17,2.34-2.81,2.86-4.89h2.64c-1.57,5.94-5.19,8.91-10.87,8.91-2.54,0-4.68-.58-6.41-1.74-1.73-1.16-3.01-2.72-3.84-4.67-.83-1.96-1.25-4.14-1.25-6.56,0-3.85,1-6.84,2.99-8.98Zm16.69,7.61c-.13-2.71-.97-4.81-2.52-6.31-1.55-1.5-3.6-2.25-6.14-2.25-2.38,0-4.36,.76-5.92,2.28-1.57,1.52-2.42,3.61-2.54,6.29h17.13Z"/><path class="g" d="M91.01,336.82l6.9,21.58,.05,1.86h.69l6.8-23.44h3.28l6.8,23.44h.64l.05-1.96,6.85-21.49h1.62l-7.68,24.08h-2.89l-6.71-23.4h-.64l-6.71,23.4h-2.99l-7.68-24.08h1.62Z"/><path class="g" d="M128.35,359.53h6.66v-21.34h-4.36v-1.37h4.26c.65,0,1.12,.12,1.39,.37,.28,.24,.42,.64,.42,1.2v21.14h6.66v1.37h-15.03v-1.37Zm5.36-29.61c-.44-.46-.66-1.01-.66-1.66s.22-1.21,.66-1.66c.44-.46,1-.69,1.69-.69s1.25,.23,1.69,.69c.44,.46,.66,1.01,.66,1.66s-.22,1.21-.66,1.66c-.44,.46-1,.69-1.69,.69s-1.25-.23-1.69-.69Z"/><path class="g" d="M159.33,360.9h-8.08c-.65,0-1.13-.15-1.42-.44-.29-.29-.44-.77-.44-1.42v-20.85h-5.04v-1.37h5.04v-7.24l1.71-.49v7.73h7.24v1.37h-7.24v21.34h8.22v1.37Z"/><path class="g" d="M165.3,324.92h1.71v16.84l-.2,1.81h.69c.55-2.25,1.67-4.02,3.35-5.31,1.68-1.29,3.81-1.93,6.39-1.93s4.52,.78,5.92,2.32c1.4,1.55,2.1,3.76,2.1,6.63v15.61h-1.71v-15.66c0-2.61-.56-4.52-1.69-5.73-1.13-1.21-2.83-1.81-5.11-1.81-1.96,0-3.68,.55-5.16,1.64-1.49,1.09-2.62,2.55-3.4,4.38-.78,1.83-1.17,3.8-1.17,5.92v11.26h-1.71v-35.97Z"/><path class="g" d="M210.53,324.92h1.71v16.69l-.15,1.81h.64c.72-2.12,2.02-3.83,3.92-5.14,1.89-1.3,4.11-1.96,6.66-1.96,2.12,0,4.05,.51,5.8,1.54,1.75,1.03,3.12,2.49,4.14,4.38,1.01,1.89,1.52,4.09,1.52,6.61s-.51,4.71-1.52,6.61c-1.01,1.89-2.39,3.35-4.14,4.38-1.75,1.03-3.68,1.54-5.8,1.54-2.54,0-4.76-.65-6.66-1.96-1.89-1.3-3.2-3-3.92-5.09h-.64l.15,1.76v4.8h-1.71v-35.97Zm3.4,29.98c1.03,1.68,2.36,2.95,3.99,3.82,1.63,.86,3.34,1.3,5.14,1.3s3.45-.41,4.97-1.22c1.52-.82,2.73-2.06,3.65-3.74,.91-1.68,1.37-3.74,1.37-6.19s-.46-4.46-1.37-6.14c-.91-1.68-2.13-2.94-3.65-3.77-1.52-.83-3.17-1.25-4.97-1.25s-3.51,.43-5.14,1.3c-1.63,.87-2.96,2.14-3.99,3.82-1.03,1.68-1.54,3.7-1.54,6.04s.51,4.36,1.54,6.04Z"/><path class="g" d="M241.56,342.79c.95-1.92,2.34-3.48,4.18-4.67,1.84-1.19,4.04-1.79,6.58-1.79s4.69,.6,6.53,1.79c1.84,1.19,3.25,2.75,4.21,4.67,.96,1.93,1.44,3.95,1.44,6.07s-.48,4.14-1.44,6.07c-.96,1.92-2.37,3.48-4.21,4.67-1.84,1.19-4.02,1.79-6.53,1.79s-4.74-.59-6.58-1.79c-1.84-1.19-3.24-2.75-4.18-4.67-.95-1.92-1.42-3.95-1.42-6.07s.47-4.14,1.42-6.07Zm1.49,11.45c.8,1.7,1.99,3.08,3.57,4.16,1.58,1.08,3.48,1.62,5.7,1.62s4.12-.54,5.7-1.62c1.58-1.08,2.77-2.46,3.57-4.16,.8-1.7,1.2-3.49,1.2-5.38s-.4-3.65-1.2-5.36c-.8-1.71-1.99-3.11-3.57-4.18-1.58-1.08-3.48-1.62-5.7-1.62s-4.12,.54-5.7,1.62c-1.58,1.08-2.77,2.47-3.57,4.18-.8,1.71-1.2,3.5-1.2,5.36s.4,3.69,1.2,5.38Z"/><path class="g" d="M266.47,359.53h6.8v-33.23h-4.5v-1.37h4.75c.46,0,.81,.12,1.08,.37,.26,.25,.39,.58,.39,1v33.23h6.75v1.37h-15.27v-1.37Z"/><path class="g" d="M289.4,359.85c-1.75-1.03-3.12-2.49-4.14-4.38-1.01-1.89-1.52-4.09-1.52-6.61s.51-4.71,1.52-6.61c1.01-1.89,2.39-3.35,4.14-4.38,1.75-1.03,3.68-1.54,5.8-1.54,2.55,0,4.76,.65,6.66,1.96,1.89,1.31,3.2,3.02,3.92,5.14h.64l-.15-1.81v-16.69h1.71v35.97h-1.71v-4.8l.15-1.76h-.64c-.72,2.09-2.02,3.79-3.92,5.09-1.89,1.31-4.11,1.96-6.66,1.96-2.12,0-4.05-.51-5.8-1.54Zm-2.57-4.8c.91,1.68,2.13,2.93,3.65,3.74,1.52,.82,3.17,1.22,4.97,1.22s3.51-.43,5.14-1.3c1.63-.86,2.96-2.14,3.99-3.82s1.54-3.7,1.54-6.04-.51-4.36-1.54-6.04c-1.03-1.68-2.36-2.95-3.99-3.82-1.63-.86-3.34-1.3-5.14-1.3s-3.45,.42-4.97,1.25c-1.52,.83-2.73,2.09-3.65,3.77-.91,1.68-1.37,3.73-1.37,6.14s.46,4.51,1.37,6.19Z"/><path class="g" d="M334.65,349.4c1.3-1.17,3.15-1.84,5.53-2.01l10.38-.78c0-2.77-.77-4.95-2.3-6.53-1.53-1.58-3.49-2.37-5.87-2.37-2.09,0-3.88,.6-5.38,1.79-1.5,1.19-2.25,3.08-2.25,5.65h-1.71c0-1.44,.34-2.83,1.03-4.18,.69-1.35,1.72-2.46,3.11-3.33,1.39-.86,3.09-1.3,5.11-1.3,2.22,0,4.06,.5,5.53,1.49,1.47,1,2.54,2.3,3.23,3.92s1.03,3.4,1.03,5.36v12.43h3.57v1.37h-3.03c-.69,0-1.17-.2-1.44-.59-.28-.39-.42-.98-.42-1.76v-2.99l.29-2.3h-.69c-.65,2.38-1.82,4.33-3.5,5.85-1.68,1.52-3.89,2.28-6.63,2.28-2.42,0-4.27-.61-5.58-1.83-1.31-1.22-1.96-2.93-1.96-5.12s.65-3.87,1.96-5.04Zm1.3,9.15c1.03,.98,2.5,1.47,4.43,1.47,2.22,0,4.09-.63,5.63-1.88,1.53-1.26,2.67-2.81,3.43-4.67,.75-1.86,1.13-3.69,1.13-5.48l-10.23,.78c-1.93,.16-3.39,.72-4.4,1.66-1.01,.95-1.52,2.28-1.52,4.01s.51,3.13,1.54,4.11Z"/><path class="g" d="M361.12,336.82h1.71v4.94l-.2,1.81h.69c.55-2.25,1.67-4.02,3.35-5.31,1.68-1.29,3.81-1.93,6.39-1.93s4.52,.78,5.92,2.32c1.4,1.55,2.1,3.76,2.1,6.63v15.61h-1.71v-15.66c0-2.61-.56-4.52-1.69-5.73-1.13-1.21-2.83-1.81-5.11-1.81-1.96,0-3.68,.55-5.16,1.64-1.49,1.09-2.62,2.55-3.4,4.38-.78,1.83-1.17,3.8-1.17,5.92v11.26h-1.71v-24.08Z"/><path class="g" d="M392.96,359.85c-1.75-1.03-3.12-2.49-4.14-4.38-1.01-1.89-1.52-4.09-1.52-6.61s.51-4.71,1.52-6.61c1.01-1.89,2.39-3.35,4.14-4.38,1.75-1.03,3.68-1.54,5.8-1.54,2.55,0,4.76,.65,6.66,1.96,1.89,1.31,3.2,3.02,3.92,5.14h.64l-.15-1.81v-16.69h1.71v35.97h-1.71v-4.8l.15-1.76h-.64c-.72,2.09-2.02,3.79-3.92,5.09-1.89,1.31-4.11,1.96-6.66,1.96-2.12,0-4.05-.51-5.8-1.54Zm-2.57-4.8c.91,1.68,2.13,2.93,3.65,3.74,1.52,.82,3.17,1.22,4.97,1.22s3.51-.43,5.14-1.3c1.63-.86,2.96-2.14,3.99-3.82s1.54-3.7,1.54-6.04-.51-4.36-1.54-6.04c-1.03-1.68-2.36-2.95-3.99-3.82-1.63-.86-3.34-1.3-5.14-1.3s-3.45,.42-4.97,1.25c-1.52,.83-2.73,2.09-3.65,3.77-.91,1.68-1.37,3.73-1.37,6.14s.46,4.51,1.37,6.19Z"/><path class="g" d="M436.2,336.82h5.78v-5.43c0-4.31,1.96-6.46,5.87-6.46h4.21v1.37h-3.92c-1.66,0-2.82,.4-3.48,1.2-.65,.8-.98,2.1-.98,3.89v5.43h7v1.37h-7v21.34h7v1.37h-14.49v-1.37h5.78v-21.34h-5.78v-1.37Z"/><path class="g" d="M458.77,359.06c-1.4-1.55-2.1-3.76-2.1-6.63v-15.61h1.71v15.66c0,2.61,.56,4.52,1.69,5.73,1.13,1.21,2.83,1.81,5.11,1.81,1.96,0,3.68-.55,5.16-1.64,1.48-1.09,2.62-2.55,3.4-4.38,.78-1.83,1.17-3.8,1.17-5.92v-11.26h1.71v24.08h-1.71v-4.94l.2-1.81h-.69c-.56,2.25-1.67,4.02-3.35,5.31-1.68,1.29-3.81,1.93-6.39,1.93s-4.52-.77-5.92-2.32Z"/><path class="g" d="M484.02,336.82h1.71v4.94l-.2,1.81h.69c.55-2.25,1.67-4.02,3.35-5.31,1.68-1.29,3.81-1.93,6.39-1.93s4.52,.78,5.92,2.32c1.4,1.55,2.1,3.76,2.1,6.63v15.61h-1.71v-15.66c0-2.61-.56-4.52-1.69-5.73-1.13-1.21-2.83-1.81-5.11-1.81-1.96,0-3.68,.55-5.16,1.64-1.49,1.09-2.62,2.55-3.4,4.38-.78,1.83-1.17,3.8-1.17,5.92v11.26h-1.71v-24.08Z"/><path class="g" d="M511.53,342.74c.88-1.92,2.19-3.47,3.94-4.65s3.84-1.76,6.29-1.76,4.69,.66,6.73,1.98c2.04,1.32,3.24,3.7,3.6,7.12h-1.66c-.36-2.81-1.33-4.8-2.91-5.97-1.58-1.17-3.5-1.76-5.75-1.76-2.12,0-3.92,.51-5.38,1.54-1.47,1.03-2.58,2.39-3.33,4.09-.75,1.7-1.13,3.54-1.13,5.53s.37,3.83,1.1,5.53c.73,1.7,1.84,3.06,3.33,4.09,1.48,1.03,3.29,1.54,5.41,1.54,2.25,0,4.17-.59,5.75-1.76,1.58-1.17,2.55-3.17,2.91-5.97h1.66c-.36,3.43-1.56,5.8-3.6,7.12-2.04,1.32-4.28,1.98-6.73,1.98s-4.58-.59-6.31-1.76-3.03-2.72-3.92-4.62c-.88-1.91-1.32-3.96-1.32-6.14s.44-4.19,1.32-6.12Z"/><path class="g" d="M550.34,360.9h-8.08c-.65,0-1.13-.15-1.42-.44-.29-.29-.44-.77-.44-1.42v-20.85h-5.04v-1.37h5.04v-7.24l1.71-.49v7.73h7.24v1.37h-7.24v21.34h8.22v1.37Z"/><path class="g" d="M554.79,359.53h6.66v-21.34h-4.36v-1.37h4.26c.65,0,1.12,.12,1.39,.37,.28,.24,.42,.64,.42,1.2v21.14h6.66v1.37h-15.03v-1.37Zm5.36-29.61c-.44-.46-.66-1.01-.66-1.66s.22-1.21,.66-1.66c.44-.46,1-.69,1.69-.69s1.25,.23,1.69,.69c.44,.46,.66,1.01,.66,1.66s-.22,1.21-.66,1.66c-.44,.46-1,.69-1.69,.69s-1.25-.23-1.69-.69Z"/><path class="g" d="M572.9,342.79c.95-1.92,2.34-3.48,4.18-4.67,1.84-1.19,4.04-1.79,6.58-1.79s4.69,.6,6.53,1.79c1.84,1.19,3.25,2.75,4.21,4.67,.96,1.93,1.44,3.95,1.44,6.07s-.48,4.14-1.44,6.07c-.96,1.92-2.37,3.48-4.21,4.67-1.84,1.19-4.02,1.79-6.53,1.79s-4.74-.59-6.58-1.79c-1.84-1.19-3.24-2.75-4.18-4.67-.95-1.92-1.42-3.95-1.42-6.07s.47-4.14,1.42-6.07Zm1.49,11.45c.8,1.7,1.99,3.08,3.57,4.16,1.58,1.08,3.48,1.62,5.7,1.62s4.12-.54,5.7-1.62c1.58-1.08,2.77-2.46,3.57-4.16,.8-1.7,1.2-3.49,1.2-5.38s-.4-3.65-1.2-5.36c-.8-1.71-1.99-3.11-3.57-4.18-1.58-1.08-3.48-1.62-5.7-1.62s-4.12,.54-5.7,1.62c-1.58,1.08-2.77,2.47-3.57,4.18-.8,1.71-1.2,3.5-1.2,5.36s.4,3.69,1.2,5.38Z"/><path class="g" d="M602.51,336.82h1.71v4.94l-.2,1.81h.69c.55-2.25,1.67-4.02,3.35-5.31,1.68-1.29,3.81-1.93,6.39-1.93s4.52,.78,5.92,2.32c1.4,1.55,2.1,3.76,2.1,6.63v15.61h-1.71v-15.66c0-2.61-.56-4.52-1.69-5.73-1.13-1.21-2.83-1.81-5.11-1.81-1.96,0-3.68,.55-5.16,1.64-1.49,1.09-2.62,2.55-3.4,4.38-.78,1.83-1.17,3.8-1.17,5.92v11.26h-1.71v-24.08Z"/><path class="g" d="M630.95,349.4c1.3-1.17,3.15-1.84,5.53-2.01l10.38-.78c0-2.77-.77-4.95-2.3-6.53-1.53-1.58-3.49-2.37-5.87-2.37-2.09,0-3.88,.6-5.38,1.79-1.5,1.19-2.25,3.08-2.25,5.65h-1.71c0-1.44,.34-2.83,1.03-4.18,.69-1.35,1.72-2.46,3.11-3.33,1.39-.86,3.09-1.3,5.11-1.3,2.22,0,4.06,.5,5.53,1.49,1.47,1,2.54,2.3,3.23,3.92s1.03,3.4,1.03,5.36v12.43h3.57v1.37h-3.03c-.69,0-1.17-.2-1.44-.59-.28-.39-.42-.98-.42-1.76v-2.99l.29-2.3h-.69c-.65,2.38-1.82,4.33-3.5,5.85-1.68,1.52-3.89,2.28-6.63,2.28-2.42,0-4.27-.61-5.58-1.83-1.31-1.22-1.96-2.93-1.96-5.12s.65-3.87,1.96-5.04Zm1.3,9.15c1.03,.98,2.5,1.47,4.43,1.47,2.22,0,4.09-.63,5.63-1.88,1.53-1.26,2.67-2.81,3.43-4.67,.75-1.86,1.13-3.69,1.13-5.48l-10.23,.78c-1.93,.16-3.39,.72-4.4,1.66-1.01,.95-1.52,2.28-1.52,4.01s.51,3.13,1.54,4.11Z"/><path class="g" d="M655.42,359.53h6.8v-33.23h-4.5v-1.37h4.75c.46,0,.81,.12,1.08,.37,.26,.25,.39,.58,.39,1v33.23h6.75v1.37h-15.27v-1.37Z"/><path class="g" d="M712.63,336.82l-8.91,24.08h-3.67l-9.01-24.08h1.76l8.76,23.44h.64l8.71-23.44h1.71Z"/><path class="g" d="M715.86,359.53h6.66v-21.34h-4.36v-1.37h4.26c.65,0,1.12,.12,1.39,.37,.28,.24,.42,.64,.42,1.2v21.14h6.66v1.37h-15.03v-1.37Zm5.36-29.61c-.44-.46-.66-1.01-.66-1.66s.22-1.21,.66-1.66c.44-.46,1-.69,1.69-.69s1.25,.23,1.69,.69c.44,.46,.66,1.01,.66,1.66s-.22,1.21-.66,1.66c-.44,.46-1,.69-1.69,.69s-1.25-.23-1.69-.69Z"/><path class="g" d="M737.06,358.87c-1.79-1.68-2.69-3.99-2.69-6.93h1.71c0,2.51,.75,4.49,2.25,5.92,1.5,1.44,3.56,2.15,6.17,2.15,2.06,0,3.66-.45,4.82-1.35s1.74-2.18,1.74-3.84c0-1.17-.36-2.13-1.08-2.86-.72-.73-1.91-1.36-3.57-1.88l-5.63-1.71c-1.63-.49-2.92-1.19-3.87-2.1-.95-.91-1.42-2.14-1.42-3.67,0-1.96,.71-3.49,2.13-4.6s3.37-1.66,5.85-1.66c2.68,0,4.78,.68,6.31,2.06,1.53,1.37,2.3,3.25,2.3,5.63h-1.71c0-1.96-.61-3.5-1.83-4.62-1.22-1.13-2.9-1.69-5.02-1.69-1.96,0-3.5,.45-4.62,1.35-1.13,.9-1.69,2.15-1.69,3.74,0,1.89,1.37,3.26,4.11,4.11l5.63,1.76c2.09,.65,3.58,1.48,4.48,2.47,.9,1,1.35,2.24,1.35,3.74,0,2.06-.73,3.66-2.2,4.8-1.47,1.14-3.49,1.71-6.07,1.71-3.17,0-5.65-.84-7.44-2.52Z"/><path class="g" d="M760.74,359.06c-1.4-1.55-2.1-3.76-2.1-6.63v-15.61h1.71v15.66c0,2.61,.56,4.52,1.69,5.73,1.13,1.21,2.83,1.81,5.11,1.81,1.96,0,3.68-.55,5.16-1.64,1.48-1.09,2.62-2.55,3.4-4.38,.78-1.83,1.17-3.8,1.17-5.92v-11.26h1.71v24.08h-1.71v-4.94l.2-1.81h-.69c-.56,2.25-1.67,4.02-3.35,5.31-1.68,1.29-3.81,1.93-6.39,1.93s-4.52-.77-5.92-2.32Z"/><path class="g" d="M787.52,349.4c1.3-1.17,3.15-1.84,5.53-2.01l10.38-.78c0-2.77-.77-4.95-2.3-6.53-1.53-1.58-3.49-2.37-5.87-2.37-2.09,0-3.88,.6-5.38,1.79-1.5,1.19-2.25,3.08-2.25,5.65h-1.71c0-1.44,.34-2.83,1.03-4.18,.69-1.35,1.72-2.46,3.11-3.33,1.39-.86,3.09-1.3,5.11-1.3,2.22,0,4.06,.5,5.53,1.49,1.47,1,2.54,2.3,3.23,3.92s1.03,3.4,1.03,5.36v12.43h3.57v1.37h-3.03c-.69,0-1.17-.2-1.44-.59-.28-.39-.42-.98-.42-1.76v-2.99l.29-2.3h-.69c-.65,2.38-1.82,4.33-3.5,5.85-1.68,1.52-3.89,2.28-6.63,2.28-2.42,0-4.27-.61-5.58-1.83-1.31-1.22-1.96-2.93-1.96-5.12s.65-3.87,1.96-5.04Zm1.3,9.15c1.03,.98,2.5,1.47,4.43,1.47,2.22,0,4.09-.63,5.63-1.88,1.53-1.26,2.67-2.81,3.43-4.67,.75-1.86,1.13-3.69,1.13-5.48l-10.23,.78c-1.93,.16-3.39,.72-4.4,1.66-1.01,.95-1.52,2.28-1.52,4.01s.51,3.13,1.54,4.11Z"/><path class="g" d="M811.99,359.53h6.8v-33.23h-4.5v-1.37h4.75c.46,0,.81,.12,1.08,.37,.26,.25,.39,.58,.39,1v33.23h6.75v1.37h-15.27v-1.37Z"/><path class="g" d="M862.74,360.9h-8.08c-.65,0-1.13-.15-1.42-.44-.29-.29-.44-.77-.44-1.42v-20.85h-5.04v-1.37h5.04v-7.24l1.71-.49v7.73h7.24v1.37h-7.24v21.34h8.22v1.37Z"/><path class="g" d="M866.95,342.79c.95-1.92,2.34-3.48,4.18-4.67,1.84-1.19,4.04-1.79,6.58-1.79s4.69,.6,6.53,1.79c1.84,1.19,3.25,2.75,4.21,4.67,.96,1.93,1.44,3.95,1.44,6.07s-.48,4.14-1.44,6.07c-.96,1.92-2.37,3.48-4.21,4.67-1.84,1.19-4.02,1.79-6.53,1.79s-4.74-.59-6.58-1.79c-1.84-1.19-3.24-2.75-4.18-4.67-.95-1.92-1.42-3.95-1.42-6.07s.47-4.14,1.42-6.07Zm1.49,11.45c.8,1.7,1.99,3.08,3.57,4.16,1.58,1.08,3.48,1.62,5.7,1.62s4.12-.54,5.7-1.62c1.58-1.08,2.77-2.46,3.57-4.16,.8-1.7,1.2-3.49,1.2-5.38s-.4-3.65-1.2-5.36c-.8-1.71-1.99-3.11-3.57-4.18-1.58-1.08-3.48-1.62-5.7-1.62s-4.12,.54-5.7,1.62c-1.58,1.08-2.77,2.47-3.57,4.18-.8,1.71-1.2,3.5-1.2,5.36s.4,3.69,1.2,5.38Z"/><path class="g" d="M896.71,342.79c.95-1.92,2.34-3.48,4.18-4.67,1.84-1.19,4.04-1.79,6.58-1.79s4.69,.6,6.53,1.79c1.84,1.19,3.25,2.75,4.21,4.67,.96,1.93,1.44,3.95,1.44,6.07s-.48,4.14-1.44,6.07c-.96,1.92-2.37,3.48-4.21,4.67-1.84,1.19-4.02,1.79-6.53,1.79s-4.74-.59-6.58-1.79c-1.84-1.19-3.24-2.75-4.18-4.67-.95-1.92-1.42-3.95-1.42-6.07s.47-4.14,1.42-6.07Zm1.49,11.45c.8,1.7,1.99,3.08,3.57,4.16,1.58,1.08,3.48,1.62,5.7,1.62s4.12-.54,5.7-1.62c1.58-1.08,2.77-2.46,3.57-4.16,.8-1.7,1.2-3.49,1.2-5.38s-.4-3.65-1.2-5.36c-.8-1.71-1.99-3.11-3.57-4.18-1.58-1.08-3.48-1.62-5.7-1.62s-4.12,.54-5.7,1.62c-1.58,1.08-2.77,2.47-3.57,4.18-.8,1.71-1.2,3.5-1.2,5.36s.4,3.69,1.2,5.38Z"/><path class="g" d="M921.62,359.53h6.8v-33.23h-4.5v-1.37h4.75c.46,0,.81,.12,1.08,.37,.26,.25,.39,.58,.39,1v33.23h6.75v1.37h-15.27v-1.37Z"/><path class="g" d="M943.06,358.87c-1.79-1.68-2.69-3.99-2.69-6.93h1.71c0,2.51,.75,4.49,2.25,5.92,1.5,1.44,3.56,2.15,6.17,2.15,2.06,0,3.66-.45,4.82-1.35s1.74-2.18,1.74-3.84c0-1.17-.36-2.13-1.08-2.86-.72-.73-1.91-1.36-3.57-1.88l-5.63-1.71c-1.63-.49-2.92-1.19-3.87-2.1-.95-.91-1.42-2.14-1.42-3.67,0-1.96,.71-3.49,2.13-4.6s3.37-1.66,5.85-1.66c2.68,0,4.78,.68,6.31,2.06,1.53,1.37,2.3,3.25,2.3,5.63h-1.71c0-1.96-.61-3.5-1.83-4.62-1.22-1.13-2.9-1.69-5.02-1.69-1.96,0-3.5,.45-4.62,1.35-1.13,.9-1.69,2.15-1.69,3.74,0,1.89,1.37,3.26,4.11,4.11l5.63,1.76c2.09,.65,3.58,1.48,4.48,2.47,.9,1,1.35,2.24,1.35,3.74,0,2.06-.73,3.66-2.2,4.8-1.47,1.14-3.49,1.71-6.07,1.71-3.17,0-5.65-.84-7.44-2.52Z"/><path class="g" d="M965.25,360.7c-.44-.46-.66-1.01-.66-1.66s.22-1.21,.66-1.67c.44-.46,1-.68,1.69-.68s1.25,.23,1.69,.68c.44,.46,.66,1.01,.66,1.67s-.22,1.21-.66,1.66c-.44,.46-1,.68-1.69,.68s-1.25-.23-1.69-.68Z"/></g><g><path class="d" d="M66.27,149.4l-4.61-.27c-.78-.02-1.53,.26-2.1,.8l-.9,.85c-.16,.15-.4,.3-1.37,.27l-.86-.02h0l-7.24-.12c-.49-.01-.95-.22-1.29-.58l-.71-.75c-.54-.57-1.27-.9-2.05-.92l-4.16-.12c-.79-.02-1.53,.26-2.1,.8l-.9,.85c-.16,.15-.4,.3-1.37,.27l-2.76-.08v-.6c0-2.07,.8-4.01,2.27-5.47,1.46-1.46,3.41-2.27,5.47-2.27h15.62c2.23,0,4.33,.87,5.9,2.44l3.51,3.51h0c-.1,.47-.22,.94-.37,1.41Zm-24.46-16.75h12.19c4.72,0,8.92,2.46,11.22,6.58,1.3,2.33,1.84,4.89,1.61,7.41l-2.94-2.94c-1.78-1.78-4.15-2.76-6.67-2.76h-15.62c-2.36,0-4.58,.92-6.25,2.59-.08,.08-.15,.15-.22,.23-1.35-.79-2.88-1.21-4.45-1.21-1.39,0-2.77,.34-4.01,.97,2.07-6.3,8.07-10.87,15.14-10.87Zm-15.91,15.68c0-1.13,.12-2.23,.36-3.3,1.29-.9,2.85-1.39,4.42-1.39,1.32,0,2.6,.34,3.75,.97-1.08,1.49-1.66,3.28-1.66,5.16v3.14c0,.1,0,.19-.02,.29h0l-.02,.13c-.19,.84-.94,1.47-1.83,1.47-1.81,0-3.52,.71-4.8,1.99l-.19,.19v-8.65Zm0,10.19l.96-.96c1.08-1.08,2.5-1.67,4.02-1.67,.55,0,1.07-.16,1.52-.42l-.32,2.15c-.27,1.9-.17,3.62,.28,5.1,.56,1.84,1.58,3.54,2.94,4.9,2.02,2.02,3.13,4.7,3.13,7.57l.07,2.28,.04,1.72v.04c-1.51-1.41-3.17-2.96-4.66-4.34-1.22-1.14-2.33-2.16-3.12-2.9-.46-.43-.77-.71-.98-.91,.11-.72,.19-1.48,.23-2.27,.3-5.61-1.3-9.94-3.73-10.07-.13,0-.25,0-.37,.02v-.24Zm.32,1.31c.67,.04,1.34,.8,1.85,2.09h-4.02c.66-1.36,1.45-2.13,2.17-2.09Zm2.2,3.19c.4,1.51,.62,3.48,.49,5.73-.14,2.54-.66,4.67-1.33,6.18h-3.76c.91-1.34,1.38-3.71,1.38-5.99s-.46-4.57-1.34-5.92h4.56Zm-6.21,11.91h-.23c-.83-.19-1.9-2.44-1.9-5.99s1-5.65,1.82-5.96v.04h.48c.8,.43,1.73,2.61,1.73,5.92,0,3.55-1.07,5.79-1.9,5.99Zm3.06,2.4c-.52-.03-1.04-.49-1.48-1.3h3.21c-.56,.87-1.17,1.33-1.73,1.3Zm34.55,7.54c.43,1.42,.72,2.5,.74,2.83-.29,.74-1.92,3.38-2.47,3.66-.11,0-.34,0-.66,0-12.24,.13-16.31-.41-17.57-.89-1.74-.66-6.59-5.18-13.33-12.42,1.31-.8,2.41-2.89,3.01-5.7,1.59,1.47,5.45,5.06,10.94,10.18,1.51,1.4,3.61,2.01,5.63,1.62l3.55-.68c2.04-.39,4.17-.3,6.17,.26,2.35,.66,3.46,.97,3.98,1.13Zm-18.36-2.93s.08,0,.12,0c.2,0,.39-.02,.58-.06,.63-.12,1.15-.88,1.71-1.77,.08-.14,.19-.3,.21-.33l1.07-1.31c.6-.59,1.4-.92,2.25-.92h6.53c.86,0,1.66,.33,2.27,.94l1.15,1.15c.11,.11,.24,.22,.4,.32,.18,.13,.39,.24,.6,.32,.38,1.12,.76,2.27,1.09,3.33-.75-.22-1.85-.53-3.29-.93-2.16-.6-4.47-.7-6.67-.28l-3.55,.68c-1.58,.3-3.22-.13-4.45-1.15Zm26.03-14.48c-.53,1.2-1.24,2.42-2.14,3.31-2.04,2.04-3.49,2.39-3.49,5.67,0,0,0,.94-.04,1.49-.05,.73-.62,1.11-.95,1.27-.8,.39-1.84,.33-2.52-.14-.1-.07-.18-.14-.25-.2l-1.15-1.15c-.81-.81-1.89-1.26-3.04-1.26h-6.53c-1.15,0-2.23,.45-3.04,1.26l-1.07,1.32c-.09,.1-.18,.24-.34,.5-.18,.29-.74,1.19-.99,1.28-.54,.11-1.09-.02-1.54-.34-.44-.32-.72-.79-.78-1.33l-.11-3.96c0-3.15-1.23-6.1-3.45-8.33-1.24-1.24-2.16-2.77-2.67-4.45-.4-1.33-.49-2.89-.24-4.63l.63-4.24c.04-.2,.07-.41,.07-.62v-1.45l2.73,.08c1.08,.03,1.68-.13,2.15-.57l.9-.85c.36-.34,.83-.52,1.32-.5l4.16,.12c.49,.01,.95,.22,1.29,.58l.71,.75c.54,.57,1.27,.9,2.06,.92l7.02,.1h0l1.06,.04c.09,0,.17,0,.25,0,.93,0,1.47-.17,1.9-.57l.9-.85c.36-.34,.83-.51,1.3-.5l4.25,.25c-.26,.6-.56,1.2-.91,1.77-.3,.49-.37,1.71-.37,2.29v1.72l1.09,.17v-1.89c0-.37,0-1.4,.21-1.72,2.68-4.37,2.8-9.64,.3-14.11-2.5-4.47-7.05-7.14-12.18-7.14h-12.19c-9.38,0-17.01,7.53-17.01,16.78v10.86c-.73,.51-1.4,1.44-1.96,2.73h-.24c-.16-.05-.33-.08-.5-.08-2.02,0-3.11,3.66-3.11,7.1s1.09,7.1,3.11,7.1c.07,0,.14,0,.21-.02h.25c.85,1.9,1.89,2.35,2.64,2.4,.04,0,.08,0,.11,0,.02,0,.04,0,.05,0,.05,.06,.14,.15,.27,.29,4.95,5.32,11.36,11.85,13.83,12.78,1.71,.65,6.55,.98,14.41,.98,1.12,0,2.31,0,3.56-.02,.31,0,.53,0,.64,0,.02,0,.04,0,.06,0,1.34,0,3.46-4.41,3.47-4.45,.07-.2,.24-.71-2.03-7.45,.6,.02,1.22-.09,1.78-.36,.94-.45,1.51-1.25,1.57-2.19,.04-.58,.04-1.52,.04-1.56,0-2.65,.93-2.66,3.17-4.89,1.36-1.36,2.38-3.32,2.94-5.16,.03-.1,.08-.32,.1-.46l-.83,.76-.84,.77Z"/><path class="d" d="M65.22,155.99c-3.32,0-6.03,2.7-6.03,6.03s2.7,6.03,6.03,6.03,6.03-2.7,6.03-6.03-2.7-6.03-6.03-6.03Zm0,11.03c-2.76,0-5-2.24-5-5s2.24-5,5-5,5,2.24,5,5-2.24,5-5,5Z"/><path class="d" d="M44.71,155.99c-3.32,0-6.03,2.7-6.03,6.03s2.7,6.03,6.03,6.03,6.03-2.7,6.03-6.03-2.7-6.03-6.03-6.03Zm0,11.03c-2.76,0-5-2.24-5-5s2.24-5,5-5,5,2.24,5,5-2.24,5-5,5Z"/></g><g><path class="h" d="M96.88,179.71c.6,.42,1.07,.97,1.41,1.62,.34,.66,.56,1.39,.68,2.2,.12,.81,.18,1.6,.18,2.38s-.06,1.58-.18,2.39c-.12,.81-.35,1.54-.68,2.2-.34,.66-.8,1.2-1.41,1.61s-1.39,.63-2.37,.63-1.75-.21-2.36-.63c-.61-.42-1.08-.96-1.42-1.61-.34-.66-.56-1.39-.68-2.2-.12-.81-.18-1.6-.18-2.38s.06-1.58,.18-2.39c.12-.81,.35-1.54,.68-2.2,.34-.66,.81-1.2,1.42-1.62,.61-.42,1.39-.64,2.36-.64s1.76,.21,2.37,.64Zm-4.19,.96c-.46,.39-.8,.88-1.04,1.46-.23,.58-.39,1.22-.47,1.9s-.11,1.31-.11,1.88,.04,1.21,.11,1.89,.23,1.31,.47,1.9,.58,1.08,1.04,1.47,1.06,.59,1.82,.59,1.37-.2,1.82-.59,.8-.88,1.04-1.47c.23-.59,.39-1.22,.47-1.9s.11-1.31,.11-1.89-.04-1.2-.11-1.88-.23-1.32-.47-1.9c-.23-.58-.58-1.07-1.04-1.46-.46-.39-1.06-.59-1.82-.59s-1.37,.2-1.82,.59Z"/><path class="h" d="M107.92,179.71c.6,.42,1.07,.97,1.41,1.62,.34,.66,.56,1.39,.68,2.2,.12,.81,.18,1.6,.18,2.38s-.06,1.58-.18,2.39c-.12,.81-.35,1.54-.68,2.2-.34,.66-.8,1.2-1.41,1.61s-1.39,.63-2.37,.63-1.75-.21-2.36-.63c-.61-.42-1.08-.96-1.42-1.61-.34-.66-.56-1.39-.68-2.2-.12-.81-.18-1.6-.18-2.38s.06-1.58,.18-2.39c.12-.81,.35-1.54,.68-2.2,.34-.66,.81-1.2,1.42-1.62,.61-.42,1.39-.64,2.36-.64s1.76,.21,2.37,.64Zm-4.19,.96c-.46,.39-.8,.88-1.04,1.46-.23,.58-.39,1.22-.47,1.9s-.11,1.31-.11,1.88,.04,1.21,.11,1.89,.23,1.31,.47,1.9,.58,1.08,1.04,1.47,1.06,.59,1.82,.59,1.37-.2,1.82-.59,.8-.88,1.04-1.47c.23-.59,.39-1.22,.47-1.9s.11-1.31,.11-1.89-.04-1.2-.11-1.88-.23-1.32-.47-1.9c-.23-.58-.58-1.07-1.04-1.46-.46-.39-1.06-.59-1.82-.59s-1.37,.2-1.82,.59Z"/><path class="h" d="M114.57,181.66c.42-.04,.79-.15,1.1-.31s.57-.42,.78-.75c.21-.33,.36-.81,.45-1.42h.97v13.3h-1.2v-9.88h-3.52v-.86c.52-.01,.99-.04,1.42-.08Z"/></g><g><path class="h" d="M96.88,399.54c.6,.42,1.07,.97,1.41,1.62,.34,.66,.56,1.39,.68,2.2,.12,.81,.18,1.6,.18,2.38s-.06,1.58-.18,2.39c-.12,.81-.35,1.54-.68,2.2-.34,.66-.8,1.2-1.41,1.61s-1.39,.63-2.37,.63-1.75-.21-2.36-.63c-.61-.42-1.08-.96-1.42-1.61-.34-.66-.56-1.39-.68-2.2-.12-.81-.18-1.6-.18-2.38s.06-1.58,.18-2.39c.12-.81,.35-1.54,.68-2.2,.34-.66,.81-1.2,1.42-1.62,.61-.42,1.39-.64,2.36-.64s1.76,.21,2.37,.64Zm-4.19,.96c-.46,.39-.8,.88-1.04,1.46-.23,.58-.39,1.22-.47,1.9s-.11,1.31-.11,1.88,.04,1.21,.11,1.89,.23,1.31,.47,1.9,.58,1.08,1.04,1.47,1.06,.59,1.82,.59,1.37-.2,1.82-.59,.8-.88,1.04-1.47c.23-.59,.39-1.22,.47-1.9s.11-1.31,.11-1.89-.04-1.2-.11-1.88-.23-1.32-.47-1.9c-.23-.58-.58-1.07-1.04-1.46-.46-.39-1.06-.59-1.82-.59s-1.37,.2-1.82,.59Z"/><path class="h" d="M107.92,399.54c.6,.42,1.07,.97,1.41,1.62,.34,.66,.56,1.39,.68,2.2,.12,.81,.18,1.6,.18,2.38s-.06,1.58-.18,2.39c-.12,.81-.35,1.54-.68,2.2-.34,.66-.8,1.2-1.41,1.61s-1.39,.63-2.37,.63-1.75-.21-2.36-.63c-.61-.42-1.08-.96-1.42-1.61-.34-.66-.56-1.39-.68-2.2-.12-.81-.18-1.6-.18-2.38s.06-1.58,.18-2.39c.12-.81,.35-1.54,.68-2.2,.34-.66,.81-1.2,1.42-1.62,.61-.42,1.39-.64,2.36-.64s1.76,.21,2.37,.64Zm-4.19,.96c-.46,.39-.8,.88-1.04,1.46-.23,.58-.39,1.22-.47,1.9s-.11,1.31-.11,1.88,.04,1.21,.11,1.89,.23,1.31,.47,1.9,.58,1.08,1.04,1.47,1.06,.59,1.82,.59,1.37-.2,1.82-.59,.8-.88,1.04-1.47c.23-.59,.39-1.22,.47-1.9s.11-1.31,.11-1.89-.04-1.2-.11-1.88-.23-1.32-.47-1.9c-.23-.58-.58-1.07-1.04-1.46-.46-.39-1.06-.59-1.82-.59s-1.37,.2-1.82,.59Z"/><path class="h" d="M111.99,412.32c.01-.66,.13-1.24,.34-1.75s.5-.96,.85-1.37,.75-.78,1.2-1.11c.44-.33,.9-.66,1.37-.97s.93-.63,1.4-.95,.88-.67,1.24-1.04c.37-.37,.64-.74,.83-1.13,.18-.39,.28-.85,.28-1.38,0-.43-.08-.81-.24-1.15-.16-.33-.37-.62-.65-.85-.27-.23-.59-.41-.95-.53s-.74-.18-1.15-.18c-.54,0-1.01,.1-1.4,.3-.39,.2-.7,.47-.94,.82-.24,.34-.42,.74-.52,1.18-.11,.44-.16,.91-.14,1.41h-1.2c-.01-.68,.07-1.31,.24-1.89,.17-.58,.43-1.07,.79-1.49,.35-.42,.8-.74,1.34-.98,.54-.23,1.17-.35,1.89-.35,.58,0,1.12,.08,1.62,.24,.5,.16,.94,.39,1.31,.7,.37,.31,.66,.7,.87,1.17,.21,.47,.31,1.01,.31,1.63,0,.56-.09,1.06-.28,1.52s-.43,.87-.74,1.25c-.31,.38-.67,.73-1.06,1.05-.4,.32-.82,.62-1.26,.9-.32,.22-.69,.45-1.12,.71s-.85,.55-1.24,.86c-.4,.32-.75,.66-1.05,1.04-.3,.37-.49,.78-.57,1.23h7.39v1.1h-8.76Z"/></g><g><path class="h" d="M663.27,399.54c.6,.42,1.07,.97,1.41,1.62,.34,.66,.56,1.39,.68,2.2,.12,.81,.18,1.6,.18,2.38s-.06,1.58-.18,2.39c-.12,.81-.35,1.54-.68,2.2-.34,.66-.8,1.2-1.41,1.61s-1.39,.63-2.37,.63-1.75-.21-2.36-.63c-.61-.42-1.08-.96-1.42-1.61-.34-.66-.56-1.39-.68-2.2-.12-.81-.18-1.6-.18-2.38s.06-1.58,.18-2.39c.12-.81,.35-1.54,.68-2.2,.34-.66,.81-1.2,1.42-1.62,.61-.42,1.39-.64,2.36-.64s1.76,.21,2.37,.64Zm-4.19,.96c-.46,.39-.8,.88-1.04,1.46-.23,.58-.39,1.22-.47,1.9s-.11,1.31-.11,1.88,.04,1.21,.11,1.89,.23,1.31,.47,1.9,.58,1.08,1.04,1.47,1.06,.59,1.82,.59,1.37-.2,1.82-.59,.8-.88,1.04-1.47c.23-.59,.39-1.22,.47-1.9s.11-1.31,.11-1.89-.04-1.2-.11-1.88-.23-1.32-.47-1.9c-.23-.58-.58-1.07-1.04-1.46-.46-.39-1.06-.59-1.82-.59s-1.37,.2-1.82,.59Z"/><path class="h" d="M674.31,399.54c.6,.42,1.07,.97,1.41,1.62,.34,.66,.56,1.39,.68,2.2,.12,.81,.18,1.6,.18,2.38s-.06,1.58-.18,2.39c-.12,.81-.35,1.54-.68,2.2-.34,.66-.8,1.2-1.41,1.61s-1.39,.63-2.37,.63-1.75-.21-2.36-.63c-.61-.42-1.08-.96-1.42-1.61-.34-.66-.56-1.39-.68-2.2-.12-.81-.18-1.6-.18-2.38s.06-1.58,.18-2.39c.12-.81,.35-1.54,.68-2.2,.34-.66,.81-1.2,1.42-1.62,.61-.42,1.39-.64,2.36-.64s1.76,.21,2.37,.64Zm-4.19,.96c-.46,.39-.8,.88-1.04,1.46-.23,.58-.39,1.22-.47,1.9s-.11,1.31-.11,1.88,.04,1.21,.11,1.89,.23,1.31,.47,1.9,.58,1.08,1.04,1.47,1.06,.59,1.82,.59,1.37-.2,1.82-.59,.8-.88,1.04-1.47c.23-.59,.39-1.22,.47-1.9s.11-1.31,.11-1.89-.04-1.2-.11-1.88-.23-1.32-.47-1.9c-.23-.58-.58-1.07-1.04-1.46-.46-.39-1.06-.59-1.82-.59s-1.37,.2-1.82,.59Z"/><path class="h" d="M679.71,409.52c.15,.43,.36,.8,.65,1.1,.29,.3,.64,.54,1.06,.71s.9,.26,1.43,.26c.44,0,.87-.06,1.27-.19,.41-.13,.77-.32,1.08-.57,.32-.25,.57-.56,.76-.93s.28-.79,.28-1.25-.08-.9-.25-1.24c-.17-.35-.39-.64-.68-.87-.29-.23-.63-.41-1.02-.52-.39-.11-.8-.17-1.24-.17h-1.01v-1.01h1.01c.3,0,.62-.05,.94-.14,.32-.09,.61-.24,.87-.44s.47-.45,.64-.75c.16-.3,.25-.67,.25-1.08,0-.44-.08-.82-.23-1.13-.15-.31-.36-.57-.63-.78-.27-.21-.57-.36-.92-.46-.35-.09-.73-.14-1.13-.14-.49,0-.93,.08-1.31,.25-.38,.17-.7,.4-.96,.69-.26,.3-.45,.65-.58,1.06-.13,.41-.18,.86-.17,1.36h-1.2c0-.63,.1-1.22,.29-1.75,.2-.53,.48-.99,.84-1.38,.36-.39,.8-.69,1.32-.91s1.1-.33,1.75-.33c.52,0,1.03,.07,1.52,.2,.49,.13,.93,.34,1.32,.61,.39,.27,.7,.62,.93,1.04,.23,.42,.35,.93,.35,1.53,0,.72-.19,1.35-.58,1.88-.39,.53-.94,.89-1.66,1.06v.04c.87,.14,1.55,.5,2.02,1.09,.47,.59,.71,1.32,.71,2.19,0,.66-.12,1.24-.37,1.74s-.58,.92-1,1.26-.91,.6-1.46,.77c-.56,.17-1.14,.26-1.75,.26-.68,0-1.31-.1-1.89-.3s-1.07-.49-1.48-.87-.72-.85-.93-1.41c-.21-.56-.29-1.2-.24-1.92h1.2c-.03,.53,.03,1.01,.18,1.44Z"/></g><rect class="i" x="731.06" y="444.38" width="165.54" height=".7"/><rect class="i" x="947.48" y="444.38" width="209.7" height=".7"/><g><path class="e" d="M102.08,441.07h-2.9l-1.99-11.2h-.41l-1.94,11.2h-2.93l-2.14-11.62h1.48l1.91,9.97-.1,1.24h.43l1.98-11.2h3.06l1.96,11.2h.43l-.07-1.24,1.86-9.97h1.48l-2.11,11.62Z"/><path class="e" d="M106.07,429.46h8.07v1.29h-6.57v3.89h5.75v1.25h-5.75v3.91h6.57v1.29h-8.07v-11.62Z"/><path class="e" d="M131.39,429.46v1.29h-3.99v10.33h-1.5v-10.33h-4v-1.29h9.49Z"/><path class="e" d="M135.05,429.46v5.24h6.62v-5.24h1.5v11.62h-1.5v-5.07h-6.62v5.07h-1.5v-11.62h1.5Z"/><path class="e" d="M145.96,429.46h4.3c1.48,0,2.61,.23,3.38,.68,.77,.45,1.15,1.26,1.15,2.44,0,.86-.2,1.49-.6,1.91-.4,.42-.97,.69-1.72,.82v.41h1.27c.71,0,1.07,.38,1.07,1.14v4.22h-1.48v-4.6h-5.87v4.6h-1.5v-11.62Zm4.3,5.73c.69,0,1.25-.06,1.69-.17s.77-.34,1.01-.68c.24-.33,.35-.82,.35-1.44s-.12-1.11-.35-1.42c-.24-.31-.56-.51-.98-.6s-.99-.14-1.71-.14h-2.8v4.45h2.8Z"/><path class="e" d="M163.8,429.46v1.29h-2.6v9.05h2.6v1.29h-6.69v-1.29h2.6v-9.05h-2.6v-1.29h6.69Z"/><path class="e" d="M165.68,429.46h1.55l3.54,11.2h.43l3.54-11.2h1.55l-3.71,11.62h-3.21l-3.69-11.62Z"/><path class="e" d="M178.33,429.46h8.07v1.29h-6.57v3.89h5.75v1.25h-5.75v3.91h6.57v1.29h-8.07v-11.62Z"/><path class="e" d="M206.16,441.07h-2.9l-1.99-11.2h-.41l-1.94,11.2h-2.93l-2.14-11.62h1.48l1.91,9.97-.1,1.24h.43l1.98-11.2h3.06l1.96,11.2h.43l-.07-1.24,1.86-9.97h1.48l-2.11,11.62Z"/><path class="e" d="M210.39,432.18c.44-.91,1.07-1.62,1.9-2.13,.83-.52,1.8-.77,2.92-.77s2.09,.26,2.92,.77,1.46,1.23,1.9,2.13c.44,.91,.66,1.93,.66,3.07s-.22,2.17-.66,3.07c-.44,.91-1.07,1.62-1.9,2.14-.82,.52-1.8,.78-2.92,.78s-2.1-.26-2.92-.78c-.83-.52-1.46-1.24-1.9-2.14-.44-.91-.66-1.93-.66-3.07s.22-2.17,.66-3.07Zm1.87,6.48c.68,.86,1.66,1.29,2.96,1.29s2.28-.43,2.96-1.29c.68-.86,1.01-1.99,1.01-3.41s-.34-2.55-1.01-3.4c-.68-.85-1.66-1.28-2.96-1.28s-2.28,.43-2.96,1.28c-.68,.85-1.01,1.99-1.01,3.4s.34,2.55,1.01,3.41Z"/><path class="e" d="M223.25,429.46h4.3c1.48,0,2.61,.23,3.38,.68,.77,.45,1.15,1.26,1.15,2.44,0,.86-.2,1.49-.6,1.91-.4,.42-.97,.69-1.72,.82v.41h1.27c.71,0,1.07,.38,1.07,1.14v4.22h-1.48v-4.6h-5.87v4.6h-1.5v-11.62Zm4.3,5.73c.69,0,1.25-.06,1.69-.17s.77-.34,1.01-.68c.24-.33,.35-.82,.35-1.44s-.12-1.11-.35-1.42c-.24-.31-.56-.51-.98-.6s-.99-.14-1.71-.14h-2.8v4.45h2.8Z"/><path class="e" d="M234.81,429.46h1.5v5.09h.82l4.93-5.09h1.88l-5.45,5.7,5.5,5.92h-1.98l-4.91-5.27h-.79v5.27h-1.5v-11.62Z"/><path class="e" d="M252.62,429.46v1.29h-2.6v9.05h2.6v1.29h-6.69v-1.29h2.6v-9.05h-2.6v-1.29h6.69Z"/><path class="e" d="M255.24,429.46h3l5.54,11.2h.41l-.25-1.04v-10.17h1.48v11.62h-3l-5.52-11.2h-.43l.26,1.04v10.17h-1.5v-11.62Z"/><path class="e" d="M270.32,440.49c-.78-.5-1.37-1.2-1.75-2.08-.39-.88-.58-1.9-.58-3.04,0-1.22,.22-2.29,.66-3.2,.44-.92,1.07-1.63,1.9-2.13,.83-.5,1.82-.76,2.97-.76,1.41,0,2.56,.38,3.46,1.15,.9,.77,1.44,1.83,1.63,3.18h-1.52c-.13-.97-.51-1.72-1.12-2.25-.62-.53-1.42-.8-2.41-.8-1.3,0-2.3,.44-3.01,1.31s-1.06,2.05-1.06,3.53c0,1.36,.32,2.46,.97,3.3,.65,.84,1.66,1.26,3.03,1.26,1.27,0,2.24-.34,2.9-1.02,.66-.68,.97-1.67,.92-2.97h-4.5v-1.15h4.99c.69,0,1.04,.32,1.04,.97v5.27h-1.5v-1.32l.31-1.57h-.43c-.03,.4-.16,.82-.4,1.29-.23,.46-.64,.87-1.24,1.24-.59,.36-1.4,.54-2.41,.54-1.14,0-2.1-.25-2.88-.76Z"/><path class="e" d="M299,441.07h-2.9l-1.99-11.2h-.41l-1.94,11.2h-2.93l-2.14-11.62h1.48l1.91,9.97-.1,1.24h.43l1.98-11.2h3.06l1.96,11.2h.43l-.07-1.24,1.86-9.97h1.48l-2.11,11.62Z"/><path class="e" d="M309.46,429.46v1.29h-2.6v9.05h2.6v1.29h-6.69v-1.29h2.6v-9.05h-2.6v-1.29h6.69Z"/><path class="e" d="M321.06,429.46v1.29h-3.99v10.33h-1.5v-10.33h-4v-1.29h9.49Z"/><path class="e" d="M324.72,429.46v5.24h6.62v-5.24h1.5v11.62h-1.5v-5.07h-6.62v5.07h-1.5v-11.62h1.5Z"/><path class="e" d="M347.94,429.46v1.29h-2.6v9.05h2.6v1.29h-6.69v-1.29h2.6v-9.05h-2.6v-1.29h6.69Z"/><path class="e" d="M350.56,429.46h3l5.54,11.2h.41l-.25-1.04v-10.17h1.48v11.62h-3l-5.52-11.2h-.43l.26,1.04v10.17h-1.5v-11.62Z"/><path class="e" d="M363.52,429.46h3l5.54,11.2h.41l-.25-1.04v-10.17h1.48v11.62h-3l-5.52-11.2h-.43l.26,1.04v10.17h-1.5v-11.62Z"/><path class="e" d="M376.92,432.18c.44-.91,1.07-1.62,1.9-2.13,.83-.52,1.8-.77,2.92-.77s2.09,.26,2.92,.77,1.46,1.23,1.9,2.13c.44,.91,.66,1.93,.66,3.07s-.22,2.17-.66,3.07c-.44,.91-1.07,1.62-1.9,2.14-.82,.52-1.8,.78-2.92,.78s-2.1-.26-2.92-.78c-.83-.52-1.46-1.24-1.9-2.14-.44-.91-.66-1.93-.66-3.07s.22-2.17,.66-3.07Zm1.87,6.48c.68,.86,1.66,1.29,2.96,1.29s2.28-.43,2.96-1.29c.68-.86,1.01-1.99,1.01-3.41s-.34-2.55-1.01-3.4c-.68-.85-1.66-1.28-2.96-1.28s-2.28,.43-2.96,1.28c-.68,.85-1.01,1.99-1.01,3.4s.34,2.55,1.01,3.41Z"/><path class="e" d="M387.99,429.46h1.55l3.54,11.2h.43l3.54-11.2h1.55l-3.71,11.62h-3.21l-3.69-11.62Z"/><path class="e" d="M402.26,429.46h3.21l3.71,11.62h-1.57l-1.4-4.45h-4.7l-1.4,4.45h-1.55l3.69-11.62Zm3.54,5.88l-1.73-5.47h-.41l-1.73,5.47h3.87Z"/><path class="e" d="M418.62,429.46v1.29h-3.99v10.33h-1.5v-10.33h-4v-1.29h9.49Z"/><path class="e" d="M427.42,429.46v1.29h-2.6v9.05h2.6v1.29h-6.69v-1.29h2.6v-9.05h-2.6v-1.29h6.69Z"/><path class="e" d="M429.3,429.46h1.55l3.54,11.2h.43l3.54-11.2h1.55l-3.71,11.62h-3.21l-3.69-11.62Z"/><path class="e" d="M441.95,429.46h8.07v1.29h-6.57v3.89h5.75v1.25h-5.75v3.91h6.57v1.29h-8.07v-11.62Z"/><path class="e" d="M458.28,429.46h3.38c1.64,0,2.85,.29,3.65,.86s1.19,1.57,1.19,2.98-.4,2.41-1.19,2.99c-.8,.58-2.01,.87-3.65,.87h-1.88v3.92h-1.5v-11.62Zm3.43,6.41c.71,0,1.31-.07,1.78-.21,.47-.14,.85-.39,1.12-.77,.27-.37,.41-.91,.41-1.6s-.14-1.23-.41-1.6c-.27-.37-.65-.63-1.12-.76s-1.07-.2-1.78-.2h-1.93v5.12h1.93Z"/><path class="e" d="M470.98,429.46h3.21l3.71,11.62h-1.57l-1.4-4.45h-4.7l-1.4,4.45h-1.55l3.69-11.62Zm3.54,5.88l-1.73-5.47h-.41l-1.73,5.47h3.87Z"/><path class="e" d="M479.93,429.46h4.3c1.48,0,2.61,.23,3.38,.68,.77,.45,1.15,1.26,1.15,2.44,0,.86-.2,1.49-.6,1.91-.4,.42-.97,.69-1.72,.82v.41h1.27c.71,0,1.07,.38,1.07,1.14v4.22h-1.48v-4.6h-5.87v4.6h-1.5v-11.62Zm4.3,5.73c.69,0,1.25-.06,1.69-.17s.77-.34,1.01-.68c.24-.33,.35-.82,.35-1.44s-.12-1.11-.35-1.42c-.24-.31-.56-.51-.98-.6s-.99-.14-1.71-.14h-2.8v4.45h2.8Z"/><path class="e" d="M499.9,429.46v1.29h-3.99v10.33h-1.5v-10.33h-4v-1.29h9.49Z"/><path class="e" d="M502.06,429.46h3l5.54,11.2h.41l-.25-1.04v-10.17h1.48v11.62h-3l-5.52-11.2h-.43l.26,1.04v10.17h-1.5v-11.62Z"/><path class="e" d="M515.02,429.46h8.07v1.29h-6.57v3.89h5.75v1.25h-5.75v3.91h6.57v1.29h-8.07v-11.62Z"/><path class="e" d="M525.49,429.46h4.3c1.48,0,2.61,.23,3.38,.68,.77,.45,1.15,1.26,1.15,2.44,0,.86-.2,1.49-.6,1.91-.4,.42-.97,.69-1.72,.82v.41h1.27c.71,0,1.07,.38,1.07,1.14v4.22h-1.48v-4.6h-5.87v4.6h-1.5v-11.62Zm4.3,5.73c.69,0,1.25-.06,1.69-.17s.77-.34,1.01-.68c.24-.33,.35-.82,.35-1.44s-.12-1.11-.35-1.42c-.24-.31-.56-.51-.98-.6s-.99-.14-1.71-.14h-2.8v4.45h2.8Z"/><path class="e" d="M545.28,440.41c-.74,.56-1.87,.84-3.39,.84-1.75,0-3.07-.39-3.98-1.17-.91-.78-1.36-1.91-1.36-3.38h1.52c0,1.11,.32,1.93,.96,2.47s1.61,.81,2.89,.81c1,0,1.74-.16,2.22-.48,.48-.32,.72-.8,.72-1.45,0-.97-.65-1.61-1.94-1.94l-3.25-.84c-1.72-.45-2.59-1.42-2.59-2.92,0-1,.35-1.76,1.05-2.29,.7-.53,1.72-.79,3.06-.79,1.56,0,2.75,.35,3.58,1.06,.83,.71,1.24,1.69,1.24,2.96h-1.53c0-1.85-1.1-2.77-3.3-2.77-1.74,0-2.6,.59-2.6,1.76,0,.88,.59,1.47,1.76,1.78l3.21,.81c.93,.24,1.63,.62,2.1,1.15,.47,.52,.7,1.17,.7,1.95,0,1.07-.37,1.88-1.11,2.44Z"/><path class="e" d="M102.08,461.29h-2.9l-1.99-11.2h-.41l-1.94,11.2h-2.93l-2.14-11.62h1.48l1.91,9.97-.1,1.24h.43l1.98-11.2h3.06l1.96,11.2h.43l-.07-1.24,1.86-9.97h1.48l-2.11,11.62Z"/><path class="e" d="M107.57,449.68v5.24h6.62v-5.24h1.5v11.62h-1.5v-5.07h-6.62v5.07h-1.5v-11.62h1.5Z"/><path class="e" d="M118.9,452.4c.44-.91,1.07-1.62,1.9-2.13,.83-.52,1.8-.77,2.92-.77s2.09,.26,2.92,.77,1.46,1.23,1.9,2.13c.44,.91,.66,1.93,.66,3.07s-.22,2.17-.66,3.07c-.44,.91-1.07,1.62-1.9,2.14-.82,.52-1.8,.78-2.92,.78s-2.1-.26-2.92-.78c-.83-.52-1.46-1.24-1.9-2.14-.44-.91-.66-1.93-.66-3.07s.22-2.17,.66-3.07Zm1.87,6.48c.68,.86,1.66,1.29,2.96,1.29s2.28-.43,2.96-1.29c.68-.86,1.01-1.99,1.01-3.41s-.34-2.55-1.01-3.4c-.68-.85-1.66-1.28-2.96-1.28s-2.28,.43-2.96,1.28c-.68,.85-1.01,1.99-1.01,3.4s.34,2.55,1.01,3.41Z"/><path class="e" d="M145.8,460.63c-.74,.56-1.87,.84-3.39,.84-1.75,0-3.07-.39-3.98-1.17-.91-.78-1.36-1.91-1.36-3.38h1.52c0,1.11,.32,1.93,.96,2.47s1.61,.81,2.89,.81c1,0,1.74-.16,2.22-.48,.48-.32,.72-.8,.72-1.45,0-.97-.65-1.61-1.94-1.94l-3.25-.84c-1.72-.45-2.59-1.42-2.59-2.92,0-1,.35-1.76,1.05-2.29,.7-.53,1.72-.79,3.06-.79,1.56,0,2.75,.35,3.58,1.06,.83,.71,1.24,1.69,1.24,2.96h-1.53c0-1.85-1.1-2.77-3.3-2.77-1.74,0-2.6,.59-2.6,1.76,0,.88,.59,1.47,1.76,1.78l3.21,.81c.93,.24,1.63,.62,2.1,1.15,.47,.52,.7,1.17,.7,1.95,0,1.07-.37,1.88-1.11,2.44Z"/><path class="e" d="M149.2,449.68h8.07v1.29h-6.57v3.89h5.75v1.25h-5.75v3.91h6.57v1.29h-8.07v-11.62Z"/><path class="e" d="M159.66,449.68h8.07v1.29h-6.57v3.89h5.75v1.25h-5.75v3.91h6.57v1.29h-8.07v-11.62Z"/><path class="e" d="M170.13,449.68h1.5v5.09h.82l4.93-5.09h1.88l-5.45,5.7,5.5,5.92h-1.98l-4.91-5.27h-.79v5.27h-1.5v-11.62Z"/><path class="e" d="M196.22,449.68v1.29h-3.99v10.33h-1.5v-10.33h-4v-1.29h9.49Z"/><path class="e" d="M199.88,449.68v5.24h6.62v-5.24h1.5v11.62h-1.5v-5.07h-6.62v5.07h-1.5v-11.62h1.5Z"/><path class="e" d="M217.31,449.68v1.29h-2.6v9.05h2.6v1.29h-6.69v-1.29h2.6v-9.05h-2.6v-1.29h6.69Z"/><path class="e" d="M219.93,449.68h3l5.54,11.2h.41l-.25-1.04v-10.17h1.48v11.62h-3l-5.52-11.2h-.43l.26,1.04v10.17h-1.5v-11.62Z"/><path class="e" d="M232.9,449.68h1.5v5.09h.82l4.93-5.09h1.88l-5.45,5.7,5.5,5.92h-1.98l-4.91-5.27h-.79v5.27h-1.5v-11.62Z"/><path class="e" d="M244.2,449.68h8.07v1.29h-6.57v3.89h5.75v1.25h-5.75v3.91h6.57v1.29h-8.07v-11.62Z"/><path class="e" d="M254.67,449.68h4.3c1.48,0,2.61,.23,3.38,.68,.77,.45,1.15,1.26,1.15,2.44,0,.86-.2,1.49-.6,1.91-.4,.42-.97,.69-1.72,.82v.41h1.27c.71,0,1.07,.38,1.07,1.14v4.22h-1.48v-4.6h-5.87v4.6h-1.5v-11.62Zm4.3,5.73c.69,0,1.25-.06,1.69-.17s.77-.34,1.01-.68c.24-.33,.35-.82,.35-1.44s-.12-1.11-.35-1.42c-.24-.31-.56-.51-.98-.6s-.99-.14-1.71-.14h-2.8v4.45h2.8Z"/><path class="e" d="M274.46,460.63c-.74,.56-1.87,.84-3.39,.84-1.75,0-3.07-.39-3.98-1.17-.91-.78-1.36-1.91-1.36-3.38h1.52c0,1.11,.32,1.93,.96,2.47s1.61,.81,2.89,.81c1,0,1.74-.16,2.22-.48,.48-.32,.72-.8,.72-1.45,0-.97-.65-1.61-1.94-1.94l-3.25-.84c-1.72-.45-2.59-1.42-2.59-2.92,0-1,.35-1.76,1.05-2.29,.7-.53,1.72-.79,3.06-.79,1.56,0,2.75,.35,3.58,1.06,.83,.71,1.24,1.69,1.24,2.96h-1.53c0-1.85-1.1-2.77-3.3-2.77-1.74,0-2.6,.59-2.6,1.76,0,.88,.59,1.47,1.76,1.78l3.21,.81c.93,.24,1.63,.62,2.1,1.15,.47,.52,.7,1.17,.7,1.95,0,1.07-.37,1.88-1.11,2.44Z"/><path class="e" d="M286.61,449.68h3.21l3.71,11.62h-1.57l-1.4-4.45h-4.7l-1.4,4.45h-1.55l3.69-11.62Zm3.54,5.88l-1.73-5.47h-.41l-1.73,5.47h3.87Z"/><path class="e" d="M295.56,449.68h3l5.54,11.2h.41l-.25-1.04v-10.17h1.48v11.62h-3l-5.52-11.2h-.43l.26,1.04v10.17h-1.5v-11.62Z"/><path class="e" d="M308.53,449.68h3.74c1.11,0,2.09,.15,2.95,.45,.86,.3,1.56,.87,2.11,1.73,.55,.86,.82,2.07,.82,3.62s-.27,2.79-.82,3.64c-.55,.86-1.25,1.43-2.11,1.73-.86,.3-1.84,.45-2.95,.45h-3.74v-11.62Zm3.74,10.33c.86,0,1.59-.1,2.21-.29s1.13-.62,1.55-1.29c.42-.67,.63-1.65,.63-2.96s-.21-2.28-.63-2.94c-.42-.67-.93-1.09-1.55-1.29s-1.35-.29-2.21-.29h-2.24v9.05h2.24Z"/><path class="e" d="M326.5,449.68h3l3.08,11.2h.43l3.08-11.2h2.98v11.62h-1.5v-9.77l.25-1.43h-.41l-3.13,11.2h-3l-3.11-11.2h-.43l.26,1.43v9.77h-1.5v-11.62Z"/><path class="e" d="M344.81,449.68h3.21l3.71,11.62h-1.57l-1.4-4.45h-4.7l-1.4,4.45h-1.55l3.69-11.62Zm3.54,5.88l-1.73-5.47h-.41l-1.73,5.47h3.87Z"/><path class="e" d="M353.75,449.68h1.5v5.09h.82l4.93-5.09h1.88l-5.45,5.7,5.5,5.92h-1.98l-4.91-5.27h-.79v5.27h-1.5v-11.62Z"/><path class="e" d="M365.06,449.68h8.07v1.29h-6.57v3.89h5.75v1.25h-5.75v3.91h6.57v1.29h-8.07v-11.62Z"/><path class="e" d="M375.52,449.68h4.3c1.48,0,2.61,.23,3.38,.68,.77,.45,1.15,1.26,1.15,2.44,0,.86-.2,1.49-.6,1.91-.4,.42-.97,.69-1.72,.82v.41h1.27c.71,0,1.07,.38,1.07,1.14v4.22h-1.48v-4.6h-5.87v4.6h-1.5v-11.62Zm4.3,5.73c.69,0,1.25-.06,1.69-.17s.77-.34,1.01-.68c.24-.33,.35-.82,.35-1.44s-.12-1.11-.35-1.42c-.24-.31-.56-.51-.98-.6s-.99-.14-1.71-.14h-2.8v4.45h2.8Z"/><path class="e" d="M395.31,460.63c-.74,.56-1.87,.84-3.39,.84-1.75,0-3.07-.39-3.98-1.17-.91-.78-1.36-1.91-1.36-3.38h1.52c0,1.11,.32,1.93,.96,2.47s1.61,.81,2.89,.81c1,0,1.74-.16,2.22-.48,.48-.32,.72-.8,.72-1.45,0-.97-.65-1.61-1.94-1.94l-3.25-.84c-1.72-.45-2.59-1.42-2.59-2.92,0-1,.35-1.76,1.05-2.29,.7-.53,1.72-.79,3.06-.79,1.56,0,2.75,.35,3.58,1.06,.83,.71,1.24,1.69,1.24,2.96h-1.53c0-1.85-1.1-2.77-3.3-2.77-1.74,0-2.6,.59-2.6,1.76,0,.88,.59,1.47,1.76,1.78l3.21,.81c.93,.24,1.63,.62,2.1,1.15,.47,.52,.7,1.17,.7,1.95,0,1.07-.37,1.88-1.11,2.44Z"/><path class="e" d="M416.02,461.29h-2.9l-1.99-11.2h-.41l-1.94,11.2h-2.93l-2.14-11.62h1.48l1.91,9.97-.1,1.24h.43l1.98-11.2h3.06l1.96,11.2h.43l-.07-1.24,1.86-9.97h1.48l-2.11,11.62Z"/><path class="e" d="M426.48,449.68v1.29h-2.6v9.05h2.6v1.29h-6.69v-1.29h2.6v-9.05h-2.6v-1.29h6.69Z"/><path class="e" d="M438.08,449.68v1.29h-3.99v10.33h-1.5v-10.33h-4v-1.29h9.49Z"/><path class="e" d="M441.74,449.68v5.24h6.62v-5.24h1.5v11.62h-1.5v-5.07h-6.62v5.07h-1.5v-11.62h1.5Z"/><path class="e" d="M459.17,449.68v1.29h-2.6v9.05h2.6v1.29h-6.69v-1.29h2.6v-9.05h-2.6v-1.29h6.69Z"/><path class="e" d="M461.79,449.68h3l5.54,11.2h.41l-.25-1.04v-10.17h1.48v11.62h-3l-5.52-11.2h-.43l.26,1.04v10.17h-1.5v-11.62Z"/><path class="e" d="M91.01,472.62c.44-.91,1.07-1.62,1.9-2.13,.83-.52,1.8-.77,2.92-.77s2.09,.26,2.92,.77,1.46,1.23,1.9,2.13c.44,.91,.66,1.93,.66,3.07s-.22,2.17-.66,3.07c-.44,.91-1.07,1.62-1.9,2.14-.82,.52-1.8,.78-2.92,.78s-2.1-.26-2.92-.78c-.83-.52-1.46-1.24-1.9-2.14-.44-.91-.66-1.93-.66-3.07s.22-2.17,.66-3.07Zm1.87,6.48c.68,.86,1.66,1.29,2.96,1.29s2.28-.43,2.96-1.29c.68-.86,1.01-1.99,1.01-3.41s-.34-2.55-1.01-3.4c-.68-.85-1.66-1.28-2.96-1.28s-2.28,.43-2.96,1.28c-.68,.85-1.01,1.99-1.01,3.4s.34,2.55,1.01,3.41Z"/><path class="e" d="M103.86,469.9h3l5.54,11.2h.41l-.25-1.04v-10.17h1.48v11.62h-3l-5.52-11.2h-.43l.26,1.04v10.17h-1.5v-11.62Z"/><path class="e" d="M116.83,469.9h8.07v1.29h-6.57v3.89h5.75v1.25h-5.75v3.91h6.57v1.29h-8.07v-11.62Z"/><path class="e" d="M135.48,480.91c-.83-.52-1.46-1.24-1.9-2.14-.44-.91-.66-1.93-.66-3.07s.22-2.17,.66-3.07c.44-.91,1.08-1.62,1.91-2.13,.83-.52,1.81-.77,2.93-.77,1.49,0,2.71,.42,3.64,1.24,.93,.83,1.49,1.97,1.66,3.42h-1.5c-.13-1.07-.52-1.89-1.18-2.48-.65-.59-1.53-.88-2.63-.88-1.27,0-2.26,.43-2.95,1.28-.69,.85-1.04,1.99-1.04,3.4s.35,2.57,1.04,3.42c.69,.85,1.68,1.28,2.95,1.28,1.1,0,1.97-.29,2.63-.88,.65-.59,1.05-1.42,1.18-2.5h1.5c-.18,1.46-.73,2.61-1.66,3.44-.93,.83-2.15,1.24-3.64,1.24-1.13,0-2.11-.26-2.94-.78Z"/><path class="e" d="M146.28,469.9h4.3c1.48,0,2.61,.23,3.38,.68,.77,.45,1.15,1.26,1.15,2.44,0,.86-.2,1.49-.6,1.91-.4,.42-.97,.69-1.72,.82v.41h1.27c.71,0,1.07,.38,1.07,1.14v4.22h-1.48v-4.6h-5.87v4.6h-1.5v-11.62Zm4.3,5.73c.69,0,1.25-.06,1.69-.17s.77-.34,1.01-.68c.24-.33,.35-.82,.35-1.44s-.12-1.11-.35-1.42c-.24-.31-.56-.51-.98-.6s-.99-.14-1.71-.14h-2.8v4.45h2.8Z"/><path class="e" d="M157.85,469.9h8.07v1.29h-6.57v3.89h5.75v1.25h-5.75v3.91h6.57v1.29h-8.07v-11.62Z"/><path class="e" d="M171.34,469.9h3.21l3.71,11.62h-1.57l-1.4-4.45h-4.7l-1.4,4.45h-1.55l3.69-11.62Zm3.54,5.88l-1.73-5.47h-.41l-1.73,5.47h3.87Z"/><path class="e" d="M187.71,469.9v1.29h-3.99v10.33h-1.5v-10.33h-4v-1.29h9.49Z"/><path class="e" d="M196.5,469.9v1.29h-2.6v9.05h2.6v1.29h-6.69v-1.29h2.6v-9.05h-2.6v-1.29h6.69Z"/><path class="e" d="M198.38,469.9h1.55l3.54,11.2h.43l3.54-11.2h1.55l-3.71,11.62h-3.21l-3.69-11.62Z"/><path class="e" d="M211.04,469.9h8.07v1.29h-6.57v3.89h5.75v1.25h-5.75v3.91h6.57v1.29h-8.07v-11.62Z"/><path class="e" d="M229.69,480.91c-.83-.52-1.46-1.24-1.9-2.14-.44-.91-.66-1.93-.66-3.07s.22-2.17,.66-3.07c.44-.91,1.08-1.62,1.91-2.13,.83-.52,1.81-.77,2.93-.77,1.49,0,2.71,.42,3.64,1.24,.93,.83,1.49,1.97,1.66,3.42h-1.5c-.13-1.07-.52-1.89-1.18-2.48-.65-.59-1.53-.88-2.63-.88-1.27,0-2.26,.43-2.95,1.28-.69,.85-1.04,1.99-1.04,3.4s.35,2.57,1.04,3.42c.69,.85,1.68,1.28,2.95,1.28,1.1,0,1.97-.29,2.63-.88,.65-.59,1.05-1.42,1.18-2.5h1.5c-.18,1.46-.73,2.61-1.66,3.44-.93,.83-2.15,1.24-3.64,1.24-1.13,0-2.11-.26-2.94-.78Z"/><path class="e" d="M240.92,472.62c.44-.91,1.07-1.62,1.9-2.13,.83-.52,1.8-.77,2.92-.77s2.09,.26,2.92,.77,1.46,1.23,1.9,2.13c.44,.91,.66,1.93,.66,3.07s-.22,2.17-.66,3.07c-.44,.91-1.07,1.62-1.9,2.14-.82,.52-1.8,.78-2.92,.78s-2.1-.26-2.92-.78c-.83-.52-1.46-1.24-1.9-2.14-.44-.91-.66-1.93-.66-3.07s.22-2.17,.66-3.07Zm1.87,6.48c.68,.86,1.66,1.29,2.96,1.29s2.28-.43,2.96-1.29c.68-.86,1.01-1.99,1.01-3.41s-.34-2.55-1.01-3.4c-.68-.85-1.66-1.28-2.96-1.28s-2.28,.43-2.96,1.28c-.68,.85-1.01,1.99-1.01,3.4s.34,2.55,1.01,3.41Z"/><path class="e" d="M253.77,469.9h3l3.08,11.2h.43l3.08-11.2h2.98v11.62h-1.5v-9.77l.25-1.43h-.41l-3.13,11.2h-3l-3.11-11.2h-.43l.26,1.43v9.77h-1.5v-11.62Z"/><path class="e" d="M269.13,469.9h3.38c1.64,0,2.85,.29,3.65,.86s1.19,1.57,1.19,2.98-.4,2.41-1.19,2.99c-.8,.58-2.01,.87-3.65,.87h-1.88v3.92h-1.5v-11.62Zm3.43,6.41c.71,0,1.31-.07,1.78-.21,.47-.14,.85-.39,1.12-.77,.27-.37,.41-.91,.41-1.6s-.14-1.23-.41-1.6c-.27-.37-.65-.63-1.12-.76s-1.07-.2-1.78-.2h-1.93v5.12h1.93Z"/><path class="e" d="M281.83,469.9h3.21l3.71,11.62h-1.57l-1.4-4.45h-4.7l-1.4,4.45h-1.55l3.69-11.62Zm3.54,5.88l-1.73-5.47h-.41l-1.73,5.47h3.87Z"/><path class="e" d="M290.78,469.9h3l5.54,11.2h.41l-.25-1.04v-10.17h1.48v11.62h-3l-5.52-11.2h-.43l.26,1.04v10.17h-1.5v-11.62Z"/><path class="e" d="M312.88,469.9l-3.46,6.72h-.77v4.89h-1.48v-4.89h-.77l-3.44-6.72h1.58l3.16,6.33h.43l3.16-6.33h1.6Z"/><path class="e" d="M312.8,481.27c-.27-.27-.4-.6-.4-1s.13-.73,.4-.99c.27-.26,.6-.4,1-.4s.73,.13,1.01,.4c.27,.27,.41,.6,.41,.98s-.14,.71-.41,.99c-.27,.27-.61,.41-1.01,.41s-.73-.13-1-.4Z"/></g><g><path class="e" d="M657.84,429.64h7.71v1.29h-6.21v4.17h5.49v1.27h-5.49v4.89h-1.5v-11.62Z"/><path class="e" d="M667.74,429.64h1.5v6.99c0,1.21,.23,2.09,.7,2.66,.47,.57,1.29,.85,2.46,.85s2-.28,2.48-.85,.72-1.45,.72-2.66v-6.99h1.5v7.3c0,1.47-.39,2.59-1.16,3.35-.77,.76-1.95,1.15-3.53,1.15-3.11,0-4.66-1.5-4.66-4.5v-7.3Z"/><path class="e" d="M687.82,440.59c-.74,.56-1.87,.84-3.39,.84-1.75,0-3.07-.39-3.98-1.17-.91-.78-1.36-1.91-1.36-3.38h1.52c0,1.11,.32,1.93,.96,2.47s1.61,.81,2.89,.81c1,0,1.74-.16,2.22-.48,.48-.32,.73-.8,.73-1.45,0-.97-.65-1.61-1.94-1.94l-3.25-.84c-1.72-.45-2.59-1.42-2.59-2.92,0-1,.35-1.76,1.05-2.29s1.72-.79,3.06-.79c1.56,0,2.75,.35,3.58,1.06,.83,.71,1.24,1.69,1.24,2.96h-1.53c0-1.84-1.1-2.77-3.3-2.77-1.74,0-2.6,.59-2.6,1.76,0,.88,.59,1.47,1.76,1.78l3.21,.81c.93,.24,1.63,.62,2.1,1.15,.47,.52,.7,1.17,.7,1.95,0,1.07-.37,1.88-1.11,2.44Z"/><path class="e" d="M697.43,429.64v1.29h-2.6v9.04h2.6v1.29h-6.69v-1.29h2.6v-9.04h-2.6v-1.29h6.69Z"/><path class="e" d="M700.05,429.64h3l5.54,11.2h.41l-.25-1.04v-10.17h1.48v11.62h-3l-5.52-11.2h-.43l.26,1.04v10.17h-1.5v-11.62Z"/><path class="e" d="M715.13,440.68c-.78-.51-1.36-1.2-1.75-2.08-.39-.88-.58-1.9-.58-3.04,0-1.22,.22-2.29,.66-3.2s1.07-1.63,1.9-2.13,1.82-.76,2.97-.76c1.41,0,2.56,.38,3.46,1.15,.9,.77,1.44,1.83,1.63,3.18h-1.52c-.13-.97-.51-1.72-1.12-2.25s-1.42-.8-2.41-.8c-1.3,0-2.3,.44-3.01,1.31-.71,.87-1.06,2.05-1.06,3.53,0,1.36,.32,2.46,.97,3.3s1.66,1.26,3.03,1.26c1.27,0,2.24-.34,2.9-1.02,.66-.68,.97-1.67,.92-2.97h-4.5v-1.15h4.99c.69,0,1.04,.32,1.04,.97v5.27h-1.5v-1.32l.31-1.56h-.43c-.03,.39-.16,.82-.39,1.29-.23,.46-.64,.87-1.24,1.24-.59,.36-1.39,.54-2.41,.54-1.14,0-2.1-.25-2.88-.76Z"/><path class="e" d="M732.31,429.64h3.74c1.11,0,2.09,.15,2.95,.44,.86,.3,1.56,.87,2.11,1.73,.55,.86,.82,2.07,.82,3.62s-.27,2.79-.82,3.64c-.55,.86-1.25,1.43-2.11,1.73-.86,.3-1.84,.45-2.95,.45h-3.74v-11.62Zm3.74,10.33c.86,0,1.59-.1,2.21-.29,.62-.19,1.13-.62,1.55-1.28,.42-.67,.63-1.65,.63-2.96s-.21-2.28-.63-2.94c-.42-.66-.93-1.09-1.55-1.29-.62-.19-1.35-.29-2.21-.29h-2.24v9.04h2.24Z"/><path class="e" d="M744.49,429.64h8.07v1.29h-6.57v3.89h5.75v1.25h-5.75v3.9h6.57v1.29h-8.07v-11.62Z"/><path class="e" d="M762.84,440.59c-.74,.56-1.87,.84-3.39,.84-1.75,0-3.07-.39-3.98-1.17-.91-.78-1.36-1.91-1.36-3.38h1.52c0,1.11,.32,1.93,.96,2.47s1.61,.81,2.89,.81c1,0,1.74-.16,2.22-.48,.48-.32,.73-.8,.73-1.45,0-.97-.65-1.61-1.94-1.94l-3.25-.84c-1.72-.45-2.59-1.42-2.59-2.92,0-1,.35-1.76,1.05-2.29s1.72-.79,3.06-.79c1.56,0,2.75,.35,3.58,1.06,.83,.71,1.24,1.69,1.24,2.96h-1.53c0-1.84-1.1-2.77-3.3-2.77-1.74,0-2.6,.59-2.6,1.76,0,.88,.59,1.47,1.76,1.78l3.21,.81c.93,.24,1.63,.62,2.1,1.15,.47,.52,.7,1.17,.7,1.95,0,1.07-.37,1.88-1.11,2.44Z"/><path class="e" d="M772.45,429.64v1.29h-2.6v9.04h2.6v1.29h-6.69v-1.29h2.6v-9.04h-2.6v-1.29h6.69Z"/><path class="e" d="M776.39,440.68c-.78-.51-1.36-1.2-1.75-2.08-.39-.88-.58-1.9-.58-3.04,0-1.22,.22-2.29,.66-3.2s1.07-1.63,1.9-2.13,1.82-.76,2.97-.76c1.41,0,2.56,.38,3.46,1.15,.9,.77,1.44,1.83,1.63,3.18h-1.52c-.13-.97-.51-1.72-1.12-2.25s-1.42-.8-2.41-.8c-1.3,0-2.3,.44-3.01,1.31-.71,.87-1.06,2.05-1.06,3.53,0,1.36,.32,2.46,.97,3.3s1.66,1.26,3.03,1.26c1.27,0,2.24-.34,2.9-1.02,.66-.68,.97-1.67,.92-2.97h-4.5v-1.15h4.99c.69,0,1.04,.32,1.04,.97v5.27h-1.5v-1.32l.31-1.56h-.43c-.03,.39-.16,.82-.39,1.29-.23,.46-.64,.87-1.24,1.24-.59,.36-1.39,.54-2.41,.54-1.14,0-2.1-.25-2.88-.76Z"/><path class="e" d="M787.74,429.64h3l5.54,11.2h.41l-.25-1.04v-10.17h1.48v11.62h-3l-5.52-11.2h-.43l.26,1.04v10.17h-1.5v-11.62Z"/><path class="e" d="M815.5,429.64v1.29h-3.99v10.33h-1.5v-10.33h-4v-1.29h9.49Z"/><path class="e" d="M819.16,429.64v5.24h6.62v-5.24h1.5v11.62h-1.5v-5.07h-6.62v5.07h-1.5v-11.62h1.5Z"/><path class="e" d="M836.59,429.64v1.29h-2.6v9.04h2.6v1.29h-6.69v-1.29h2.6v-9.04h-2.6v-1.29h6.69Z"/><path class="e" d="M839.21,429.64h3l5.54,11.2h.41l-.25-1.04v-10.17h1.48v11.62h-3l-5.52-11.2h-.43l.26,1.04v10.17h-1.5v-11.62Z"/><path class="e" d="M852.18,429.64h1.5v5.09h.82l4.93-5.09h1.88l-5.45,5.7,5.5,5.92h-1.98l-4.91-5.27h-.79v5.27h-1.5v-11.62Z"/><path class="e" d="M869.99,429.64v1.29h-2.6v9.04h2.6v1.29h-6.69v-1.29h2.6v-9.04h-2.6v-1.29h6.69Z"/><path class="e" d="M872.61,429.64h3l5.54,11.2h.41l-.25-1.04v-10.17h1.48v11.62h-3l-5.52-11.2h-.43l.26,1.04v10.17h-1.5v-11.62Z"/><path class="e" d="M887.68,440.68c-.78-.51-1.36-1.2-1.75-2.08-.39-.88-.58-1.9-.58-3.04,0-1.22,.22-2.29,.66-3.2s1.07-1.63,1.9-2.13,1.82-.76,2.97-.76c1.41,0,2.56,.38,3.46,1.15,.9,.77,1.44,1.83,1.63,3.18h-1.52c-.13-.97-.51-1.72-1.12-2.25s-1.42-.8-2.41-.8c-1.3,0-2.3,.44-3.01,1.31-.71,.87-1.06,2.05-1.06,3.53,0,1.36,.32,2.46,.97,3.3s1.66,1.26,3.03,1.26c1.27,0,2.24-.34,2.9-1.02,.66-.68,.97-1.67,.92-2.97h-4.5v-1.15h4.99c.69,0,1.04,.32,1.04,.97v5.27h-1.5v-1.32l.31-1.56h-.43c-.03,.39-.16,.82-.39,1.29-.23,.46-.64,.87-1.24,1.24-.59,.36-1.39,.54-2.41,.54-1.14,0-2.1-.25-2.88-.76Z"/><path class="e" d="M907.82,429.64h3.21l3.71,11.62h-1.57l-1.4-4.45h-4.7l-1.4,4.45h-1.55l3.69-11.62Zm3.54,5.88l-1.73-5.47h-.41l-1.73,5.47h3.87Z"/><path class="e" d="M916.77,429.64h3l5.54,11.2h.41l-.25-1.04v-10.17h1.48v11.62h-3l-5.52-11.2h-.43l.26,1.04v10.17h-1.5v-11.62Z"/><path class="e" d="M929.73,429.64h3.74c1.11,0,2.09,.15,2.95,.44,.86,.3,1.56,.87,2.11,1.73,.55,.86,.82,2.07,.82,3.62s-.27,2.79-.82,3.64c-.55,.86-1.25,1.43-2.11,1.73-.86,.3-1.84,.45-2.95,.45h-3.74v-11.62Zm3.74,10.33c.86,0,1.59-.1,2.21-.29,.62-.19,1.13-.62,1.55-1.28,.42-.67,.63-1.65,.63-2.96s-.21-2.28-.63-2.94c-.42-.66-.93-1.09-1.55-1.29-.62-.19-1.35-.29-2.21-.29h-2.24v9.04h2.24Z"/><path class="e" d="M947.71,429.64h3l3.08,11.2h.43l3.08-11.2h2.98v11.62h-1.5v-9.77l.25-1.43h-.41l-3.13,11.2h-3l-3.11-11.2h-.43l.26,1.43v9.77h-1.5v-11.62Z"/><path class="e" d="M963.49,432.36c.44-.91,1.07-1.62,1.9-2.13s1.8-.77,2.92-.77,2.09,.26,2.92,.77c.82,.52,1.46,1.23,1.89,2.13s.66,1.93,.66,3.07-.22,2.17-.66,3.07-1.07,1.62-1.89,2.14c-.82,.52-1.8,.78-2.92,.78s-2.1-.26-2.92-.78-1.46-1.24-1.9-2.14-.66-1.93-.66-3.07,.22-2.17,.66-3.07Zm1.87,6.48c.68,.86,1.66,1.29,2.96,1.29s2.28-.43,2.96-1.29c.68-.86,1.01-1.99,1.01-3.41s-.34-2.55-1.01-3.4c-.67-.85-1.66-1.28-2.96-1.28s-2.28,.43-2.96,1.28c-.67,.85-1.01,1.99-1.01,3.4s.34,2.55,1.01,3.41Z"/><path class="e" d="M983.91,429.64v1.29h-3.99v10.33h-1.5v-10.33h-4v-1.29h9.49Z"/><path class="e" d="M992.7,429.64v1.29h-2.6v9.04h2.6v1.29h-6.69v-1.29h2.6v-9.04h-2.6v-1.29h6.69Z"/><path class="e" d="M994.96,432.36c.44-.91,1.07-1.62,1.9-2.13s1.8-.77,2.92-.77,2.09,.26,2.92,.77c.82,.52,1.46,1.23,1.89,2.13s.66,1.93,.66,3.07-.22,2.17-.66,3.07-1.07,1.62-1.89,2.14c-.82,.52-1.8,.78-2.92,.78s-2.1-.26-2.92-.78-1.46-1.24-1.9-2.14-.66-1.93-.66-3.07,.22-2.17,.66-3.07Zm1.87,6.48c.68,.86,1.66,1.29,2.96,1.29s2.28-.43,2.96-1.29c.68-.86,1.01-1.99,1.01-3.41s-.34-2.55-1.01-3.4c-.67-.85-1.66-1.28-2.96-1.28s-2.28,.43-2.96,1.28c-.67,.85-1.01,1.99-1.01,3.4s.34,2.55,1.01,3.41Z"/><path class="e" d="M1007.81,429.64h3l5.54,11.2h.41l-.25-1.04v-10.17h1.48v11.62h-3l-5.52-11.2h-.43l.26,1.04v10.17h-1.5v-11.62Z"/><path class="e" d="M1034.82,440.59c-.74,.56-1.87,.84-3.39,.84-1.75,0-3.07-.39-3.98-1.17-.91-.78-1.36-1.91-1.36-3.38h1.52c0,1.11,.32,1.93,.96,2.47s1.61,.81,2.89,.81c1,0,1.74-.16,2.22-.48,.48-.32,.73-.8,.73-1.45,0-.97-.65-1.61-1.94-1.94l-3.25-.84c-1.72-.45-2.59-1.42-2.59-2.92,0-1,.35-1.76,1.05-2.29s1.72-.79,3.06-.79c1.56,0,2.75,.35,3.58,1.06,.83,.71,1.24,1.69,1.24,2.96h-1.53c0-1.84-1.1-2.77-3.3-2.77-1.74,0-2.6,.59-2.6,1.76,0,.88,.59,1.47,1.76,1.78l3.21,.81c.93,.24,1.63,.62,2.1,1.15,.47,.52,.7,1.17,.7,1.95,0,1.07-.37,1.88-1.11,2.44Z"/><path class="e" d="M1046.6,429.64v1.29h-3.99v10.33h-1.5v-10.33h-4v-1.29h9.49Z"/><path class="e" d="M1048.46,432.36c.44-.91,1.07-1.62,1.9-2.13s1.8-.77,2.92-.77,2.09,.26,2.92,.77c.82,.52,1.46,1.23,1.89,2.13s.66,1.93,.66,3.07-.22,2.17-.66,3.07-1.07,1.62-1.89,2.14c-.82,.52-1.8,.78-2.92,.78s-2.1-.26-2.92-.78-1.46-1.24-1.9-2.14-.66-1.93-.66-3.07,.22-2.17,.66-3.07Zm1.87,6.48c.68,.86,1.66,1.29,2.96,1.29s2.28-.43,2.96-1.29c.68-.86,1.01-1.99,1.01-3.41s-.34-2.55-1.01-3.4c-.67-.85-1.66-1.28-2.96-1.28s-2.28,.43-2.96,1.28c-.67,.85-1.01,1.99-1.01,3.4s.34,2.55,1.01,3.41Z"/><path class="e" d="M1061.31,429.64h4.3c1.48,0,2.61,.22,3.38,.67s1.15,1.26,1.15,2.44c0,.86-.2,1.49-.6,1.91-.4,.42-.97,.69-1.72,.82v.41h1.27c.71,0,1.07,.38,1.07,1.14v4.22h-1.48v-4.6h-5.87v4.6h-1.5v-11.62Zm4.3,5.73c.69,0,1.25-.06,1.69-.17,.43-.12,.77-.34,1-.68s.35-.82,.35-1.44-.12-1.11-.35-1.42c-.24-.31-.56-.51-.98-.6-.42-.09-.99-.14-1.71-.14h-2.8v4.45h2.8Z"/><path class="e" d="M1081.49,429.64l-3.46,6.72h-.77v4.89h-1.48v-4.89h-.77l-3.44-6.72h1.58l3.16,6.33h.43l3.16-6.33h1.6Z"/><path class="e" d="M1092.62,429.64v1.29h-3.99v10.33h-1.5v-10.33h-4v-1.29h9.49Z"/><path class="e" d="M1094.77,429.64h8.07v1.29h-6.57v3.89h5.75v1.25h-5.75v3.9h6.57v1.29h-8.07v-11.62Z"/><path class="e" d="M1105.44,440.99c-.18-.18-.27-.43-.27-.77v-10.58h1.5v10.33h5.82v1.29h-6.28c-.33,0-.58-.09-.77-.26Z"/><path class="e" d="M1114.72,440.99c-.18-.18-.27-.43-.27-.77v-10.58h1.5v10.33h5.82v1.29h-6.28c-.33,0-.58-.09-.77-.26Z"/><path class="e" d="M1130.31,429.64v1.29h-2.6v9.04h2.6v1.29h-6.69v-1.29h2.6v-9.04h-2.6v-1.29h6.69Z"/><path class="e" d="M1132.93,429.64h3l5.54,11.2h.41l-.25-1.04v-10.17h1.48v11.62h-3l-5.52-11.2h-.43l.26,1.04v10.17h-1.5v-11.62Z"/><path class="e" d="M1148.01,440.68c-.78-.51-1.36-1.2-1.75-2.08-.39-.88-.58-1.9-.58-3.04,0-1.22,.22-2.29,.66-3.2s1.07-1.63,1.9-2.13,1.82-.76,2.97-.76c1.41,0,2.56,.38,3.46,1.15,.9,.77,1.44,1.83,1.63,3.18h-1.52c-.13-.97-.51-1.72-1.12-2.25s-1.42-.8-2.41-.8c-1.3,0-2.3,.44-3.01,1.31-.71,.87-1.06,2.05-1.06,3.53,0,1.36,.32,2.46,.97,3.3s1.66,1.26,3.03,1.26c1.27,0,2.24-.34,2.9-1.02,.66-.68,.97-1.67,.92-2.97h-4.5v-1.15h4.99c.69,0,1.04,.32,1.04,.97v5.27h-1.5v-1.32l.31-1.56h-.43c-.03,.39-.16,.82-.39,1.29-.23,.46-.64,.87-1.24,1.24-.59,.36-1.39,.54-2.41,.54-1.14,0-2.1-.25-2.88-.76Z"/><path class="e" d="M1160.98,438.9l-1.32,4.86-1.32-.36,1.32-4.86,1.32,.36Z"/><path class="e" d="M669.34,461.47h-2.9l-1.99-11.2h-.41l-1.94,11.2h-2.93l-2.14-11.62h1.48l1.91,9.97-.1,1.24h.43l1.98-11.2h3.06l1.96,11.2h.43l-.07-1.24,1.86-9.97h1.48l-2.11,11.62Z"/><path class="e" d="M673.33,449.86h8.07v1.29h-6.57v3.89h5.75v1.25h-5.75v3.9h6.57v1.29h-8.07v-11.62Z"/><path class="e" d="M689.66,449.86h3.92c1.02,0,1.86,.08,2.5,.25,.65,.17,1.14,.45,1.48,.87s.51,.99,.51,1.72c0,.79-.22,1.39-.68,1.79-.45,.4-1.01,.63-1.68,.68v.4c2.14,.06,3.21,.99,3.21,2.82,0,1.13-.4,1.93-1.19,2.4s-1.95,.7-3.48,.7h-4.61v-11.62Zm3.99,4.97c.67,0,1.21-.05,1.63-.14,.42-.09,.74-.28,.97-.54,.23-.27,.35-.67,.35-1.19,0-.56-.11-.98-.34-1.24-.23-.27-.54-.44-.94-.52-.4-.08-.96-.12-1.67-.12h-2.49v3.76h2.49Zm.67,5.39c.71,0,1.29-.05,1.73-.16,.44-.11,.78-.31,1.02-.61s.36-.74,.36-1.33c0-.79-.26-1.34-.77-1.65s-1.3-.46-2.34-.46h-3.16v4.2h3.16Z"/><path class="e" d="M701.06,449.86h1.5v6.99c0,1.21,.23,2.09,.7,2.66,.47,.57,1.29,.85,2.46,.85s2-.28,2.48-.85,.72-1.45,.72-2.66v-6.99h1.5v7.3c0,1.47-.39,2.59-1.16,3.35-.77,.76-1.95,1.15-3.53,1.15-3.11,0-4.66-1.5-4.66-4.5v-7.3Z"/><path class="e" d="M719.27,449.86v1.29h-2.6v9.04h2.6v1.29h-6.69v-1.29h2.6v-9.04h-2.6v-1.29h6.69Z"/><path class="e" d="M722.16,461.21c-.18-.18-.27-.43-.27-.77v-10.58h1.5v10.33h5.82v1.29h-6.28c-.33,0-.58-.09-.77-.26Z"/><path class="e" d="M731.16,449.86h3.74c1.11,0,2.09,.15,2.95,.44,.86,.3,1.56,.87,2.11,1.73,.55,.86,.82,2.07,.82,3.62s-.27,2.79-.82,3.64c-.55,.86-1.25,1.43-2.11,1.73-.86,.3-1.84,.45-2.95,.45h-3.74v-11.62Zm3.74,10.33c.86,0,1.59-.1,2.21-.29,.62-.19,1.13-.62,1.55-1.28,.42-.67,.63-1.65,.63-2.96s-.21-2.28-.63-2.94c-.42-.66-.93-1.09-1.55-1.29-.62-.19-1.35-.29-2.21-.29h-2.24v9.04h2.24Z"/><path class="e" d="M744.11,459.12l-1.32,4.86-1.32-.36,1.32-4.86,1.32,.36Z"/><path class="e" d="M752.84,449.86h3.74c1.11,0,2.09,.15,2.95,.44,.86,.3,1.56,.87,2.11,1.73,.55,.86,.82,2.07,.82,3.62s-.27,2.79-.82,3.64c-.55,.86-1.25,1.43-2.11,1.73-.86,.3-1.84,.45-2.95,.45h-3.74v-11.62Zm3.74,10.33c.86,0,1.59-.1,2.21-.29,.62-.19,1.13-.62,1.55-1.28,.42-.67,.63-1.65,.63-2.96s-.21-2.28-.63-2.94c-.42-.66-.93-1.09-1.55-1.29-.62-.19-1.35-.29-2.21-.29h-2.24v9.04h2.24Z"/><path class="e" d="M765.02,449.86h8.07v1.29h-6.57v3.89h5.75v1.25h-5.75v3.9h6.57v1.29h-8.07v-11.62Z"/><path class="e" d="M775.48,449.86h3.38c1.64,0,2.85,.29,3.65,.86,.8,.57,1.19,1.57,1.19,2.98s-.4,2.41-1.19,2.99c-.8,.58-2.01,.86-3.65,.86h-1.88v3.92h-1.5v-11.62Zm3.43,6.41c.71,0,1.31-.07,1.78-.21,.47-.14,.85-.39,1.12-.77,.27-.37,.41-.91,.41-1.6s-.14-1.22-.41-1.6c-.28-.37-.65-.63-1.12-.76s-1.07-.2-1.78-.2h-1.93v5.12h1.93Z"/><path class="e" d="M786.38,461.21c-.18-.18-.27-.43-.27-.77v-10.58h1.5v10.33h5.82v1.29h-6.28c-.33,0-.58-.09-.77-.26Z"/><path class="e" d="M795.12,452.58c.44-.91,1.07-1.62,1.9-2.13s1.8-.77,2.92-.77,2.09,.26,2.92,.77c.82,.52,1.46,1.23,1.89,2.13s.66,1.93,.66,3.07-.22,2.17-.66,3.07-1.07,1.62-1.89,2.14c-.82,.52-1.8,.78-2.92,.78s-2.1-.26-2.92-.78-1.46-1.24-1.9-2.14-.66-1.93-.66-3.07,.22-2.17,.66-3.07Zm1.87,6.48c.68,.86,1.66,1.29,2.96,1.29s2.28-.43,2.96-1.29c.68-.86,1.01-1.99,1.01-3.41s-.34-2.55-1.01-3.4c-.67-.85-1.66-1.28-2.96-1.28s-2.28,.43-2.96,1.28c-.67,.85-1.01,1.99-1.01,3.4s.34,2.55,1.01,3.41Z"/><path class="e" d="M815.73,449.86l-3.46,6.72h-.77v4.89h-1.48v-4.89h-.77l-3.44-6.72h1.58l3.16,6.33h.43l3.16-6.33h1.6Z"/><path class="e" d="M817.65,459.12l-1.32,4.86-1.32-.36,1.32-4.86,1.32,.36Z"/><path class="e" d="M829.33,449.86h3.21l3.71,11.62h-1.57l-1.4-4.45h-4.7l-1.4,4.45h-1.55l3.69-11.62Zm3.54,5.88l-1.73-5.47h-.41l-1.73,5.47h3.87Z"/><path class="e" d="M838.27,449.86h3l5.54,11.2h.41l-.25-1.04v-10.17h1.48v11.62h-3l-5.52-11.2h-.43l.26,1.04v10.17h-1.5v-11.62Z"/><path class="e" d="M851.24,449.86h3.74c1.11,0,2.09,.15,2.95,.44,.86,.3,1.56,.87,2.11,1.73,.55,.86,.82,2.07,.82,3.62s-.27,2.79-.82,3.64c-.55,.86-1.25,1.43-2.11,1.73-.86,.3-1.84,.45-2.95,.45h-3.74v-11.62Zm3.74,10.33c.86,0,1.59-.1,2.21-.29,.62-.19,1.13-.62,1.55-1.28,.42-.67,.63-1.65,.63-2.96s-.21-2.28-.63-2.94c-.42-.66-.93-1.09-1.55-1.29-.62-.19-1.35-.29-2.21-.29h-2.24v9.04h2.24Z"/><path class="e" d="M872.16,449.86h3.21l3.71,11.62h-1.57l-1.4-4.45h-4.7l-1.4,4.45h-1.55l3.69-11.62Zm3.54,5.88l-1.73-5.47h-.41l-1.73,5.47h3.87Z"/><path class="e" d="M881.11,449.86h3l3.08,11.2h.43l3.08-11.2h2.98v11.62h-1.5v-9.77l.25-1.43h-.41l-3.13,11.2h-3l-3.11-11.2h-.43l.26,1.43v9.77h-1.5v-11.62Z"/><path class="e" d="M896.47,449.86h3.38c1.64,0,2.85,.29,3.65,.86,.8,.57,1.19,1.57,1.19,2.98s-.4,2.41-1.19,2.99c-.8,.58-2.01,.86-3.65,.86h-1.88v3.92h-1.5v-11.62Zm3.43,6.41c.71,0,1.31-.07,1.78-.21,.47-.14,.85-.39,1.12-.77,.27-.37,.41-.91,.41-1.6s-.14-1.22-.41-1.6c-.28-.37-.65-.63-1.12-.76s-1.07-.2-1.78-.2h-1.93v5.12h1.93Z"/><path class="e" d="M907.37,461.21c-.18-.18-.27-.43-.27-.77v-10.58h1.5v10.33h5.82v1.29h-6.28c-.33,0-.58-.09-.77-.26Z"/><path class="e" d="M922.96,449.86v1.29h-2.6v9.04h2.6v1.29h-6.69v-1.29h2.6v-9.04h-2.6v-1.29h6.69Z"/><path class="e" d="M925.58,449.86h7.71v1.29h-6.21v4.17h5.49v1.27h-5.49v4.89h-1.5v-11.62Z"/><path class="e" d="M944.99,449.86l-3.46,6.72h-.77v4.89h-1.48v-4.89h-.77l-3.44-6.72h1.58l3.16,6.33h.43l3.16-6.33h1.6Z"/><path class="e" d="M952.9,449.86h3l3.08,11.2h.43l3.08-11.2h2.98v11.62h-1.5v-9.77l.25-1.43h-.41l-3.13,11.2h-3l-3.11-11.2h-.43l.26,1.43v9.77h-1.5v-11.62Z"/><path class="e" d="M968.68,452.58c.44-.91,1.07-1.62,1.9-2.13s1.8-.77,2.92-.77,2.09,.26,2.92,.77c.82,.52,1.46,1.23,1.89,2.13s.66,1.93,.66,3.07-.22,2.17-.66,3.07-1.07,1.62-1.89,2.14c-.82,.52-1.8,.78-2.92,.78s-2.1-.26-2.92-.78-1.46-1.24-1.9-2.14-.66-1.93-.66-3.07,.22-2.17,.66-3.07Zm1.87,6.48c.68,.86,1.66,1.29,2.96,1.29s2.28-.43,2.96-1.29c.68-.86,1.01-1.99,1.01-3.41s-.34-2.55-1.01-3.4c-.67-.85-1.66-1.28-2.96-1.28s-2.28,.43-2.96,1.28c-.67,.85-1.01,1.99-1.01,3.4s.34,2.55,1.01,3.41Z"/><path class="e" d="M981.53,449.86h3.74c1.11,0,2.09,.15,2.95,.44,.86,.3,1.56,.87,2.11,1.73,.55,.86,.82,2.07,.82,3.62s-.27,2.79-.82,3.64c-.55,.86-1.25,1.43-2.11,1.73-.86,.3-1.84,.45-2.95,.45h-3.74v-11.62Zm3.74,10.33c.86,0,1.59-.1,2.21-.29,.62-.19,1.13-.62,1.55-1.28,.42-.67,.63-1.65,.63-2.96s-.21-2.28-.63-2.94c-.42-.66-.93-1.09-1.55-1.29-.62-.19-1.35-.29-2.21-.29h-2.24v9.04h2.24Z"/><path class="e" d="M993.71,449.86h8.07v1.29h-6.57v3.89h5.75v1.25h-5.75v3.9h6.57v1.29h-8.07v-11.62Z"/><path class="e" d="M1004.17,449.86h4.3c1.48,0,2.61,.22,3.38,.67s1.15,1.26,1.15,2.44c0,.86-.2,1.49-.6,1.91-.4,.42-.97,.69-1.72,.82v.41h1.27c.71,0,1.07,.38,1.07,1.14v4.22h-1.48v-4.6h-5.87v4.6h-1.5v-11.62Zm4.3,5.73c.69,0,1.25-.06,1.69-.17,.43-.12,.77-.34,1-.68s.35-.82,.35-1.44-.12-1.11-.35-1.42c-.24-.31-.56-.51-.98-.6-.42-.09-.99-.14-1.71-.14h-2.8v4.45h2.8Z"/><path class="e" d="M1015.74,449.86h3l5.54,11.2h.41l-.25-1.04v-10.17h1.48v11.62h-3l-5.52-11.2h-.43l.26,1.04v10.17h-1.5v-11.62Z"/><path class="e" d="M1034.5,449.86h3.92c1.02,0,1.86,.08,2.5,.25,.65,.17,1.14,.45,1.48,.87s.51,.99,.51,1.72c0,.79-.22,1.39-.68,1.79-.45,.4-1.01,.63-1.68,.68v.4c2.14,.06,3.21,.99,3.21,2.82,0,1.13-.4,1.93-1.19,2.4s-1.95,.7-3.48,.7h-4.61v-11.62Zm3.99,4.97c.67,0,1.21-.05,1.63-.14,.42-.09,.74-.28,.97-.54,.23-.27,.35-.67,.35-1.19,0-.56-.11-.98-.34-1.24-.23-.27-.54-.44-.94-.52-.4-.08-.96-.12-1.67-.12h-2.49v3.76h2.49Zm.67,5.39c.71,0,1.29-.05,1.73-.16,.44-.11,.78-.31,1.02-.61s.36-.74,.36-1.33c0-.79-.26-1.34-.77-1.65s-1.3-.46-2.34-.46h-3.16v4.2h3.16Z"/><path class="e" d="M1046.22,449.86h4.3c1.48,0,2.61,.22,3.38,.67s1.15,1.26,1.15,2.44c0,.86-.2,1.49-.6,1.91-.4,.42-.97,.69-1.72,.82v.41h1.27c.71,0,1.07,.38,1.07,1.14v4.22h-1.48v-4.6h-5.87v4.6h-1.5v-11.62Zm4.3,5.73c.69,0,1.25-.06,1.69-.17,.43-.12,.77-.34,1-.68s.35-.82,.35-1.44-.12-1.11-.35-1.42c-.24-.31-.56-.51-.98-.6-.42-.09-.99-.14-1.71-.14h-2.8v4.45h2.8Z"/><path class="e" d="M1060.77,449.86h3.21l3.71,11.62h-1.57l-1.4-4.45h-4.7l-1.4,4.45h-1.55l3.69-11.62Zm3.54,5.88l-1.73-5.47h-.41l-1.73,5.47h3.87Z"/><path class="e" d="M1069.71,449.86h3l5.54,11.2h.41l-.25-1.04v-10.17h1.48v11.62h-3l-5.52-11.2h-.43l.26,1.04v10.17h-1.5v-11.62Z"/><path class="e" d="M1082.68,449.86h3.74c1.11,0,2.09,.15,2.95,.44,.86,.3,1.56,.87,2.11,1.73,.55,.86,.82,2.07,.82,3.62s-.27,2.79-.82,3.64c-.55,.86-1.25,1.43-2.11,1.73-.86,.3-1.84,.45-2.95,.45h-3.74v-11.62Zm3.74,10.33c.86,0,1.59-.1,2.21-.29,.62-.19,1.13-.62,1.55-1.28,.42-.67,.63-1.65,.63-2.96s-.21-2.28-.63-2.94c-.42-.66-.93-1.09-1.55-1.29-.62-.19-1.35-.29-2.21-.29h-2.24v9.04h2.24Z"/><path class="e" d="M1103.1,460.81c-.74,.56-1.87,.84-3.39,.84-1.75,0-3.07-.39-3.98-1.17-.91-.78-1.36-1.91-1.36-3.38h1.52c0,1.11,.32,1.93,.96,2.47s1.61,.81,2.89,.81c1,0,1.74-.16,2.22-.48,.48-.32,.73-.8,.73-1.45,0-.97-.65-1.61-1.94-1.94l-3.25-.84c-1.72-.45-2.59-1.42-2.59-2.92,0-1,.35-1.76,1.05-2.29s1.72-.79,3.06-.79c1.56,0,2.75,.35,3.58,1.06,.83,.71,1.24,1.69,1.24,2.96h-1.53c0-1.84-1.1-2.77-3.3-2.77-1.74,0-2.6,.59-2.6,1.76,0,.88,.59,1.47,1.76,1.78l3.21,.81c.93,.24,1.63,.62,2.1,1.15,.47,.52,.7,1.17,.7,1.95,0,1.07-.37,1.88-1.11,2.44Z"/><path class="e" d="M657.84,470.08h7.71v1.29h-6.21v4.17h5.49v1.27h-5.49v4.89h-1.5v-11.62Z"/><path class="e" d="M668.12,472.81c.44-.91,1.07-1.62,1.9-2.13,.83-.52,1.8-.78,2.92-.78s2.09,.26,2.92,.78c.82,.52,1.46,1.23,1.89,2.13s.66,1.93,.66,3.07-.22,2.17-.66,3.07-1.07,1.62-1.89,2.14c-.82,.52-1.8,.78-2.92,.78s-2.1-.26-2.92-.78c-.83-.52-1.46-1.23-1.9-2.14s-.66-1.93-.66-3.07,.22-2.17,.66-3.07Zm1.87,6.48c.68,.86,1.66,1.29,2.96,1.29s2.28-.43,2.96-1.29c.68-.86,1.01-1.99,1.01-3.41s-.34-2.55-1.01-3.4c-.67-.85-1.66-1.28-2.96-1.28s-2.28,.43-2.96,1.28c-.67,.85-1.01,1.99-1.01,3.4s.34,2.55,1.01,3.41Z"/><path class="e" d="M680.98,470.08h4.3c1.48,0,2.61,.22,3.38,.68,.77,.45,1.15,1.26,1.15,2.44,0,.86-.2,1.49-.6,1.91s-.97,.69-1.72,.82v.41h1.27c.71,0,1.07,.38,1.07,1.14v4.22h-1.48v-4.6h-5.87v4.6h-1.5v-11.62Zm4.3,5.73c.69,0,1.25-.06,1.69-.17,.43-.12,.77-.34,1-.68,.24-.33,.35-.82,.35-1.44s-.12-1.11-.35-1.42-.56-.51-.98-.6c-.42-.09-.99-.14-1.71-.14h-2.8v4.45h2.8Z"/><path class="e" d="M698.32,470.08h8.07v1.29h-6.57v3.89h5.75v1.25h-5.75v3.9h6.57v1.29h-8.07v-11.62Z"/><path class="e" d="M708.14,470.08h1.55l3.54,11.2h.43l3.54-11.2h1.55l-3.71,11.62h-3.21l-3.69-11.62Z"/><path class="e" d="M720.8,470.08h8.07v1.29h-6.57v3.89h5.75v1.25h-5.75v3.9h6.57v1.29h-8.07v-11.62Z"/><path class="e" d="M731.26,470.08h4.3c1.48,0,2.61,.22,3.38,.68,.77,.45,1.15,1.26,1.15,2.44,0,.86-.2,1.49-.6,1.91s-.97,.69-1.72,.82v.41h1.27c.71,0,1.07,.38,1.07,1.14v4.22h-1.48v-4.6h-5.87v4.6h-1.5v-11.62Zm4.3,5.73c.69,0,1.25-.06,1.69-.17,.43-.12,.77-.34,1-.68,.24-.33,.35-.82,.35-1.44s-.12-1.11-.35-1.42-.56-.51-.98-.6c-.42-.09-.99-.14-1.71-.14h-2.8v4.45h2.8Z"/><path class="e" d="M751.44,470.08l-3.46,6.72h-.77v4.89h-1.48v-4.89h-.77l-3.44-6.72h1.58l3.16,6.33h.43l3.16-6.33h1.6Z"/><path class="e" d="M765.05,481.69h-2.9l-1.99-11.2h-.41l-1.94,11.2h-2.93l-2.14-11.62h1.48l1.91,9.97-.1,1.23h.43l1.98-11.2h3.06l1.96,11.2h.43l-.07-1.23,1.86-9.97h1.48l-2.11,11.62Z"/><path class="e" d="M770.54,470.08v5.24h6.62v-5.24h1.5v11.62h-1.5v-5.07h-6.62v5.07h-1.5v-11.62h1.5Z"/><path class="e" d="M781.45,470.08h8.07v1.29h-6.57v3.89h5.75v1.25h-5.75v3.9h6.57v1.29h-8.07v-11.62Z"/><path class="e" d="M791.91,470.08h4.3c1.48,0,2.61,.22,3.38,.68,.77,.45,1.15,1.26,1.15,2.44,0,.86-.2,1.49-.6,1.91s-.97,.69-1.72,.82v.41h1.27c.71,0,1.07,.38,1.07,1.14v4.22h-1.48v-4.6h-5.87v4.6h-1.5v-11.62Zm4.3,5.73c.69,0,1.25-.06,1.69-.17,.43-.12,.77-.34,1-.68,.24-.33,.35-.82,.35-1.44s-.12-1.11-.35-1.42-.56-.51-.98-.6c-.42-.09-.99-.14-1.71-.14h-2.8v4.45h2.8Z"/><path class="e" d="M803.48,470.08h8.07v1.29h-6.57v3.89h5.75v1.25h-5.75v3.9h6.57v1.29h-8.07v-11.62Z"/><path class="e" d="M828.8,470.08v1.29h-3.99v10.33h-1.5v-10.33h-4v-1.29h9.49Z"/><path class="e" d="M832.46,470.08v5.24h6.62v-5.24h1.5v11.62h-1.5v-5.07h-6.62v5.07h-1.5v-11.62h1.5Z"/><path class="e" d="M843.36,470.08h8.07v1.29h-6.57v3.89h5.75v1.25h-5.75v3.9h6.57v1.29h-8.07v-11.62Z"/><path class="e" d="M863.05,470.08l-3.46,6.72h-.77v4.89h-1.48v-4.89h-.77l-3.44-6.72h1.58l3.16,6.33h.43l3.16-6.33h1.6Z"/><path class="e" d="M879.21,481.04c-.74,.56-1.87,.84-3.39,.84-1.75,0-3.07-.39-3.98-1.17-.91-.78-1.36-1.91-1.36-3.38h1.52c0,1.11,.32,1.93,.96,2.47,.64,.54,1.61,.81,2.89,.81,1,0,1.74-.16,2.22-.48s.73-.8,.73-1.45c0-.97-.65-1.61-1.94-1.94l-3.25-.84c-1.72-.45-2.59-1.42-2.59-2.92,0-1,.35-1.76,1.05-2.29s1.72-.79,3.06-.79c1.56,0,2.75,.35,3.58,1.06,.83,.71,1.24,1.7,1.24,2.96h-1.53c0-1.84-1.1-2.77-3.3-2.77-1.74,0-2.6,.59-2.6,1.76,0,.88,.59,1.47,1.76,1.78l3.21,.81c.93,.24,1.63,.62,2.1,1.15,.47,.52,.7,1.17,.7,1.95,0,1.07-.37,1.88-1.11,2.44Z"/><path class="e" d="M884.11,470.08v5.24h6.62v-5.24h1.5v11.62h-1.5v-5.07h-6.62v5.07h-1.5v-11.62h1.5Z"/><path class="e" d="M895.44,472.81c.44-.91,1.07-1.62,1.9-2.13,.83-.52,1.8-.78,2.92-.78s2.09,.26,2.92,.78c.82,.52,1.46,1.23,1.89,2.13s.66,1.93,.66,3.07-.22,2.17-.66,3.07-1.07,1.62-1.89,2.14c-.82,.52-1.8,.78-2.92,.78s-2.1-.26-2.92-.78c-.83-.52-1.46-1.23-1.9-2.14s-.66-1.93-.66-3.07,.22-2.17,.66-3.07Zm1.87,6.48c.68,.86,1.66,1.29,2.96,1.29s2.28-.43,2.96-1.29c.68-.86,1.01-1.99,1.01-3.41s-.34-2.55-1.01-3.4c-.67-.85-1.66-1.28-2.96-1.28s-2.28,.43-2.96,1.28c-.67,.85-1.01,1.99-1.01,3.4s.34,2.55,1.01,3.41Z"/><path class="e" d="M919.39,481.69h-2.9l-1.99-11.2h-.41l-1.94,11.2h-2.93l-2.14-11.62h1.48l1.91,9.97-.1,1.23h.43l1.98-11.2h3.06l1.96,11.2h.43l-.07-1.23,1.86-9.97h1.48l-2.11,11.62Z"/><path class="e" d="M928.94,470.08h1.5v6.99c0,1.21,.23,2.09,.7,2.66,.47,.57,1.29,.85,2.46,.85s2-.28,2.48-.85c.48-.57,.72-1.45,.72-2.66v-6.99h1.5v7.3c0,1.47-.39,2.59-1.16,3.35s-1.95,1.14-3.53,1.14c-3.11,0-4.66-1.5-4.66-4.5v-7.3Z"/><path class="e" d="M940.94,470.08h3.38c1.64,0,2.85,.29,3.65,.86,.8,.57,1.19,1.56,1.19,2.98s-.4,2.41-1.19,2.99c-.8,.58-2.01,.86-3.65,.86h-1.88v3.92h-1.5v-11.62Zm3.43,6.41c.71,0,1.31-.07,1.78-.21,.47-.14,.85-.39,1.12-.77,.27-.37,.41-.91,.41-1.6s-.14-1.22-.41-1.6c-.28-.37-.65-.62-1.12-.76-.47-.13-1.07-.2-1.78-.2h-1.93v5.12h1.93Z"/><path class="e" d="M949.63,481.46c-.27-.27-.4-.6-.4-1s.13-.72,.4-.99c.27-.26,.6-.4,1-.4s.73,.13,1,.4c.27,.27,.41,.6,.41,.98s-.14,.71-.41,.99c-.28,.27-.61,.41-1,.41s-.73-.13-1-.4Z"/></g><rect class="i" x="187.39" y="463.63" width="89.12" height=".7"/><rect class="i" x="325.85" y="463.63" width="70.89" height=".7"/></g></g></g></svg>